{"glyphs":{"0":{"ha":704,"x_min":61,"x_max":671,"o":"m 435 954 q 222 856 306 954 q 99 606 138 757 q 61 296 61 456 q 121 58 61 139 q 297 -22 181 -22 q 509 76 425 -22 q 632 326 593 175 q 671 636 671 478 q 611 873 671 792 q 435 954 551 954 m 425 813 q 474 783 457 813 q 490 686 490 753 q 468 434 490 567 q 404 210 446 301 q 306 119 363 119 q 258 149 274 119 q 242 246 242 179 q 263 494 242 361 q 326 720 285 628 q 425 813 368 813 z "},"1":{"ha":540,"x_min":56,"x_max":510,"o":"m 510 936 l 379 0 l 197 0 l 299 733 l 122 618 l 56 747 l 343 936 l 510 936 z "},"2":{"ha":588,"x_min":-24,"x_max":581,"o":"m 338 954 q 517 890 454 954 q 581 722 581 825 q 543 565 581 643 q 426 393 506 488 q 194 146 346 299 l 517 149 l 475 0 l -24 0 l -6 139 q 238 413 163 322 q 351 573 314 503 q 389 711 389 643 q 367 783 389 758 q 310 807 346 807 q 236 785 271 807 q 157 714 201 763 l 58 801 q 186 915 118 876 q 338 954 254 954 z "},"3":{"ha":593,"x_min":-58,"x_max":572,"o":"m 339 954 q 510 894 449 954 q 572 738 572 833 q 356 493 572 547 q 528 314 528 471 q 486 149 528 226 q 368 24 444 71 q 190 -22 292 -22 q 45 13 106 -22 q -58 117 -15 49 l 54 206 q 117 142 86 161 q 190 122 149 122 q 297 176 256 122 q 338 319 338 229 q 310 399 338 375 q 231 422 283 422 l 168 422 l 211 556 l 250 556 q 350 601 313 556 q 388 719 388 647 q 367 789 388 765 q 306 813 346 813 q 147 733 231 813 l 68 835 q 339 954 192 954 z "},"4":{"ha":647,"x_min":7,"x_max":622,"o":"m 622 354 l 601 211 l 517 211 l 488 0 l 310 0 l 339 211 l 7 211 l 25 340 l 326 957 l 478 899 l 222 354 l 360 354 l 414 586 l 569 586 l 538 354 l 622 354 z "},"5":{"ha":615,"x_min":-21,"x_max":624,"o":"m 583 797 l 306 797 l 274 574 q 335 601 307 593 q 393 608 363 608 q 524 549 475 608 q 574 378 574 489 q 533 181 574 272 q 411 33 492 89 q 218 -22 331 -22 q 75 14 132 -22 q -21 114 18 50 l 94 206 q 152 143 122 164 q 225 122 182 122 q 345 197 306 122 q 385 369 385 272 q 365 451 385 426 q 307 475 344 475 q 207 440 261 475 l 81 442 l 151 936 l 624 936 l 583 797 z "},"6":{"ha":665,"x_min":56,"x_max":653,"o":"m 450 625 q 582 565 533 625 q 631 396 631 506 q 592 190 631 286 q 479 36 554 94 q 301 -22 404 -22 q 116 56 176 -22 q 56 276 56 133 q 107 597 56 440 q 256 854 158 754 q 483 954 353 954 q 653 893 581 954 l 571 783 q 478 817 526 817 q 358 741 413 817 q 272 528 304 665 q 450 625 350 625 m 308 117 q 386 163 356 117 q 431 276 417 210 q 446 401 446 342 q 431 472 446 451 q 385 492 415 492 q 319 465 353 492 q 251 390 285 439 q 239 243 239 272 q 256 147 239 176 q 308 117 274 117 z "},"7":{"ha":531,"x_min":29,"x_max":593,"o":"m 593 936 l 574 804 l 185 -19 l 29 38 l 382 790 l 74 790 l 94 936 l 593 936 z "},"8":{"ha":665,"x_min":17,"x_max":661,"o":"m 493 497 q 587 410 557 460 q 617 294 617 361 q 574 127 617 199 q 454 17 531 56 q 282 -22 378 -22 q 86 44 156 -22 q 17 215 17 111 q 62 372 17 304 q 206 488 107 440 q 118 667 118 557 q 157 819 118 754 q 263 919 196 883 q 415 954 331 954 q 594 899 528 954 q 661 747 661 843 q 622 608 661 668 q 493 497 583 549 m 406 824 q 322 778 349 824 q 294 668 294 733 q 311 602 294 626 q 368 557 328 578 l 386 549 q 460 633 439 588 q 482 736 482 678 q 406 824 482 824 m 294 117 q 397 164 360 117 q 433 292 433 211 q 413 366 433 338 q 336 421 392 394 l 310 433 q 200 224 200 358 q 224 144 200 171 q 294 117 249 117 z "},"9":{"ha":649,"x_min":31,"x_max":643,"o":"m 394 954 q 580 881 517 954 q 643 676 643 807 q 505 228 643 418 q 56 -37 367 39 l 31 94 q 285 217 193 143 q 425 425 376 290 q 341 353 382 376 q 251 329 300 329 q 115 394 167 329 q 63 568 63 458 q 102 760 63 671 q 217 901 142 849 q 394 954 292 954 m 317 464 q 446 558 379 464 q 454 700 454 633 q 438 791 454 763 q 383 819 421 819 q 282 742 315 819 q 249 571 249 664 q 317 464 249 464 z "},"\r":{"ha":254,"x_min":0,"x_max":0,"o":""}," ":{"ha":254,"x_min":0,"x_max":0,"o":""},"A":{"ha":685,"x_min":-60,"x_max":640,"o":"m 442 0 l 431 218 l 211 218 l 142 0 l -60 0 l 308 961 l 543 961 l 640 0 l 442 0 m 256 363 l 424 363 l 401 824 l 256 363 z "},"Á":{"ha":685,"x_min":-60,"x_max":640,"o":"m 442 0 l 431 218 l 211 218 l 142 0 l -60 0 l 308 961 l 543 961 l 640 0 l 442 0 m 256 363 l 424 363 l 401 824 l 256 363 m 560 1292 l 626 1154 l 340 1040 l 296 1131 l 560 1292 z "},"Ă":{"ha":685,"x_min":-60,"x_max":657,"o":"m 442 0 l 431 218 l 211 218 l 142 0 l -60 0 l 308 961 l 543 961 l 640 0 l 442 0 m 256 363 l 424 363 l 401 824 l 256 363 m 438 1046 q 310 1099 354 1046 q 267 1233 267 1153 l 268 1256 l 368 1272 q 447 1181 375 1181 q 513 1206 486 1181 q 556 1276 540 1232 l 657 1250 q 582 1102 638 1158 q 438 1046 526 1046 z "},"Ắ":{"ha":685,"x_min":-60,"x_max":676,"o":"m 676 1435 l 464 1238 l 400 1297 l 585 1531 l 676 1435 m 446 1158 q 512 1184 485 1158 q 554 1254 539 1210 l 656 1228 q 581 1080 636 1136 q 436 1024 525 1024 q 309 1077 353 1024 q 265 1211 265 1131 l 267 1233 l 367 1250 q 446 1158 374 1158 m 308 961 l 543 961 l 640 0 l 442 0 l 431 218 l 211 218 l 142 0 l -60 0 l 308 961 m 256 363 l 424 363 l 401 824 l 256 363 z "},"Ặ":{"ha":685,"x_min":-60,"x_max":657,"o":"m 442 0 l 431 218 l 211 218 l 142 0 l -60 0 l 308 961 l 543 961 l 640 0 l 442 0 m 256 363 l 424 363 l 401 824 l 256 363 m 438 1046 q 310 1099 354 1046 q 267 1233 267 1153 l 268 1256 l 368 1272 q 447 1181 375 1181 q 513 1206 486 1181 q 556 1276 540 1232 l 657 1250 q 582 1102 638 1158 q 438 1046 526 1046 m 272 -90 q 345 -117 319 -90 q 371 -187 371 -143 q 335 -278 371 -243 q 249 -314 300 -314 q 175 -287 201 -314 q 149 -217 149 -261 q 185 -126 149 -161 q 272 -90 221 -90 z "},"Ằ":{"ha":685,"x_min":-60,"x_max":657,"o":"m 522 1292 l 443 1238 l 286 1442 l 403 1526 l 522 1292 m 438 1024 q 310 1077 354 1024 q 267 1211 267 1131 l 268 1233 l 368 1250 q 447 1158 375 1158 q 513 1184 486 1158 q 556 1254 540 1210 l 657 1228 q 582 1080 638 1136 q 438 1024 526 1024 m 308 961 l 543 961 l 640 0 l 442 0 l 431 218 l 211 218 l 142 0 l -60 0 l 308 961 m 256 363 l 424 363 l 401 824 l 256 363 z "},"Ẳ":{"ha":685,"x_min":-60,"x_max":660,"o":"m 442 0 l 431 218 l 211 218 l 142 0 l -60 0 l 308 961 l 543 961 l 640 0 l 442 0 m 256 363 l 424 363 l 401 824 l 256 363 m 440 1024 q 313 1077 357 1024 q 269 1211 269 1131 l 271 1233 l 371 1250 q 450 1158 378 1158 q 516 1184 489 1158 q 558 1254 543 1210 l 660 1228 q 585 1080 640 1136 q 440 1024 529 1024 m 422 1358 q 488 1377 467 1363 q 510 1424 510 1392 q 472 1460 510 1460 q 406 1442 444 1460 l 383 1528 q 504 1560 436 1560 q 602 1526 567 1560 q 638 1436 638 1492 q 524 1299 638 1324 l 515 1238 l 407 1238 l 422 1358 z "},"Ẵ":{"ha":685,"x_min":-60,"x_max":697,"o":"m 408 1354 q 376 1340 390 1354 q 343 1296 361 1326 l 260 1344 q 333 1447 292 1407 q 418 1486 374 1486 q 463 1476 444 1486 q 503 1450 482 1467 q 527 1431 517 1438 q 550 1425 538 1425 q 581 1438 567 1425 q 614 1481 596 1451 l 697 1435 q 624 1333 665 1369 q 538 1296 582 1296 q 499 1304 517 1296 q 458 1329 482 1313 q 431 1348 442 1342 q 408 1354 419 1354 m 444 1158 q 510 1184 483 1158 q 553 1254 538 1210 l 654 1228 q 579 1080 635 1136 q 435 1024 524 1024 q 308 1077 351 1024 q 264 1211 264 1131 l 265 1233 l 365 1250 q 444 1158 372 1158 m 308 961 l 543 961 l 640 0 l 442 0 l 431 218 l 211 218 l 142 0 l -60 0 l 308 961 m 256 363 l 424 363 l 401 824 l 256 363 z "},"Ǎ":{"ha":685,"x_min":-60,"x_max":682,"o":"m 442 0 l 431 218 l 211 218 l 142 0 l -60 0 l 308 961 l 543 961 l 640 0 l 442 0 m 256 363 l 424 363 l 401 824 l 256 363 m 613 1293 l 682 1217 l 494 1043 l 382 1043 l 239 1226 l 314 1293 l 450 1176 l 613 1293 z "},"Â":{"ha":685,"x_min":-60,"x_max":661,"o":"m 442 0 l 431 218 l 211 218 l 142 0 l -60 0 l 308 961 l 543 961 l 640 0 l 442 0 m 256 363 l 424 363 l 401 824 l 256 363 m 289 1053 l 219 1129 l 407 1303 l 519 1303 l 661 1119 l 588 1053 l 450 1168 l 289 1053 z "},"Ấ":{"ha":685,"x_min":-60,"x_max":844,"o":"m 844 1390 l 632 1193 l 568 1253 l 753 1486 l 844 1390 m 401 1253 l 514 1253 l 656 1069 l 582 1003 l 444 1118 l 283 1003 l 214 1079 l 401 1253 m 308 961 l 543 961 l 640 0 l 442 0 l 431 218 l 211 218 l 142 0 l -60 0 l 308 961 m 256 363 l 424 363 l 401 824 l 256 363 z "},"Ậ":{"ha":685,"x_min":-60,"x_max":661,"o":"m 442 0 l 431 218 l 211 218 l 142 0 l -60 0 l 308 961 l 543 961 l 640 0 l 442 0 m 256 363 l 424 363 l 401 824 l 256 363 m 289 1053 l 219 1129 l 407 1303 l 519 1303 l 661 1119 l 588 1053 l 450 1168 l 289 1053 m 272 -90 q 345 -117 319 -90 q 371 -187 371 -143 q 335 -278 371 -243 q 249 -314 300 -314 q 175 -287 201 -314 q 149 -217 149 -261 q 185 -126 149 -161 q 272 -90 221 -90 z "},"Ầ":{"ha":685,"x_min":-60,"x_max":656,"o":"m 347 1247 l 268 1193 l 111 1397 l 228 1482 l 347 1247 m 283 1003 l 214 1079 l 401 1253 l 514 1253 l 656 1069 l 582 1003 l 444 1118 l 283 1003 m 308 961 l 543 961 l 640 0 l 442 0 l 431 218 l 211 218 l 142 0 l -60 0 l 308 961 m 256 363 l 424 363 l 401 824 l 256 363 z "},"Ẩ":{"ha":685,"x_min":-60,"x_max":822,"o":"m 442 0 l 431 218 l 211 218 l 142 0 l -60 0 l 308 961 l 543 961 l 640 0 l 442 0 m 256 363 l 424 363 l 401 824 l 256 363 m 282 1003 l 213 1079 l 400 1253 l 513 1253 l 654 1069 l 581 1003 l 443 1118 l 282 1003 m 607 1293 q 673 1312 651 1297 q 694 1358 694 1326 q 657 1394 694 1394 q 590 1376 629 1394 l 568 1463 q 689 1494 621 1494 q 787 1460 751 1494 q 822 1371 822 1426 q 708 1233 822 1258 l 700 1172 l 592 1172 l 607 1293 z "},"Ẫ":{"ha":685,"x_min":-60,"x_max":703,"o":"m 414 1351 q 381 1338 396 1351 q 349 1293 367 1324 l 265 1342 q 338 1444 297 1404 q 424 1483 379 1483 q 469 1474 450 1483 q 508 1447 488 1464 q 533 1428 522 1435 q 556 1422 543 1422 q 587 1435 572 1422 q 619 1478 601 1449 l 703 1432 q 629 1330 671 1367 q 543 1293 588 1293 q 505 1301 522 1293 q 464 1326 488 1310 q 436 1345 447 1339 q 414 1351 425 1351 m 404 1253 l 517 1253 l 658 1069 l 585 1003 l 447 1118 l 286 1003 l 217 1079 l 404 1253 m 308 961 l 543 961 l 640 0 l 442 0 l 431 218 l 211 218 l 142 0 l -60 0 l 308 961 m 256 363 l 424 363 l 401 824 l 256 363 z "},"Ȁ":{"ha":685,"x_min":-60,"x_max":640,"o":"m 442 0 l 431 218 l 211 218 l 142 0 l -60 0 l 308 961 l 543 961 l 640 0 l 442 0 m 256 363 l 424 363 l 401 824 l 256 363 m 328 1357 l 406 1089 l 299 1047 l 186 1299 l 328 1357 m 526 1356 l 594 1092 l 489 1054 l 385 1301 l 526 1356 z "},"Ä":{"ha":685,"x_min":-60,"x_max":683,"o":"m 442 0 l 431 218 l 211 218 l 142 0 l -60 0 l 308 961 l 543 961 l 640 0 l 442 0 m 256 363 l 424 363 l 401 824 l 256 363 m 310 1072 q 247 1096 269 1072 q 224 1157 224 1119 q 256 1238 224 1206 q 331 1269 288 1269 q 394 1246 371 1269 q 418 1183 418 1222 q 387 1104 418 1136 q 310 1072 356 1072 m 576 1072 q 513 1096 536 1072 q 490 1157 490 1119 q 522 1238 490 1206 q 597 1269 553 1269 q 660 1246 636 1269 q 683 1183 683 1222 q 652 1104 683 1136 q 576 1072 621 1072 z "},"Ǟ":{"ha":685,"x_min":-60,"x_max":675,"o":"m 442 0 l 431 218 l 211 218 l 142 0 l -60 0 l 308 961 l 543 961 l 640 0 l 442 0 m 256 363 l 424 363 l 401 824 l 256 363 m 301 1036 q 238 1060 261 1036 q 215 1121 215 1083 q 247 1201 215 1169 q 322 1233 279 1233 q 386 1210 363 1233 q 410 1147 410 1186 q 378 1068 410 1100 q 301 1036 347 1036 m 568 1036 q 505 1060 528 1036 q 482 1121 482 1083 q 513 1201 482 1169 q 589 1233 544 1233 q 651 1210 628 1233 q 675 1147 675 1186 q 644 1068 675 1100 q 568 1036 613 1036 m 635 1296 l 290 1296 l 310 1429 l 656 1429 l 635 1296 z "},"Ȧ":{"ha":685,"x_min":-60,"x_max":640,"o":"m 442 0 l 431 218 l 211 218 l 142 0 l -60 0 l 308 961 l 543 961 l 640 0 l 442 0 m 256 363 l 424 363 l 401 824 l 256 363 m 446 1063 q 373 1089 399 1063 q 347 1160 347 1115 q 383 1251 347 1215 q 469 1286 418 1286 q 543 1260 517 1286 q 569 1189 569 1233 q 533 1098 569 1133 q 446 1063 497 1063 z "},"Ạ":{"ha":685,"x_min":-60,"x_max":640,"o":"m 442 0 l 431 218 l 211 218 l 142 0 l -60 0 l 308 961 l 543 961 l 640 0 l 442 0 m 256 363 l 424 363 l 401 824 l 256 363 m 272 -90 q 345 -117 319 -90 q 371 -187 371 -143 q 335 -278 371 -243 q 249 -314 300 -314 q 175 -287 201 -314 q 149 -217 149 -261 q 185 -126 149 -161 q 272 -90 221 -90 z "},"Ǡ":{"ha":685,"x_min":-60,"x_max":663,"o":"m 442 0 l 431 218 l 211 218 l 142 0 l -60 0 l 308 961 l 543 961 l 640 0 l 442 0 m 256 363 l 424 363 l 401 824 l 256 363 m 435 1025 q 362 1051 388 1025 q 336 1122 336 1078 q 372 1213 336 1178 q 458 1249 407 1249 q 532 1222 506 1249 q 558 1151 558 1196 q 522 1060 558 1096 q 435 1025 486 1025 m 642 1296 l 297 1296 l 317 1429 l 663 1429 l 642 1296 z "},"À":{"ha":685,"x_min":-60,"x_max":640,"o":"m 442 0 l 431 218 l 211 218 l 142 0 l -60 0 l 308 961 l 543 961 l 640 0 l 442 0 m 256 363 l 424 363 l 401 824 l 256 363 m 392 1289 l 621 1128 l 564 1042 l 310 1154 l 392 1289 z "},"Ả":{"ha":685,"x_min":-60,"x_max":640,"o":"m 442 0 l 431 218 l 211 218 l 142 0 l -60 0 l 308 961 l 543 961 l 640 0 l 442 0 m 256 363 l 424 363 l 401 824 l 256 363 m 401 1182 q 467 1201 446 1186 q 489 1247 489 1215 q 451 1283 489 1283 q 385 1265 424 1283 l 363 1351 q 483 1383 415 1383 q 581 1349 546 1383 q 617 1260 617 1315 q 503 1122 617 1147 l 494 1061 l 386 1061 l 401 1182 z "},"Ȃ":{"ha":685,"x_min":-60,"x_max":642,"o":"m 442 0 l 431 218 l 211 218 l 142 0 l -60 0 l 308 961 l 543 961 l 640 0 l 442 0 m 256 363 l 424 363 l 401 824 l 256 363 m 246 1089 q 328 1247 269 1188 q 472 1307 386 1307 q 604 1245 561 1307 q 642 1083 647 1183 l 538 1069 q 458 1174 531 1174 q 346 1064 382 1174 l 246 1089 z "},"Ɑ":{"ha":790,"x_min":51,"x_max":793,"o":"m 685 192 q 683 163 683 181 q 690 128 683 140 q 713 107 696 115 l 656 -19 q 510 81 547 -8 q 424 5 469 31 q 318 -21 379 -21 q 122 72 193 -21 q 51 333 51 165 q 101 661 51 513 q 241 897 151 810 q 446 983 331 983 q 603 889 544 983 l 628 961 l 793 961 l 685 192 m 365 124 q 494 204 436 124 l 571 761 q 525 817 549 797 q 469 836 501 836 q 351 765 401 836 q 276 576 301 693 q 250 328 250 460 q 365 124 250 124 z "},"Ā":{"ha":685,"x_min":-60,"x_max":640,"o":"m 442 0 l 431 218 l 211 218 l 142 0 l -60 0 l 308 961 l 543 961 l 640 0 l 442 0 m 256 363 l 424 363 l 401 824 l 256 363 m 614 1090 l 269 1090 l 289 1224 l 635 1224 l 614 1090 z "},"Ą":{"ha":685,"x_min":-60,"x_max":640,"o":"m 550 0 q 396 -164 396 -72 q 449 -212 396 -212 q 515 -206 476 -212 l 488 -324 q 408 -333 446 -333 q 301 -294 342 -333 q 260 -189 260 -256 q 303 -67 260 -121 q 440 31 346 -12 l 431 218 l 211 218 l 142 0 l -60 0 l 308 961 l 543 961 l 640 0 l 550 0 m 256 363 l 424 363 l 401 824 l 256 363 z "},"Å":{"ha":685,"x_min":-60,"x_max":640,"o":"m 442 0 l 431 218 l 211 218 l 142 0 l -60 0 l 308 961 l 543 961 l 640 0 l 442 0 m 256 363 l 424 363 l 401 824 l 256 363 m 478 1363 q 583 1321 544 1363 q 621 1213 621 1279 q 570 1078 621 1132 q 440 1025 519 1025 q 335 1067 374 1025 q 297 1175 297 1108 q 348 1308 297 1254 q 478 1363 399 1363 m 469 1268 q 422 1242 439 1268 q 406 1179 406 1217 q 449 1119 406 1119 q 495 1146 478 1119 q 513 1208 513 1172 q 469 1268 513 1268 z "},"Ǻ":{"ha":685,"x_min":-60,"x_max":640,"o":"m 442 0 l 431 218 l 211 218 l 142 0 l -60 0 l 308 961 l 543 961 l 640 0 l 442 0 m 256 363 l 424 363 l 401 824 l 256 363 m 469 1349 q 574 1307 536 1349 q 613 1199 613 1265 q 562 1065 613 1118 q 432 1011 511 1011 q 327 1053 365 1011 q 289 1161 289 1094 q 340 1294 289 1240 q 469 1349 390 1349 m 461 1254 q 414 1228 431 1254 q 397 1165 397 1203 q 440 1106 397 1106 q 487 1132 469 1106 q 504 1194 504 1158 q 461 1254 504 1254 m 569 1608 l 636 1471 l 350 1357 l 306 1447 l 569 1608 z "},"Ⱥ":{"ha":685,"x_min":-60,"x_max":640,"o":"m 464 0 l 449 218 l 324 218 l 210 -101 l 146 -83 l 254 218 l 197 218 l 125 0 l -60 0 l 308 961 l 519 961 l 550 1046 l 613 1028 l 553 861 l 640 0 l 464 0 m 243 356 l 303 356 l 417 672 l 404 839 l 243 356 m 372 356 l 439 356 l 428 510 l 372 356 z "},"Ã":{"ha":685,"x_min":-60,"x_max":676,"o":"m 442 0 l 431 218 l 211 218 l 142 0 l -60 0 l 308 961 l 543 961 l 640 0 l 442 0 m 256 363 l 424 363 l 401 824 l 256 363 m 515 1067 q 476 1076 493 1067 q 435 1103 458 1085 q 409 1121 422 1113 q 385 1129 396 1129 q 352 1115 367 1129 q 318 1068 338 1100 l 235 1118 q 308 1225 265 1183 q 394 1267 350 1267 q 440 1256 421 1267 q 479 1228 458 1246 q 492 1217 482 1225 q 510 1206 501 1210 q 528 1203 519 1203 q 559 1217 544 1203 q 592 1261 574 1231 l 676 1214 q 602 1106 644 1144 q 515 1067 560 1067 z "},"Æ":{"ha":963,"x_min":-67,"x_max":971,"o":"m 928 818 l 629 818 l 633 557 l 904 557 l 883 415 l 636 415 l 642 144 l 900 144 l 876 0 l 464 0 l 464 218 l 226 218 l 140 0 l -67 0 l 364 961 l 971 961 l 928 818 m 285 364 l 464 364 l 463 815 l 285 364 z "},"Ǽ":{"ha":963,"x_min":-67,"x_max":971,"o":"m 928 818 l 629 818 l 633 557 l 904 557 l 883 415 l 636 415 l 642 144 l 900 144 l 876 0 l 464 0 l 464 218 l 226 218 l 140 0 l -67 0 l 364 961 l 971 961 l 928 818 m 285 364 l 464 364 l 463 815 l 285 364 m 769 1292 l 836 1154 l 550 1040 l 506 1131 l 769 1292 z "},"Ǣ":{"ha":963,"x_min":-67,"x_max":971,"o":"m 928 818 l 629 818 l 633 557 l 904 557 l 883 415 l 636 415 l 642 144 l 900 144 l 876 0 l 464 0 l 464 218 l 226 218 l 140 0 l -67 0 l 364 961 l 971 961 l 928 818 m 285 364 l 464 364 l 463 815 l 285 364 m 824 1090 l 479 1090 l 499 1224 l 844 1224 l 824 1090 z "},"B":{"ha":707,"x_min":22,"x_max":704,"o":"m 501 508 q 624 446 579 490 q 668 319 668 401 q 567 86 668 172 q 281 0 467 0 l 22 0 l 157 961 l 407 961 q 625 906 546 961 q 704 747 704 850 q 649 591 704 651 q 501 508 593 531 m 331 819 l 296 569 l 361 569 q 470 611 433 569 q 507 731 507 653 q 407 819 507 819 l 331 819 m 301 146 q 432 196 393 146 q 471 326 471 246 q 443 409 471 383 q 354 435 415 435 l 276 435 l 236 146 l 301 146 z "},"Ḃ":{"ha":707,"x_min":22,"x_max":704,"o":"m 501 508 q 624 446 579 490 q 668 319 668 401 q 567 86 668 172 q 281 0 467 0 l 22 0 l 157 961 l 407 961 q 625 906 546 961 q 704 747 704 850 q 649 591 704 651 q 501 508 593 531 m 331 819 l 296 569 l 361 569 q 470 611 433 569 q 507 731 507 653 q 407 819 507 819 l 331 819 m 301 146 q 432 196 393 146 q 471 326 471 246 q 443 409 471 383 q 354 435 415 435 l 276 435 l 236 146 l 301 146 m 443 1063 q 370 1089 396 1063 q 344 1160 344 1115 q 380 1251 344 1215 q 467 1286 415 1286 q 540 1260 514 1286 q 567 1189 567 1233 q 531 1098 567 1133 q 443 1063 494 1063 z "},"Ḅ":{"ha":707,"x_min":22,"x_max":704,"o":"m 501 508 q 624 446 579 490 q 668 319 668 401 q 567 86 668 172 q 281 0 467 0 l 22 0 l 157 961 l 407 961 q 625 906 546 961 q 704 747 704 850 q 649 591 704 651 q 501 508 593 531 m 331 819 l 296 569 l 361 569 q 470 611 433 569 q 507 731 507 653 q 407 819 507 819 l 331 819 m 301 146 q 432 196 393 146 q 471 326 471 246 q 443 409 471 383 q 354 435 415 435 l 276 435 l 236 146 l 301 146 m 285 -90 q 358 -117 332 -90 q 383 -187 383 -143 q 348 -278 383 -243 q 261 -314 313 -314 q 188 -287 214 -314 q 161 -217 161 -261 q 197 -126 161 -161 q 285 -90 233 -90 z "},"Ꞵ":{"ha":704,"x_min":-18,"x_max":689,"o":"m 499 508 q 665 319 665 475 q 622 153 665 225 q 503 40 579 81 q 335 0 428 0 q 218 15 275 0 l 175 -289 l -18 -289 l 158 961 l 392 961 q 610 905 531 961 q 689 744 689 849 q 635 589 689 649 q 499 508 582 529 m 324 435 l 354 569 l 369 569 q 460 610 428 569 q 492 729 492 651 q 397 819 492 819 l 331 819 l 238 156 q 319 146 283 146 q 431 197 392 146 q 469 326 469 249 q 442 409 469 383 q 357 435 414 435 l 324 435 z "},"Ɓ":{"ha":876,"x_min":63,"x_max":872,"o":"m 669 508 q 792 446 747 490 q 836 319 836 401 q 735 86 836 172 q 449 0 635 0 l 190 0 l 306 818 l 274 818 q 226 797 243 818 q 210 736 210 776 q 222 654 210 699 l 92 607 q 63 742 63 676 q 123 901 63 842 q 285 961 183 961 l 575 961 q 793 906 714 961 q 872 747 872 850 q 817 591 872 651 q 669 508 761 531 m 499 819 l 464 569 l 529 569 q 638 611 601 569 q 675 731 675 653 q 575 819 675 819 l 499 819 m 469 146 q 600 196 561 146 q 639 326 639 246 q 611 409 639 383 q 522 435 583 435 l 444 435 l 404 146 l 469 146 z "},"Ƀ":{"ha":717,"x_min":-3,"x_max":714,"o":"m 511 508 q 633 446 589 490 q 678 319 678 401 q 577 86 678 172 q 290 0 476 0 l 32 0 l 65 242 l -3 242 l 13 346 l 81 346 l 167 961 l 417 961 q 635 906 556 961 q 714 747 714 850 q 658 591 714 651 q 511 508 603 531 m 340 819 l 306 569 l 371 569 q 480 611 443 569 q 517 731 517 653 q 417 819 517 819 l 340 819 m 311 146 q 442 196 403 146 q 481 326 481 246 q 453 409 481 383 q 364 435 425 435 l 286 435 l 274 346 l 397 346 l 382 242 l 260 242 l 246 146 l 311 146 z "},"Ƃ":{"ha":682,"x_min":22,"x_max":658,"o":"m 367 613 q 581 545 503 613 q 658 356 658 478 q 622 183 658 264 q 504 51 585 103 q 299 0 424 0 l 22 0 l 157 961 l 650 961 l 607 810 l 331 810 l 303 613 l 367 613 m 300 146 q 418 205 382 146 q 454 351 454 264 q 428 443 454 414 q 347 472 401 472 l 282 472 l 236 146 l 300 146 z "},"C":{"ha":663,"x_min":51,"x_max":722,"o":"m 493 983 q 622 956 567 983 q 722 878 678 929 l 619 775 q 490 835 560 835 q 353 757 407 835 q 276 563 300 679 q 251 329 251 447 q 375 132 251 132 q 452 150 417 132 q 538 206 488 168 l 610 93 q 339 -22 486 -22 q 129 71 207 -22 q 51 340 51 164 q 100 653 51 507 q 249 892 149 800 q 493 983 349 983 z "},"Ć":{"ha":663,"x_min":51,"x_max":722,"o":"m 493 983 q 622 956 567 983 q 722 878 678 929 l 619 775 q 490 835 560 835 q 353 757 407 835 q 276 563 300 679 q 251 329 251 447 q 375 132 251 132 q 452 150 417 132 q 538 206 488 168 l 610 93 q 339 -22 486 -22 q 129 71 207 -22 q 51 340 51 164 q 100 653 51 507 q 249 892 149 800 q 493 983 349 983 m 622 1292 l 689 1154 l 403 1040 l 358 1131 l 622 1292 z "},"Č":{"ha":663,"x_min":51,"x_max":744,"o":"m 493 983 q 622 956 567 983 q 722 878 678 929 l 619 775 q 490 835 560 835 q 353 757 407 835 q 276 563 300 679 q 251 329 251 447 q 375 132 251 132 q 452 150 417 132 q 538 206 488 168 l 610 93 q 339 -22 486 -22 q 129 71 207 -22 q 51 340 51 164 q 100 653 51 507 q 249 892 149 800 q 493 983 349 983 m 675 1293 l 744 1217 l 557 1043 l 444 1043 l 301 1226 l 376 1293 l 513 1176 l 675 1293 z "},"Ç":{"ha":663,"x_min":51,"x_max":722,"o":"m 490 835 q 353 757 407 835 q 276 563 300 679 q 251 329 251 447 q 375 132 251 132 q 452 150 417 132 q 538 206 488 168 l 610 93 q 381 -19 507 -4 l 372 -76 q 448 -111 422 -82 q 474 -187 474 -140 q 427 -303 474 -253 q 283 -354 381 -354 q 213 -342 244 -354 q 158 -312 181 -331 l 214 -229 q 281 -247 246 -247 q 324 -234 308 -247 q 340 -196 340 -221 q 319 -160 340 -171 q 243 -150 297 -150 l 275 -17 q 111 96 171 4 q 51 340 51 188 q 100 653 51 507 q 249 892 149 800 q 493 983 349 983 q 622 956 567 983 q 722 878 678 929 l 619 775 q 490 835 560 835 z "},"Ĉ":{"ha":663,"x_min":51,"x_max":724,"o":"m 493 983 q 622 956 567 983 q 722 878 678 929 l 619 775 q 490 835 560 835 q 353 757 407 835 q 276 563 300 679 q 251 329 251 447 q 375 132 251 132 q 452 150 417 132 q 538 206 488 168 l 610 93 q 339 -22 486 -22 q 129 71 207 -22 q 51 340 51 164 q 100 653 51 507 q 249 892 149 800 q 493 983 349 983 m 351 1053 l 282 1129 l 469 1303 l 582 1303 l 724 1119 l 650 1053 l 513 1168 l 351 1053 z "},"Ċ":{"ha":663,"x_min":51,"x_max":722,"o":"m 493 983 q 622 956 567 983 q 722 878 678 929 l 619 775 q 490 835 560 835 q 353 757 407 835 q 276 563 300 679 q 251 329 251 447 q 375 132 251 132 q 452 150 417 132 q 538 206 488 168 l 610 93 q 339 -22 486 -22 q 129 71 207 -22 q 51 340 51 164 q 100 653 51 507 q 249 892 149 800 q 493 983 349 983 m 508 1063 q 435 1089 461 1063 q 410 1160 410 1115 q 445 1251 410 1215 q 532 1286 481 1286 q 606 1260 579 1286 q 632 1189 632 1233 q 596 1098 632 1133 q 508 1063 560 1063 z "},"Ꭓ":{"ha":644,"x_min":-87,"x_max":718,"o":"m 718 961 l 439 411 l 569 -210 l 371 -210 l 304 278 l 124 -210 l -87 -210 l 210 410 l 96 961 l 296 961 l 344 535 l 513 961 l 718 961 z "},"Ƈ":{"ha":658,"x_min":51,"x_max":939,"o":"m 789 1174 q 939 1121 875 1174 l 871 1008 q 800 1032 835 1032 q 731 944 743 1032 l 722 878 l 626 781 q 558 821 590 807 q 490 835 526 835 q 353 757 407 835 q 276 563 300 679 q 251 329 251 447 q 375 132 251 132 q 452 150 417 132 q 538 206 488 168 l 610 93 q 339 -22 486 -22 q 129 71 207 -22 q 51 340 51 164 q 100 652 51 504 q 243 892 149 800 q 467 983 338 983 q 571 960 524 983 l 575 990 q 642 1123 589 1072 q 789 1174 696 1174 z "},"Ȼ":{"ha":663,"x_min":51,"x_max":722,"o":"m 619 775 q 565 817 592 803 l 322 144 q 375 132 346 132 q 452 150 417 132 q 538 206 488 168 l 610 93 q 339 -22 486 -22 q 265 -14 299 -22 l 233 -101 l 167 -82 l 200 11 q 90 134 129 51 q 51 340 51 217 q 100 653 51 507 q 249 892 149 800 q 493 983 349 983 q 550 979 522 983 l 574 1046 l 640 1026 l 617 960 q 722 878 671 936 l 619 775 m 497 835 l 490 835 q 353 757 407 835 q 276 563 300 679 q 251 329 251 447 q 271 206 251 253 l 497 835 z "},"D":{"ha":760,"x_min":22,"x_max":740,"o":"m 390 961 q 646 887 551 961 q 740 626 740 813 q 625 172 740 344 q 264 0 510 0 l 22 0 l 157 961 l 390 961 m 331 817 l 236 144 l 296 144 q 442 218 386 144 q 521 403 497 292 q 544 632 544 514 q 506 775 544 733 q 396 817 468 817 l 331 817 z "},"Ǳ":{"ha":1336,"x_min":22,"x_max":1386,"o":"m 390 961 q 646 887 551 961 q 740 626 740 813 q 625 172 740 344 q 264 0 510 0 l 22 0 l 157 961 l 390 961 m 331 817 l 236 144 l 296 144 q 442 218 386 144 q 521 403 497 292 q 544 632 544 514 q 506 775 544 733 q 396 817 468 817 l 331 817 m 692 0 l 713 149 l 1153 807 l 835 807 l 860 961 l 1386 961 l 1363 811 l 922 158 l 1285 160 l 1239 0 l 692 0 z "},"Ǆ":{"ha":1336,"x_min":22,"x_max":1386,"o":"m 390 961 q 646 887 551 961 q 740 626 740 813 q 625 172 740 344 q 264 0 510 0 l 22 0 l 157 961 l 390 961 m 331 817 l 236 144 l 296 144 q 442 218 386 144 q 521 403 497 292 q 544 632 544 514 q 506 775 544 733 q 396 817 468 817 l 331 817 m 692 0 l 713 149 l 1153 807 l 835 807 l 860 961 l 1386 961 l 1363 811 l 922 158 l 1285 160 l 1239 0 l 692 0 m 1306 1293 l 1375 1217 l 1188 1043 l 1075 1043 l 932 1226 l 1007 1293 l 1143 1176 l 1306 1293 z "},"Ɖ":{"ha":771,"x_min":22,"x_max":750,"o":"m 400 961 q 656 887 561 961 q 750 626 750 813 q 635 172 750 344 q 274 0 519 0 l 32 0 l 92 429 l 22 429 l 42 551 l 110 551 l 167 961 l 400 961 m 306 144 q 451 218 396 144 q 531 403 507 292 q 554 632 554 514 q 516 775 554 733 q 406 817 478 817 l 340 817 l 303 551 l 450 551 l 432 429 l 286 429 l 246 144 l 306 144 z "},"Ð":{"ha":771,"x_min":22,"x_max":750,"o":"m 400 961 q 656 887 561 961 q 750 626 750 813 q 635 172 750 344 q 274 0 519 0 l 32 0 l 92 429 l 22 429 l 42 551 l 110 551 l 167 961 l 400 961 m 306 144 q 451 218 396 144 q 531 403 507 292 q 554 632 554 514 q 516 775 554 733 q 406 817 478 817 l 340 817 l 303 551 l 450 551 l 432 429 l 286 429 l 246 144 l 306 144 z "},"Ď":{"ha":760,"x_min":22,"x_max":740,"o":"m 390 961 q 646 887 551 961 q 740 626 740 813 q 625 172 740 344 q 264 0 510 0 l 22 0 l 157 961 l 390 961 m 331 817 l 236 144 l 296 144 q 442 218 386 144 q 521 403 497 292 q 544 632 544 514 q 506 775 544 733 q 396 817 468 817 l 331 817 m 624 1293 l 693 1217 l 506 1043 l 393 1043 l 250 1226 l 325 1293 l 461 1176 l 624 1293 z "},"Ḓ":{"ha":760,"x_min":22,"x_max":740,"o":"m 390 961 q 646 887 551 961 q 740 626 740 813 q 625 172 740 344 q 264 0 510 0 l 22 0 l 157 961 l 390 961 m 331 817 l 236 144 l 296 144 q 442 218 386 144 q 521 403 497 292 q 544 632 544 514 q 506 775 544 733 q 396 817 468 817 l 331 817 m 103 -346 l 38 -269 l 225 -90 l 338 -90 l 479 -279 l 400 -346 l 269 -224 l 103 -346 z "},"Đ":{"ha":771,"x_min":22,"x_max":750,"o":"m 400 961 q 656 887 561 961 q 750 626 750 813 q 635 172 750 344 q 274 0 519 0 l 32 0 l 92 429 l 22 429 l 42 551 l 110 551 l 167 961 l 400 961 m 306 144 q 451 218 396 144 q 531 403 507 292 q 554 632 554 514 q 516 775 554 733 q 406 817 478 817 l 340 817 l 303 551 l 450 551 l 432 429 l 286 429 l 246 144 l 306 144 z "},"Ḋ":{"ha":760,"x_min":22,"x_max":740,"o":"m 390 961 q 646 887 551 961 q 740 626 740 813 q 625 172 740 344 q 264 0 510 0 l 22 0 l 157 961 l 390 961 m 331 817 l 236 144 l 296 144 q 442 218 386 144 q 521 403 497 292 q 544 632 544 514 q 506 775 544 733 q 396 817 468 817 l 331 817 m 457 1063 q 384 1089 410 1063 q 358 1160 358 1115 q 394 1251 358 1215 q 481 1286 429 1286 q 554 1260 528 1286 q 581 1189 581 1233 q 544 1098 581 1133 q 457 1063 508 1063 z "},"Ḍ":{"ha":760,"x_min":22,"x_max":740,"o":"m 390 961 q 646 887 551 961 q 740 626 740 813 q 625 172 740 344 q 264 0 510 0 l 22 0 l 157 961 l 390 961 m 331 817 l 236 144 l 296 144 q 442 218 386 144 q 521 403 497 292 q 544 632 544 514 q 506 775 544 733 q 396 817 468 817 l 331 817 m 278 -90 q 351 -117 325 -90 q 376 -187 376 -143 q 341 -278 376 -243 q 254 -314 306 -314 q 181 -287 207 -314 q 154 -217 154 -261 q 190 -126 154 -161 q 278 -90 226 -90 z "},"Ɗ":{"ha":928,"x_min":63,"x_max":908,"o":"m 558 961 q 814 887 719 961 q 908 626 908 813 q 793 172 908 344 q 432 0 678 0 l 190 0 l 306 818 l 274 818 q 226 797 243 818 q 210 736 210 776 q 222 654 210 699 l 92 607 q 63 742 63 676 q 123 901 63 842 q 285 961 183 961 l 558 961 m 464 144 q 610 218 554 144 q 689 403 665 292 q 713 632 713 514 q 674 775 713 733 q 564 817 636 817 l 499 817 l 404 144 l 464 144 z "},"Ḏ":{"ha":760,"x_min":22,"x_max":740,"o":"m 390 961 q 646 887 551 961 q 740 626 740 813 q 625 172 740 344 q 264 0 510 0 l 22 0 l 157 961 l 390 961 m 331 817 l 236 144 l 296 144 q 442 218 386 144 q 521 403 497 292 q 544 632 544 514 q 506 775 544 733 q 396 817 468 817 l 331 817 m 115 -122 l 460 -122 l 440 -256 l 94 -256 l 115 -122 z "},"Ƌ":{"ha":681,"x_min":8,"x_max":689,"o":"m 554 0 l 311 0 q 86 69 164 0 q 8 269 8 138 q 106 522 8 432 q 365 613 203 613 l 447 613 l 475 810 l 179 810 l 200 961 l 689 961 l 554 0 m 381 146 l 426 472 l 363 472 q 250 422 288 472 q 213 276 213 371 q 242 178 213 210 q 336 146 271 146 l 381 146 z "},"ǲ":{"ha":1268,"x_min":22,"x_max":1292,"o":"m 390 961 q 646 887 551 961 q 740 626 740 813 q 625 172 740 344 q 264 0 510 0 l 22 0 l 157 961 l 390 961 m 331 817 l 236 144 l 296 144 q 442 218 386 144 q 521 403 497 292 q 544 632 544 514 q 506 775 544 733 q 396 817 468 817 l 331 817 m 1292 736 l 1272 600 l 947 147 l 1218 147 l 1179 0 l 708 0 l 729 136 l 1054 590 l 813 590 l 836 736 l 1292 736 z "},"ǅ":{"ha":1268,"x_min":22,"x_max":1322,"o":"m 390 961 q 646 887 551 961 q 740 626 740 813 q 625 172 740 344 q 264 0 510 0 l 22 0 l 157 961 l 390 961 m 331 817 l 236 144 l 296 144 q 442 218 386 144 q 521 403 497 292 q 544 632 544 514 q 506 775 544 733 q 396 817 468 817 l 331 817 m 1292 736 l 1272 600 l 947 147 l 1218 147 l 1179 0 l 708 0 l 729 136 l 1054 590 l 813 590 l 836 736 l 1292 736 m 1258 1111 l 1322 1036 l 1136 857 l 1022 857 l 886 1036 l 958 1111 l 1090 989 l 1258 1111 z "},"E":{"ha":593,"x_min":22,"x_max":640,"o":"m 640 961 l 597 818 l 331 818 l 294 560 l 531 560 l 510 418 l 275 418 l 236 144 l 526 144 l 506 0 l 22 0 l 157 961 l 640 961 z "},"É":{"ha":593,"x_min":22,"x_max":640,"o":"m 640 961 l 597 818 l 331 818 l 294 560 l 531 560 l 510 418 l 275 418 l 236 144 l 526 144 l 506 0 l 22 0 l 157 961 l 640 961 m 533 1292 l 600 1154 l 314 1040 l 269 1131 l 533 1292 z "},"Ĕ":{"ha":593,"x_min":22,"x_max":640,"o":"m 640 961 l 597 818 l 331 818 l 294 560 l 531 560 l 510 418 l 275 418 l 236 144 l 526 144 l 506 0 l 22 0 l 157 961 l 640 961 m 411 1046 q 284 1099 328 1046 q 240 1233 240 1153 l 242 1256 l 342 1272 q 421 1181 349 1181 q 487 1206 460 1181 q 529 1276 514 1232 l 631 1250 q 556 1102 611 1158 q 411 1046 500 1046 z "},"Ě":{"ha":593,"x_min":22,"x_max":656,"o":"m 640 961 l 597 818 l 331 818 l 294 560 l 531 560 l 510 418 l 275 418 l 236 144 l 526 144 l 506 0 l 22 0 l 157 961 l 640 961 m 586 1293 l 656 1217 l 468 1043 l 356 1043 l 213 1226 l 288 1293 l 424 1176 l 586 1293 z "},"Ȩ":{"ha":593,"x_min":22,"x_max":640,"o":"m 331 818 l 294 560 l 531 560 l 510 418 l 275 418 l 236 144 l 526 144 l 506 0 l 315 0 l 304 -76 q 380 -111 354 -82 q 406 -187 406 -140 q 359 -303 406 -253 q 215 -354 313 -354 q 144 -342 176 -354 q 90 -312 113 -331 l 146 -229 q 213 -247 178 -247 q 256 -234 240 -247 q 272 -196 272 -221 q 251 -160 272 -171 q 175 -150 229 -150 l 211 0 l 22 0 l 157 961 l 640 961 l 597 818 l 331 818 z "},"Ê":{"ha":593,"x_min":22,"x_max":640,"o":"m 640 961 l 597 818 l 331 818 l 294 560 l 531 560 l 510 418 l 275 418 l 236 144 l 526 144 l 506 0 l 22 0 l 157 961 l 640 961 m 263 1053 l 193 1129 l 381 1303 l 493 1303 l 635 1119 l 561 1053 l 424 1168 l 263 1053 z "},"Ế":{"ha":593,"x_min":22,"x_max":818,"o":"m 726 1486 l 818 1390 l 606 1193 l 542 1253 l 726 1486 m 257 1003 l 188 1079 l 375 1253 l 488 1253 l 629 1069 l 556 1003 l 418 1118 l 257 1003 m 640 961 l 597 818 l 331 818 l 294 560 l 531 560 l 510 418 l 275 418 l 236 144 l 526 144 l 506 0 l 22 0 l 157 961 l 640 961 z "},"Ệ":{"ha":593,"x_min":22,"x_max":640,"o":"m 640 961 l 597 818 l 331 818 l 294 560 l 531 560 l 510 418 l 275 418 l 236 144 l 526 144 l 506 0 l 22 0 l 157 961 l 640 961 m 263 1053 l 193 1129 l 381 1303 l 493 1303 l 635 1119 l 561 1053 l 424 1168 l 263 1053 m 247 -90 q 320 -117 294 -90 q 346 -187 346 -143 q 310 -278 346 -243 q 224 -314 275 -314 q 150 -287 176 -314 q 124 -217 124 -261 q 160 -126 124 -161 q 247 -90 196 -90 z "},"Ề":{"ha":593,"x_min":22,"x_max":640,"o":"m 201 1482 l 321 1247 l 242 1193 l 85 1397 l 201 1482 m 257 1003 l 188 1079 l 375 1253 l 488 1253 l 629 1069 l 556 1003 l 418 1118 l 257 1003 m 640 961 l 597 818 l 331 818 l 294 560 l 531 560 l 510 418 l 275 418 l 236 144 l 526 144 l 506 0 l 22 0 l 157 961 l 640 961 z "},"Ể":{"ha":593,"x_min":22,"x_max":796,"o":"m 640 961 l 597 818 l 331 818 l 294 560 l 531 560 l 510 418 l 275 418 l 236 144 l 526 144 l 506 0 l 22 0 l 157 961 l 640 961 m 256 1003 l 186 1079 l 374 1253 l 486 1253 l 628 1069 l 554 1003 l 417 1118 l 256 1003 m 581 1293 q 647 1312 625 1297 q 668 1358 668 1326 q 631 1394 668 1394 q 564 1376 603 1394 l 542 1463 q 663 1494 594 1494 q 760 1460 725 1494 q 796 1371 796 1426 q 682 1233 796 1258 l 674 1172 l 565 1172 l 581 1293 z "},"Ễ":{"ha":593,"x_min":22,"x_max":676,"o":"m 517 1293 q 478 1301 496 1293 q 438 1326 461 1310 q 410 1345 421 1339 q 388 1351 399 1351 q 355 1338 369 1351 q 322 1293 340 1324 l 239 1342 q 312 1444 271 1404 q 397 1483 353 1483 q 442 1474 424 1483 q 482 1447 461 1464 q 506 1428 496 1435 q 529 1422 517 1422 q 560 1435 546 1422 q 593 1478 575 1449 l 676 1432 q 603 1330 644 1367 q 517 1293 561 1293 m 260 1003 l 190 1079 l 378 1253 l 490 1253 l 632 1069 l 558 1003 l 421 1118 l 260 1003 m 640 961 l 597 818 l 331 818 l 294 560 l 531 560 l 510 418 l 275 418 l 236 144 l 526 144 l 506 0 l 22 0 l 157 961 l 640 961 z "},"Ȅ":{"ha":593,"x_min":22,"x_max":640,"o":"m 640 961 l 597 818 l 331 818 l 294 560 l 531 560 l 510 418 l 275 418 l 236 144 l 526 144 l 506 0 l 22 0 l 157 961 l 640 961 m 301 1357 l 379 1089 l 272 1047 l 160 1299 l 301 1357 m 500 1356 l 568 1092 l 463 1054 l 358 1301 l 500 1356 z "},"Ë":{"ha":593,"x_min":22,"x_max":657,"o":"m 640 961 l 597 818 l 331 818 l 294 560 l 531 560 l 510 418 l 275 418 l 236 144 l 526 144 l 506 0 l 22 0 l 157 961 l 640 961 m 283 1072 q 220 1096 243 1072 q 197 1157 197 1119 q 229 1238 197 1206 q 304 1269 261 1269 q 368 1246 344 1269 q 392 1183 392 1222 q 360 1104 392 1136 q 283 1072 329 1072 m 550 1072 q 487 1096 510 1072 q 464 1157 464 1119 q 495 1238 464 1206 q 571 1269 526 1269 q 633 1246 610 1269 q 657 1183 657 1222 q 626 1104 657 1136 q 550 1072 594 1072 z "},"Ė":{"ha":593,"x_min":22,"x_max":640,"o":"m 640 961 l 597 818 l 331 818 l 294 560 l 531 560 l 510 418 l 275 418 l 236 144 l 526 144 l 506 0 l 22 0 l 157 961 l 640 961 m 419 1063 q 347 1089 372 1063 q 321 1160 321 1115 q 356 1251 321 1215 q 443 1286 392 1286 q 517 1260 490 1286 q 543 1189 543 1233 q 507 1098 543 1133 q 419 1063 471 1063 z "},"Ẹ":{"ha":593,"x_min":22,"x_max":640,"o":"m 640 961 l 597 818 l 331 818 l 294 560 l 531 560 l 510 418 l 275 418 l 236 144 l 526 144 l 506 0 l 22 0 l 157 961 l 640 961 m 247 -90 q 320 -117 294 -90 q 346 -187 346 -143 q 310 -278 346 -243 q 224 -314 275 -314 q 150 -287 176 -314 q 124 -217 124 -261 q 160 -126 124 -161 q 247 -90 196 -90 z "},"È":{"ha":593,"x_min":22,"x_max":640,"o":"m 640 961 l 597 818 l 331 818 l 294 560 l 531 560 l 510 418 l 275 418 l 236 144 l 526 144 l 506 0 l 22 0 l 157 961 l 640 961 m 365 1289 l 594 1128 l 538 1042 l 283 1154 l 365 1289 z "},"Ẻ":{"ha":593,"x_min":22,"x_max":640,"o":"m 640 961 l 597 818 l 331 818 l 294 560 l 531 560 l 510 418 l 275 418 l 236 144 l 526 144 l 506 0 l 22 0 l 157 961 l 640 961 m 375 1182 q 441 1201 419 1186 q 463 1247 463 1215 q 425 1283 463 1283 q 358 1265 397 1283 l 336 1351 q 457 1383 389 1383 q 555 1349 519 1383 q 590 1260 590 1315 q 476 1122 590 1147 l 468 1061 l 360 1061 l 375 1182 z "},"Ȇ":{"ha":593,"x_min":22,"x_max":640,"o":"m 640 961 l 597 818 l 331 818 l 294 560 l 531 560 l 510 418 l 275 418 l 236 144 l 526 144 l 506 0 l 22 0 l 157 961 l 640 961 m 219 1089 q 301 1247 243 1188 q 446 1307 360 1307 q 578 1245 535 1307 q 615 1083 621 1183 l 511 1069 q 432 1174 504 1174 q 319 1064 356 1174 l 219 1089 z "},"Ē":{"ha":593,"x_min":22,"x_max":640,"o":"m 640 961 l 597 818 l 331 818 l 294 560 l 531 560 l 510 418 l 275 418 l 236 144 l 526 144 l 506 0 l 22 0 l 157 961 l 640 961 m 588 1090 l 243 1090 l 263 1224 l 608 1224 l 588 1090 z "},"Ę":{"ha":593,"x_min":22,"x_max":640,"o":"m 331 818 l 294 560 l 531 560 l 510 418 l 275 418 l 236 144 l 526 144 l 506 0 l 461 0 q 307 -164 307 -72 q 360 -212 307 -212 q 426 -206 388 -212 l 399 -324 q 319 -333 357 -333 q 212 -294 253 -333 q 171 -189 171 -256 q 294 0 171 -75 l 22 0 l 157 961 l 640 961 l 597 818 l 331 818 z "},"Ɛ":{"ha":615,"x_min":13,"x_max":676,"o":"m 425 982 q 571 951 511 982 q 676 856 631 919 l 571 760 q 433 836 506 836 q 342 792 375 836 q 308 682 308 749 q 335 606 308 632 q 413 579 363 579 l 485 579 l 442 435 l 389 435 q 260 386 306 435 q 214 247 214 338 q 317 128 214 128 q 402 149 361 128 q 489 211 443 169 l 578 110 q 286 -21 460 -21 q 87 47 161 -21 q 13 228 13 114 q 81 426 13 353 q 271 513 150 500 q 114 693 114 546 q 158 842 114 776 q 273 945 201 908 q 425 982 344 982 z "},"Ǝ":{"ha":588,"x_min":-21,"x_max":597,"o":"m 117 961 l 597 961 l 463 0 l -21 0 l 0 144 l 289 144 l 328 418 l 89 418 l 110 560 l 347 560 l 383 818 l 97 818 l 117 961 z "},"Ʃ":{"ha":582,"x_min":-19,"x_max":632,"o":"m 632 961 l 613 815 l 290 815 l 444 511 l 433 424 l 211 149 l 522 149 l 500 0 l -19 0 l 1 146 l 269 482 l 92 815 l 113 961 l 632 961 z "},"Ɇ":{"ha":593,"x_min":22,"x_max":640,"o":"m 597 818 l 554 818 l 461 560 l 531 560 l 510 418 l 410 418 l 311 144 l 526 144 l 506 0 l 258 0 l 222 -101 l 157 -82 l 186 0 l 22 0 l 157 961 l 532 961 l 563 1046 l 629 1026 l 606 961 l 640 961 l 597 818 m 388 560 l 481 818 l 331 818 l 294 560 l 388 560 m 239 144 l 336 418 l 275 418 l 236 144 l 239 144 z "},"Ẽ":{"ha":593,"x_min":22,"x_max":650,"o":"m 640 961 l 597 818 l 331 818 l 294 560 l 531 560 l 510 418 l 275 418 l 236 144 l 526 144 l 506 0 l 22 0 l 157 961 l 640 961 m 489 1067 q 449 1076 467 1067 q 408 1103 432 1085 q 383 1121 396 1113 q 358 1129 369 1129 q 326 1115 340 1129 q 292 1068 311 1100 l 208 1118 q 281 1225 239 1183 q 368 1267 324 1267 q 413 1256 394 1267 q 453 1228 432 1246 q 465 1217 456 1225 q 484 1206 475 1210 q 501 1203 493 1203 q 533 1217 518 1203 q 565 1261 547 1231 l 650 1214 q 576 1106 618 1144 q 489 1067 533 1067 z "},"Ʒ":{"ha":618,"x_min":-26,"x_max":636,"o":"m 614 819 l 372 556 q 533 490 478 549 q 588 331 588 432 q 540 145 588 225 q 413 22 493 65 q 236 -21 332 -21 q 77 14 139 -21 q -26 118 15 49 l 88 210 q 155 146 122 165 q 235 126 188 126 q 344 180 301 126 q 388 321 388 233 q 358 410 388 383 q 269 436 328 436 l 156 436 l 172 553 l 406 815 l 114 815 l 136 961 l 636 961 l 614 819 z "},"Ǯ":{"ha":618,"x_min":-26,"x_max":642,"o":"m 614 819 l 372 556 q 533 490 478 549 q 588 331 588 432 q 540 145 588 225 q 413 22 493 65 q 236 -21 332 -21 q 77 14 139 -21 q -26 118 15 49 l 88 210 q 155 146 122 165 q 235 126 188 126 q 344 180 301 126 q 388 321 388 233 q 358 410 388 383 q 269 436 328 436 l 156 436 l 172 553 l 406 815 l 114 815 l 136 961 l 636 961 l 614 819 m 572 1293 l 642 1217 l 454 1043 l 342 1043 l 199 1226 l 274 1293 l 410 1176 l 572 1293 z "},"Ƹ":{"ha":621,"x_min":8,"x_max":647,"o":"m 624 815 l 317 815 l 496 551 l 478 438 l 479 436 l 374 436 q 251 386 293 436 q 210 247 210 336 q 235 158 210 189 q 310 126 260 126 q 399 148 357 126 q 486 214 440 169 l 576 114 q 449 13 518 47 q 286 -21 379 -21 q 82 50 156 -21 q 8 243 8 121 q 47 405 8 335 q 155 515 86 475 q 311 557 224 556 l 126 819 l 149 961 l 647 961 l 624 815 z "},"F":{"ha":550,"x_min":22,"x_max":626,"o":"m 626 961 l 583 818 l 331 818 l 292 538 l 515 538 l 493 394 l 271 394 l 215 0 l 22 0 l 157 961 l 626 961 z "},"Ḟ":{"ha":550,"x_min":22,"x_max":626,"o":"m 626 961 l 583 818 l 331 818 l 292 538 l 515 538 l 493 394 l 271 394 l 215 0 l 22 0 l 157 961 l 626 961 m 411 1063 q 338 1089 364 1063 q 313 1160 313 1115 q 348 1251 313 1215 q 435 1286 383 1286 q 508 1260 482 1286 q 535 1189 535 1233 q 499 1098 535 1133 q 411 1063 463 1063 z "},"Ƒ":{"ha":550,"x_min":-214,"x_max":626,"o":"m 331 818 l 292 538 l 515 538 l 493 394 l 271 394 l 215 0 l 204 -72 q 118 -244 188 -185 q -53 -304 49 -304 q -147 -288 -108 -304 q -214 -246 -185 -272 l -135 -133 q -99 -152 -114 -146 q -64 -158 -85 -158 q -13 -137 -33 -158 q 13 -78 7 -117 l 22 0 l 157 961 l 626 961 l 583 818 l 331 818 z "},"G":{"ha":744,"x_min":49,"x_max":763,"o":"m 513 983 q 763 867 664 983 l 654 769 q 585 822 618 806 q 508 838 551 838 q 358 757 417 838 q 272 554 299 676 q 246 303 246 432 q 274 169 246 211 q 357 126 303 126 q 474 163 414 126 l 507 404 l 408 404 l 411 546 l 711 546 l 646 76 q 497 4 575 29 q 346 -21 419 -21 q 124 67 199 -21 q 49 329 49 156 q 101 647 49 497 q 260 890 154 797 q 513 983 365 983 z "},"Ǵ":{"ha":744,"x_min":49,"x_max":763,"o":"m 513 983 q 763 867 664 983 l 654 769 q 585 822 618 806 q 508 838 551 838 q 358 757 417 838 q 272 554 299 676 q 246 303 246 432 q 274 169 246 211 q 357 126 303 126 q 474 163 414 126 l 507 404 l 408 404 l 411 546 l 711 546 l 646 76 q 497 4 575 29 q 346 -21 419 -21 q 124 67 199 -21 q 49 329 49 156 q 101 647 49 497 q 260 890 154 797 q 513 983 365 983 m 633 1292 l 700 1154 l 414 1040 l 369 1131 l 633 1292 z "},"Ɣ":{"ha":663,"x_min":76,"x_max":753,"o":"m 393 111 q 429 -6 418 40 q 440 -100 440 -53 q 388 -251 440 -199 q 243 -304 336 -304 q 128 -265 168 -304 q 89 -158 89 -225 q 116 -34 89 -97 q 201 118 143 29 l 76 961 l 274 961 l 319 247 l 554 961 l 753 961 l 393 111 m 299 -104 q 285 13 299 -49 q 231 -140 231 -85 q 257 -175 231 -175 q 299 -104 299 -175 z "},"Ğ":{"ha":744,"x_min":49,"x_max":763,"o":"m 513 983 q 763 867 664 983 l 654 769 q 585 822 618 806 q 508 838 551 838 q 358 757 417 838 q 272 554 299 676 q 246 303 246 432 q 274 169 246 211 q 357 126 303 126 q 474 163 414 126 l 507 404 l 408 404 l 411 546 l 711 546 l 646 76 q 497 4 575 29 q 346 -21 419 -21 q 124 67 199 -21 q 49 329 49 156 q 101 647 49 497 q 260 890 154 797 q 513 983 365 983 m 511 1046 q 384 1099 428 1046 q 340 1233 340 1153 l 342 1256 l 442 1272 q 521 1181 449 1181 q 587 1206 560 1181 q 629 1276 614 1232 l 731 1250 q 656 1102 711 1158 q 511 1046 600 1046 z "},"Ǧ":{"ha":744,"x_min":49,"x_max":763,"o":"m 513 983 q 763 867 664 983 l 654 769 q 585 822 618 806 q 508 838 551 838 q 358 757 417 838 q 272 554 299 676 q 246 303 246 432 q 274 169 246 211 q 357 126 303 126 q 474 163 414 126 l 507 404 l 408 404 l 411 546 l 711 546 l 646 76 q 497 4 575 29 q 346 -21 419 -21 q 124 67 199 -21 q 49 329 49 156 q 101 647 49 497 q 260 890 154 797 q 513 983 365 983 m 686 1293 l 756 1217 l 568 1043 l 456 1043 l 313 1226 l 388 1293 l 524 1176 l 686 1293 z "},"Ĝ":{"ha":744,"x_min":49,"x_max":763,"o":"m 513 983 q 763 867 664 983 l 654 769 q 585 822 618 806 q 508 838 551 838 q 358 757 417 838 q 272 554 299 676 q 246 303 246 432 q 274 169 246 211 q 357 126 303 126 q 474 163 414 126 l 507 404 l 408 404 l 411 546 l 711 546 l 646 76 q 497 4 575 29 q 346 -21 419 -21 q 124 67 199 -21 q 49 329 49 156 q 101 647 49 497 q 260 890 154 797 q 513 983 365 983 m 363 1053 l 293 1129 l 481 1303 l 593 1303 l 735 1119 l 661 1053 l 524 1168 l 363 1053 z "},"Ģ":{"ha":744,"x_min":49,"x_max":763,"o":"m 513 983 q 763 867 664 983 l 654 769 q 585 822 618 806 q 508 838 551 838 q 358 757 417 838 q 272 554 299 676 q 246 303 246 432 q 274 169 246 211 q 357 126 303 126 q 474 163 414 126 l 507 404 l 408 404 l 411 546 l 711 546 l 646 76 q 497 4 575 29 q 346 -21 419 -21 q 124 67 199 -21 q 49 329 49 156 q 101 647 49 497 q 260 890 154 797 q 513 983 365 983 m 329 -99 q 392 -123 368 -99 q 415 -183 415 -147 q 405 -239 415 -212 q 367 -314 394 -265 l 296 -437 l 204 -437 l 260 -275 q 226 -208 226 -249 q 256 -129 226 -160 q 329 -99 286 -99 z "},"Ġ":{"ha":744,"x_min":49,"x_max":763,"o":"m 513 983 q 763 867 664 983 l 654 769 q 585 822 618 806 q 508 838 551 838 q 358 757 417 838 q 272 554 299 676 q 246 303 246 432 q 274 169 246 211 q 357 126 303 126 q 474 163 414 126 l 507 404 l 408 404 l 411 546 l 711 546 l 646 76 q 497 4 575 29 q 346 -21 419 -21 q 124 67 199 -21 q 49 329 49 156 q 101 647 49 497 q 260 890 154 797 q 513 983 365 983 m 519 1063 q 447 1089 472 1063 q 421 1160 421 1115 q 456 1251 421 1215 q 543 1286 492 1286 q 617 1260 590 1286 q 643 1189 643 1233 q 607 1098 643 1133 q 519 1063 571 1063 z "},"Ɠ":{"ha":700,"x_min":49,"x_max":982,"o":"m 831 1174 q 982 1121 914 1174 l 913 1008 q 842 1032 878 1032 q 774 944 786 1032 l 763 867 l 665 776 q 590 824 625 810 q 510 838 554 838 q 359 757 418 838 q 273 554 300 676 q 246 303 246 432 q 274 168 246 210 q 358 126 303 126 q 474 163 417 126 l 508 404 l 410 404 l 411 546 l 713 546 l 647 76 q 497 4 575 29 q 346 -21 419 -21 q 124 67 199 -21 q 49 329 49 156 q 101 647 49 497 q 253 890 153 797 q 493 983 354 983 q 613 954 565 983 l 618 990 q 685 1124 632 1074 q 831 1174 739 1174 z "},"Ɂ":{"ha":588,"x_min":79,"x_max":611,"o":"m 185 454 l 247 476 q 369 563 328 506 q 410 713 410 619 q 387 804 410 772 q 318 836 364 836 q 240 816 279 836 q 157 757 201 796 l 79 860 q 207 951 143 921 q 349 982 271 982 q 540 913 469 982 q 611 724 611 843 q 558 520 611 597 q 403 403 506 443 l 368 389 l 314 0 l 121 0 l 185 454 z "},"Ǥ":{"ha":765,"x_min":49,"x_max":763,"o":"m 683 360 l 763 360 l 747 239 l 668 239 l 646 76 q 497 4 575 29 q 346 -21 419 -21 q 124 67 199 -21 q 49 329 49 156 q 101 647 49 497 q 260 890 154 797 q 513 983 365 983 q 763 867 664 983 l 654 769 q 585 822 618 806 q 508 838 551 838 q 358 757 417 838 q 272 554 299 676 q 246 303 246 432 q 274 169 246 211 q 357 126 303 126 q 481 164 421 126 l 490 239 l 388 239 l 403 360 l 507 360 l 517 435 l 411 435 l 410 561 l 711 561 l 683 360 z "},"Ȝ":{"ha":581,"x_min":-15,"x_max":592,"o":"m 353 983 q 527 922 463 983 q 592 761 592 861 q 363 497 592 551 q 543 318 543 481 q 385 17 543 135 q -15 -153 228 -101 l -6 -7 q 179 69 106 29 q 296 168 253 108 q 339 315 339 228 q 310 396 339 371 q 218 421 282 421 l 142 421 l 185 565 l 244 565 q 350 612 311 565 q 389 735 389 658 q 313 838 389 838 q 233 817 274 838 q 144 756 192 797 l 71 860 q 353 983 201 983 z "},"H":{"ha":756,"x_min":22,"x_max":765,"o":"m 215 0 l 22 0 l 157 961 l 351 961 l 296 579 l 518 579 l 571 961 l 765 961 l 631 0 l 436 0 l 496 424 l 275 424 l 215 0 z "},"Ħ":{"ha":767,"x_min":29,"x_max":813,"o":"m 813 814 l 794 699 l 736 699 l 638 0 l 443 0 l 503 424 l 282 424 l 222 0 l 29 0 l 128 699 l 64 699 l 81 814 l 143 814 l 164 961 l 358 961 l 338 814 l 557 814 l 578 961 l 772 961 l 751 814 l 813 814 m 525 579 l 542 699 l 321 699 l 303 579 l 525 579 z "},"Ȟ":{"ha":756,"x_min":22,"x_max":765,"o":"m 215 0 l 22 0 l 157 961 l 351 961 l 296 579 l 518 579 l 571 961 l 765 961 l 631 0 l 436 0 l 496 424 l 275 424 l 215 0 m 647 1293 l 717 1217 l 529 1043 l 417 1043 l 274 1226 l 349 1293 l 485 1176 l 647 1293 z "},"Ĥ":{"ha":756,"x_min":22,"x_max":765,"o":"m 215 0 l 22 0 l 157 961 l 351 961 l 296 579 l 518 579 l 571 961 l 765 961 l 631 0 l 436 0 l 496 424 l 275 424 l 215 0 m 324 1053 l 254 1129 l 442 1303 l 554 1303 l 696 1119 l 622 1053 l 485 1168 l 324 1053 z "},"Ḥ":{"ha":756,"x_min":22,"x_max":765,"o":"m 215 0 l 22 0 l 157 961 l 351 961 l 296 579 l 518 579 l 571 961 l 765 961 l 631 0 l 436 0 l 496 424 l 275 424 l 215 0 m 310 -90 q 383 -117 357 -90 q 408 -187 408 -143 q 373 -278 408 -243 q 286 -314 338 -314 q 213 -287 239 -314 q 186 -217 186 -261 q 222 -126 186 -161 q 310 -90 258 -90 z "},"Ɦ":{"ha":924,"x_min":63,"x_max":933,"o":"m 933 961 l 799 0 l 604 0 l 664 424 l 443 424 l 383 0 l 190 0 l 306 818 l 274 818 q 226 797 243 818 q 210 736 210 776 q 222 654 210 699 l 92 607 q 63 742 63 676 q 123 901 63 842 q 285 961 183 961 l 519 961 l 464 579 l 686 579 l 739 961 l 933 961 z "},"Ɥ":{"ha":710,"x_min":56,"x_max":718,"o":"m 718 961 l 583 0 l 390 0 l 440 360 q 354 306 397 324 q 260 289 311 289 q 109 352 163 289 q 56 517 56 415 q 60 574 56 544 l 114 961 l 303 961 l 250 569 q 247 533 247 544 q 332 438 247 438 q 461 501 403 438 l 525 961 l 718 961 z "},"Ƕ":{"ha":1079,"x_min":22,"x_max":1043,"o":"m 690 -21 q 523 40 581 -21 q 465 186 465 100 q 468 218 465 196 l 496 424 l 275 424 l 215 0 l 22 0 l 157 961 l 351 961 l 296 579 l 518 579 l 571 961 l 765 961 l 661 211 q 658 182 658 192 q 710 121 658 121 q 831 272 797 121 q 864 603 864 424 q 860 736 864 681 l 1036 736 q 1043 603 1043 663 q 967 146 1043 313 q 690 -21 890 -21 z "},"I":{"ha":342,"x_min":22,"x_max":351,"o":"m 351 961 l 215 0 l 22 0 l 157 961 l 351 961 z "},"Ĳ":{"ha":711,"x_min":22,"x_max":725,"o":"m 351 961 l 215 0 l 22 0 l 157 961 l 351 961 m 608 133 q 550 -47 593 22 q 447 -153 507 -115 q 301 -221 388 -190 l 267 -86 q 373 1 343 -47 q 417 149 403 50 l 531 961 l 725 961 l 608 133 z "},"Í":{"ha":342,"x_min":22,"x_max":454,"o":"m 351 961 l 215 0 l 22 0 l 157 961 l 351 961 m 388 1292 l 454 1154 l 168 1040 l 124 1131 l 388 1292 z "},"Ĭ":{"ha":342,"x_min":22,"x_max":485,"o":"m 351 961 l 215 0 l 22 0 l 157 961 l 351 961 m 265 1046 q 138 1099 182 1046 q 94 1233 94 1153 l 96 1256 l 196 1272 q 275 1181 203 1181 q 341 1206 314 1181 q 383 1276 368 1232 l 485 1250 q 410 1102 465 1158 q 265 1046 354 1046 z "},"Ǐ":{"ha":342,"x_min":22,"x_max":510,"o":"m 351 961 l 215 0 l 22 0 l 157 961 l 351 961 m 440 1293 l 510 1217 l 322 1043 l 210 1043 l 67 1226 l 142 1293 l 278 1176 l 440 1293 z "},"Î":{"ha":342,"x_min":22,"x_max":489,"o":"m 351 961 l 215 0 l 22 0 l 157 961 l 351 961 m 117 1053 l 47 1129 l 235 1303 l 347 1303 l 489 1119 l 415 1053 l 278 1168 l 117 1053 z "},"Ȉ":{"ha":342,"x_min":14,"x_max":422,"o":"m 351 961 l 215 0 l 22 0 l 157 961 l 351 961 m 156 1357 l 233 1089 l 126 1047 l 14 1299 l 156 1357 m 354 1356 l 422 1092 l 317 1054 l 213 1301 l 354 1356 z "},"Ï":{"ha":342,"x_min":22,"x_max":511,"o":"m 351 961 l 215 0 l 22 0 l 157 961 l 351 961 m 138 1072 q 74 1096 97 1072 q 51 1157 51 1119 q 83 1238 51 1206 q 158 1269 115 1269 q 222 1246 199 1269 q 246 1183 246 1222 q 215 1104 246 1136 q 138 1072 183 1072 m 404 1072 q 341 1096 364 1072 q 318 1157 318 1119 q 349 1238 318 1206 q 425 1269 381 1269 q 488 1246 464 1269 q 511 1183 511 1222 q 480 1104 511 1136 q 404 1072 449 1072 z "},"Ḯ":{"ha":342,"x_min":22,"x_max":514,"o":"m 351 961 l 215 0 l 22 0 l 157 961 l 351 961 m 407 1486 l 499 1390 l 286 1193 l 222 1253 l 407 1486 m 128 1039 q 65 1063 89 1039 q 42 1125 42 1088 q 74 1204 42 1172 q 150 1236 106 1236 q 213 1213 190 1236 q 236 1151 236 1189 q 204 1071 236 1103 q 128 1039 172 1039 m 406 1039 q 343 1063 367 1039 q 319 1125 319 1088 q 352 1204 319 1172 q 428 1236 385 1236 q 491 1213 468 1236 q 514 1151 514 1189 q 483 1071 514 1103 q 406 1039 451 1039 z "},"İ":{"ha":342,"x_min":22,"x_max":397,"o":"m 351 961 l 215 0 l 22 0 l 157 961 l 351 961 m 274 1063 q 201 1089 226 1063 q 175 1160 175 1115 q 210 1251 175 1215 q 297 1286 246 1286 q 371 1260 344 1286 q 397 1189 397 1233 q 361 1098 397 1133 q 274 1063 325 1063 z "},"Ị":{"ha":342,"x_min":-22,"x_max":351,"o":"m 351 961 l 215 0 l 22 0 l 157 961 l 351 961 m 101 -90 q 174 -117 149 -90 q 200 -187 200 -143 q 165 -278 200 -243 q 78 -314 129 -314 q 4 -287 31 -314 q -22 -217 -22 -261 q 14 -126 -22 -161 q 101 -90 50 -90 z "},"Ì":{"ha":342,"x_min":22,"x_max":449,"o":"m 351 961 l 215 0 l 22 0 l 157 961 l 351 961 m 219 1289 l 449 1128 l 392 1042 l 138 1154 l 219 1289 z "},"Ỉ":{"ha":342,"x_min":22,"x_max":444,"o":"m 351 961 l 215 0 l 22 0 l 157 961 l 351 961 m 229 1182 q 295 1201 274 1186 q 317 1247 317 1215 q 279 1283 317 1283 q 213 1265 251 1283 l 190 1351 q 311 1383 243 1383 q 409 1349 374 1383 q 444 1260 444 1315 q 331 1122 444 1147 l 322 1061 l 214 1061 l 229 1182 z "},"Ȋ":{"ha":342,"x_min":22,"x_max":469,"o":"m 351 961 l 215 0 l 22 0 l 157 961 l 351 961 m 74 1089 q 156 1247 97 1188 q 300 1307 214 1307 q 432 1245 389 1307 q 469 1083 475 1183 l 365 1069 q 286 1174 358 1174 q 174 1064 210 1174 l 74 1089 z "},"Ī":{"ha":342,"x_min":22,"x_max":463,"o":"m 351 961 l 215 0 l 22 0 l 157 961 l 351 961 m 442 1090 l 97 1090 l 117 1224 l 463 1224 l 442 1090 z "},"Į":{"ha":342,"x_min":-121,"x_max":351,"o":"m 351 961 l 215 0 l 169 0 q 15 -164 15 -72 q 68 -212 15 -212 q 135 -206 96 -212 l 107 -324 q 28 -333 65 -333 q -80 -294 -39 -333 q -121 -189 -121 -256 q -86 -78 -121 -128 q 24 13 -51 -28 l 157 961 l 351 961 z "},"Ɩ":{"ha":443,"x_min":38,"x_max":407,"o":"m 407 33 q 239 -22 331 -22 q 90 27 143 -22 q 38 171 38 76 q 40 215 38 185 l 49 282 l 144 961 l 338 961 l 242 282 l 232 197 q 231 179 231 190 q 278 124 231 124 q 316 129 300 124 q 358 149 332 135 l 407 33 z "},"Ɨ":{"ha":378,"x_min":17,"x_max":399,"o":"m 399 572 l 379 426 l 296 426 l 236 0 l 43 0 l 103 426 l 17 426 l 36 572 l 124 572 l 178 961 l 372 961 l 317 572 l 399 572 z "},"Ĩ":{"ha":342,"x_min":22,"x_max":504,"o":"m 351 961 l 215 0 l 22 0 l 157 961 l 351 961 m 343 1067 q 303 1076 321 1067 q 263 1103 286 1085 q 237 1121 250 1113 q 213 1129 224 1129 q 180 1115 194 1129 q 146 1068 165 1100 l 63 1118 q 135 1225 93 1183 q 222 1267 178 1267 q 267 1256 249 1267 q 307 1228 286 1246 q 319 1217 310 1225 q 338 1206 329 1210 q 356 1203 347 1203 q 387 1217 372 1203 q 419 1261 401 1231 l 504 1214 q 430 1106 472 1144 q 343 1067 388 1067 z "},"J":{"ha":369,"x_min":-75,"x_max":383,"o":"m 267 133 q 208 -47 251 22 q 106 -153 165 -115 q -40 -221 46 -190 l -75 -86 q 31 1 1 -47 q 75 149 61 50 l 189 961 l 383 961 l 267 133 z "},"Ĵ":{"ha":369,"x_min":-75,"x_max":521,"o":"m 267 133 q 208 -47 251 22 q 106 -153 165 -115 q -40 -221 46 -190 l -75 -86 q 31 1 1 -47 q 75 149 61 50 l 189 961 l 383 961 l 267 133 m 149 1053 l 79 1129 l 267 1303 l 379 1303 l 521 1119 l 447 1053 l 310 1168 l 149 1053 z "},"Ʝ":{"ha":426,"x_min":-156,"x_max":438,"o":"m 303 -14 q 404 -67 350 -32 l 356 -147 q 283 -111 329 -131 q 189 -256 253 -207 q 18 -304 125 -304 q -110 -265 -64 -304 q -156 -156 -156 -225 q -99 -22 -156 -71 q 43 26 -43 26 q 113 21 90 26 l 244 961 l 438 961 l 303 -14 m 10 -199 q 69 -168 49 -199 q 99 -76 90 -137 q 42 -71 78 -71 q -15 -92 4 -71 q -35 -147 -35 -112 q 10 -199 -35 -199 z "},"Ɉ":{"ha":388,"x_min":-75,"x_max":406,"o":"m 386 400 l 304 400 l 267 133 q 208 -47 251 22 q 106 -153 165 -115 q -40 -221 46 -190 l -75 -86 q 31 1 1 -47 q 75 149 61 50 l 110 400 l 24 400 l 43 550 l 132 550 l 189 961 l 383 961 l 325 550 l 406 550 l 386 400 z "},"K":{"ha":733,"x_min":22,"x_max":799,"o":"m 22 0 l 157 961 l 351 961 l 215 0 l 22 0 m 474 0 l 294 513 l 601 961 l 799 961 l 492 514 l 685 0 l 474 0 z "},"Ǩ":{"ha":733,"x_min":22,"x_max":799,"o":"m 22 0 l 157 961 l 351 961 l 215 0 l 22 0 m 474 0 l 294 513 l 601 961 l 799 961 l 492 514 l 685 0 l 474 0 m 643 1293 l 713 1217 l 525 1043 l 413 1043 l 269 1226 l 344 1293 l 481 1176 l 643 1293 z "},"Ķ":{"ha":733,"x_min":22,"x_max":799,"o":"m 22 0 l 157 961 l 351 961 l 215 0 l 22 0 m 474 0 l 294 513 l 601 961 l 799 961 l 492 514 l 685 0 l 474 0 m 308 -99 q 371 -123 347 -99 q 394 -183 394 -147 q 384 -239 394 -212 q 346 -314 374 -265 l 275 -437 l 183 -437 l 239 -275 q 206 -208 206 -249 q 235 -129 206 -160 q 308 -99 265 -99 z "},"Ƙ":{"ha":757,"x_min":22,"x_max":839,"o":"m 294 513 l 507 850 q 596 951 550 921 q 708 982 642 982 q 783 968 753 982 q 839 931 814 954 l 768 824 q 725 839 746 839 q 690 827 706 839 q 657 788 675 815 l 493 515 l 685 0 l 474 0 l 294 513 m 22 0 l 157 961 l 351 961 l 215 0 l 22 0 z "},"L":{"ha":574,"x_min":22,"x_max":542,"o":"m 351 961 l 238 158 l 542 158 l 497 0 l 22 0 l 157 961 l 351 961 z "},"Ǉ":{"ha":913,"x_min":22,"x_max":926,"o":"m 351 961 l 238 158 l 542 158 l 497 0 l 22 0 l 157 961 l 351 961 m 810 133 q 751 -47 794 22 q 649 -153 708 -115 q 503 -221 589 -190 l 468 -86 q 574 1 544 -47 q 618 149 604 50 l 732 961 l 926 961 l 810 133 z "},"Ĺ":{"ha":574,"x_min":22,"x_max":542,"o":"m 351 961 l 238 158 l 542 158 l 497 0 l 22 0 l 157 961 l 351 961 m 388 1292 l 454 1154 l 168 1040 l 124 1131 l 388 1292 z "},"Ƚ":{"ha":589,"x_min":18,"x_max":557,"o":"m 253 158 l 557 158 l 513 0 l 38 0 l 97 429 l 18 429 l 38 579 l 118 579 l 172 961 l 367 961 l 313 579 l 400 579 l 381 429 l 292 429 l 253 158 z "},"Ɬ":{"ha":693,"x_min":22,"x_max":661,"o":"m 661 158 l 617 0 l 142 0 l 192 354 q 65 398 107 357 q 22 510 22 439 q 69 636 22 589 q 190 683 117 683 q 236 678 221 683 l 276 961 l 471 961 l 401 471 q 519 486 444 474 l 525 378 q 385 358 460 363 l 357 158 l 661 158 m 149 519 q 207 468 149 468 l 222 575 q 196 579 210 579 q 161 563 174 579 q 149 519 149 547 z "},"Ľ":{"ha":574,"x_min":22,"x_max":553,"o":"m 351 961 l 238 158 l 542 158 l 497 0 l 22 0 l 157 961 l 351 961 m 417 978 l 553 960 l 458 676 l 364 688 l 417 978 z "},"Ḽ":{"ha":574,"x_min":3,"x_max":542,"o":"m 351 961 l 238 158 l 542 158 l 497 0 l 22 0 l 157 961 l 351 961 m 68 -346 l 3 -269 l 190 -90 l 303 -90 l 444 -279 l 365 -346 l 235 -224 l 68 -346 z "},"Ļ":{"ha":574,"x_min":22,"x_max":542,"o":"m 351 961 l 238 158 l 542 158 l 497 0 l 22 0 l 157 961 l 351 961 m 249 -99 q 311 -123 288 -99 q 335 -183 335 -147 q 324 -239 335 -212 q 286 -314 314 -265 l 215 -437 l 124 -437 l 179 -275 q 146 -208 146 -249 q 176 -129 146 -160 q 249 -99 206 -99 z "},"Ŀ":{"ha":574,"x_min":22,"x_max":590,"o":"m 351 961 l 238 158 l 542 158 l 497 0 l 22 0 l 157 961 l 351 961 m 467 435 q 394 461 419 435 q 368 532 368 488 q 403 623 368 588 q 490 658 439 658 q 564 632 538 658 q 590 561 590 606 q 554 470 590 506 q 467 435 518 435 z "},"Ḷ":{"ha":574,"x_min":22,"x_max":542,"o":"m 351 961 l 238 158 l 542 158 l 497 0 l 22 0 l 157 961 l 351 961 m 243 -90 q 316 -117 290 -90 q 342 -187 342 -143 q 306 -278 342 -243 q 219 -314 271 -314 q 146 -287 172 -314 q 119 -217 119 -261 q 156 -126 119 -161 q 243 -90 192 -90 z "},"ǈ":{"ha":878,"x_min":22,"x_max":915,"o":"m 351 961 l 238 158 l 542 158 l 497 0 l 22 0 l 157 961 l 351 961 m 426 -165 q 504 -120 475 -144 q 553 -53 533 -96 q 582 63 572 -10 l 675 736 l 863 736 l 767 61 q 710 -122 750 -53 q 614 -230 669 -192 q 469 -304 558 -268 l 426 -165 m 792 888 q 719 914 744 888 q 693 985 693 940 q 728 1076 693 1040 q 815 1111 764 1111 q 889 1085 863 1111 q 915 1014 915 1058 q 879 923 915 958 q 792 888 843 888 z "},"Ł":{"ha":619,"x_min":11,"x_max":586,"o":"m 282 158 l 586 158 l 542 0 l 67 0 l 113 325 l 63 290 l 11 388 l 132 467 l 201 961 l 396 961 l 346 607 l 497 707 l 550 610 l 325 464 l 282 158 z "},"M":{"ha":914,"x_min":-4,"x_max":890,"o":"m 814 0 l 628 0 l 667 390 q 721 799 681 538 l 513 104 l 326 104 l 297 799 q 247 388 279 601 l 183 0 l -4 0 l 189 961 l 424 961 l 443 282 l 638 961 l 890 961 l 814 0 z "},"Ḿ":{"ha":914,"x_min":-4,"x_max":890,"o":"m 814 0 l 628 0 l 667 390 q 721 799 681 538 l 513 104 l 326 104 l 297 799 q 247 388 279 601 l 183 0 l -4 0 l 189 961 l 424 961 l 443 282 l 638 961 l 890 961 l 814 0 m 664 1292 l 731 1154 l 444 1040 l 400 1131 l 664 1292 z "},"Ṁ":{"ha":914,"x_min":-4,"x_max":890,"o":"m 814 0 l 628 0 l 667 390 q 721 799 681 538 l 513 104 l 326 104 l 297 799 q 247 388 279 601 l 183 0 l -4 0 l 189 961 l 424 961 l 443 282 l 638 961 l 890 961 l 814 0 m 550 1063 q 477 1089 503 1063 q 451 1160 451 1115 q 487 1251 451 1215 q 574 1286 522 1286 q 647 1260 621 1286 q 674 1189 674 1233 q 638 1098 674 1133 q 550 1063 601 1063 z "},"Ɯ":{"ha":1035,"x_min":36,"x_max":1043,"o":"m 1043 961 l 908 0 l 739 0 l 738 86 q 649 5 693 31 q 553 -21 604 -21 q 457 10 496 -21 q 401 96 418 42 q 201 -21 314 -21 q 79 35 122 -21 q 36 175 36 92 q 39 218 36 190 l 144 961 l 339 961 l 235 219 q 232 193 232 200 q 245 145 232 163 q 282 128 258 128 q 338 151 311 128 q 393 225 364 175 l 497 961 l 690 961 l 589 228 q 586 194 586 203 q 599 145 586 163 q 633 128 611 128 q 690 152 663 128 q 746 228 717 176 l 849 961 l 1043 961 z "},"N":{"ha":753,"x_min":22,"x_max":761,"o":"m 626 0 l 392 0 l 265 796 l 265 735 q 243 375 265 558 l 193 0 l 22 0 l 157 961 l 393 961 l 518 164 l 518 232 q 522 385 518 317 q 536 538 525 454 l 593 961 l 761 961 l 626 0 z "},"Ǌ":{"ha":1122,"x_min":22,"x_max":1136,"o":"m 626 0 l 392 0 l 265 796 l 265 735 q 243 375 265 558 l 193 0 l 22 0 l 157 961 l 393 961 l 518 164 l 518 232 q 522 385 518 317 q 536 538 525 454 l 593 961 l 761 961 l 626 0 m 1019 133 q 961 -47 1004 22 q 858 -153 918 -115 q 713 -221 799 -190 l 678 -86 q 784 1 754 -47 q 828 149 814 50 l 942 961 l 1136 961 l 1019 133 z "},"Ń":{"ha":753,"x_min":22,"x_max":761,"o":"m 626 0 l 392 0 l 265 796 l 265 735 q 243 375 265 558 l 193 0 l 22 0 l 157 961 l 393 961 l 518 164 l 518 232 q 522 385 518 317 q 536 538 525 454 l 593 961 l 761 961 l 626 0 m 597 1292 l 664 1154 l 378 1040 l 333 1131 l 597 1292 z "},"Ň":{"ha":753,"x_min":22,"x_max":761,"o":"m 626 0 l 392 0 l 265 796 l 265 735 q 243 375 265 558 l 193 0 l 22 0 l 157 961 l 393 961 l 518 164 l 518 232 q 522 385 518 317 q 536 538 525 454 l 593 961 l 761 961 l 626 0 m 650 1293 l 719 1217 l 532 1043 l 419 1043 l 276 1226 l 351 1293 l 488 1176 l 650 1293 z "},"Ṋ":{"ha":753,"x_min":22,"x_max":761,"o":"m 626 0 l 392 0 l 265 796 l 265 735 q 243 375 265 558 l 193 0 l 22 0 l 157 961 l 393 961 l 518 164 l 518 232 q 522 385 518 317 q 536 538 525 454 l 593 961 l 761 961 l 626 0 m 133 -346 l 68 -269 l 256 -90 l 368 -90 l 510 -279 l 431 -346 l 300 -224 l 133 -346 z "},"Ņ":{"ha":753,"x_min":22,"x_max":761,"o":"m 626 0 l 392 0 l 265 796 l 265 735 q 243 375 265 558 l 193 0 l 22 0 l 157 961 l 393 961 l 518 164 l 518 232 q 522 385 518 317 q 536 538 525 454 l 593 961 l 761 961 l 626 0 m 314 -99 q 376 -123 353 -99 q 400 -183 400 -147 q 390 -239 400 -212 q 351 -314 379 -265 l 281 -437 l 189 -437 l 244 -275 q 211 -208 211 -249 q 241 -129 211 -160 q 314 -99 271 -99 z "},"Ṅ":{"ha":753,"x_min":22,"x_max":761,"o":"m 626 0 l 392 0 l 265 796 l 265 735 q 243 375 265 558 l 193 0 l 22 0 l 157 961 l 393 961 l 518 164 l 518 232 q 522 385 518 317 q 536 538 525 454 l 593 961 l 761 961 l 626 0 m 483 1063 q 410 1089 436 1063 q 385 1160 385 1115 q 420 1251 385 1215 q 507 1286 456 1286 q 581 1260 554 1286 q 607 1189 607 1233 q 571 1098 607 1133 q 483 1063 535 1063 z "},"Ṇ":{"ha":753,"x_min":22,"x_max":761,"o":"m 626 0 l 392 0 l 265 796 l 265 735 q 243 375 265 558 l 193 0 l 22 0 l 157 961 l 393 961 l 518 164 l 518 232 q 522 385 518 317 q 536 538 525 454 l 593 961 l 761 961 l 626 0 m 308 -90 q 381 -117 356 -90 q 407 -187 407 -143 q 372 -278 407 -243 q 285 -314 336 -314 q 211 -287 238 -314 q 185 -217 185 -261 q 221 -126 185 -161 q 308 -90 257 -90 z "},"Ǹ":{"ha":753,"x_min":22,"x_max":761,"o":"m 626 0 l 392 0 l 265 796 l 265 735 q 243 375 265 558 l 193 0 l 22 0 l 157 961 l 393 961 l 518 164 l 518 232 q 522 385 518 317 q 536 538 525 454 l 593 961 l 761 961 l 626 0 m 429 1289 l 658 1128 l 601 1042 l 347 1154 l 429 1289 z "},"Ŋ":{"ha":753,"x_min":22,"x_max":761,"o":"m 761 961 l 626 0 l 615 -72 q 529 -244 599 -185 q 358 -304 460 -304 q 265 -288 303 -304 q 197 -246 226 -272 l 276 -133 q 312 -152 297 -146 q 347 -158 326 -158 q 398 -137 378 -158 q 424 -78 418 -117 l 433 0 l 392 0 l 265 796 l 265 735 q 243 375 265 558 l 193 0 l 22 0 l 157 961 l 393 961 l 518 164 l 518 232 q 522 385 518 317 q 536 538 525 454 l 593 961 l 761 961 z "},"Ɲ":{"ha":753,"x_min":-214,"x_max":761,"o":"m 761 961 l 626 0 l 392 0 l 265 796 l 265 735 q 243 375 265 558 l 193 0 l 181 -83 q 103 -247 165 -190 q -57 -304 40 -304 q -147 -288 -110 -304 q -214 -244 -183 -272 l -135 -139 q -98 -158 -112 -153 q -62 -164 -83 -164 q -12 -142 -32 -164 q 13 -78 7 -119 l 22 0 l 157 961 l 393 961 l 518 164 l 518 232 q 522 385 518 317 q 536 538 525 454 l 593 961 l 761 961 z "},"ǋ":{"ha":1078,"x_min":22,"x_max":1115,"o":"m 626 0 l 392 0 l 265 796 l 265 735 q 243 375 265 558 l 193 0 l 22 0 l 157 961 l 393 961 l 518 164 l 518 232 q 522 385 518 317 q 536 538 525 454 l 593 961 l 761 961 l 626 0 m 626 -165 q 704 -120 675 -144 q 753 -53 733 -96 q 782 63 772 -10 l 875 736 l 1063 736 l 967 61 q 910 -122 950 -53 q 814 -230 869 -192 q 669 -304 758 -268 l 626 -165 m 992 888 q 919 914 944 888 q 893 985 893 940 q 928 1076 893 1040 q 1015 1111 964 1111 q 1089 1085 1063 1111 q 1115 1014 1115 1058 q 1079 923 1115 958 q 992 888 1043 888 z "},"Ƞ":{"ha":743,"x_min":22,"x_max":729,"o":"m 544 983 q 682 927 635 983 q 729 785 729 871 q 726 740 729 756 l 583 -289 l 392 -289 l 531 728 q 533 760 533 750 q 517 814 533 794 q 469 833 501 833 q 400 813 435 833 q 321 750 365 792 l 215 0 l 22 0 l 157 961 l 326 961 l 326 882 q 544 983 432 983 z "},"Ñ":{"ha":753,"x_min":22,"x_max":761,"o":"m 626 0 l 392 0 l 265 796 l 265 735 q 243 375 265 558 l 193 0 l 22 0 l 157 961 l 393 961 l 518 164 l 518 232 q 522 385 518 317 q 536 538 525 454 l 593 961 l 761 961 l 626 0 m 553 1067 q 513 1076 531 1067 q 472 1103 496 1085 q 447 1121 460 1113 q 422 1129 433 1129 q 390 1115 404 1129 q 356 1068 375 1100 l 272 1118 q 345 1225 303 1183 q 432 1267 388 1267 q 477 1256 458 1267 q 517 1228 496 1246 q 529 1217 519 1225 q 548 1206 539 1210 q 565 1203 557 1203 q 597 1217 582 1203 q 629 1261 611 1231 l 714 1214 q 640 1106 682 1144 q 553 1067 597 1067 z "},"O":{"ha":801,"x_min":50,"x_max":783,"o":"m 489 983 q 708 892 632 983 q 783 625 783 801 q 736 313 783 460 q 590 72 689 165 q 344 -22 492 -22 q 126 69 203 -22 q 50 335 50 161 q 97 647 50 499 q 242 889 143 794 q 489 983 342 983 m 475 836 q 344 749 396 836 q 270 538 293 661 q 247 303 247 414 q 275 167 247 210 q 357 125 303 125 q 490 212 439 125 q 563 421 540 299 q 585 657 585 543 q 558 793 585 750 q 475 836 531 836 z "},"Ȣ":{"ha":750,"x_min":32,"x_max":744,"o":"m 711 731 q 568 544 693 596 q 664 465 631 517 q 697 340 697 414 q 650 153 697 236 q 518 25 603 71 q 325 -21 433 -21 q 166 15 232 -21 q 66 112 100 50 q 32 251 32 174 q 85 432 32 357 q 231 543 138 507 q 161 602 185 565 q 138 696 138 639 q 140 736 138 708 l 169 961 l 364 961 l 331 725 q 328 689 328 697 q 347 628 328 647 q 407 608 367 608 q 484 641 458 608 q 518 731 510 674 l 550 961 l 744 961 l 711 731 m 342 126 q 453 183 411 126 q 494 335 494 239 q 389 465 494 465 q 276 408 319 465 q 233 257 233 351 q 342 126 233 126 z "},"Ó":{"ha":801,"x_min":50,"x_max":783,"o":"m 489 983 q 708 892 632 983 q 783 625 783 801 q 736 313 783 460 q 590 72 689 165 q 344 -22 492 -22 q 126 69 203 -22 q 50 335 50 161 q 97 647 50 499 q 242 889 143 794 q 489 983 342 983 m 475 836 q 344 749 396 836 q 270 538 293 661 q 247 303 247 414 q 275 167 247 210 q 357 125 303 125 q 490 212 439 125 q 563 421 540 299 q 585 657 585 543 q 558 793 585 750 q 475 836 531 836 m 619 1292 l 686 1154 l 400 1040 l 356 1131 l 619 1292 z "},"Ŏ":{"ha":801,"x_min":50,"x_max":783,"o":"m 489 983 q 708 892 632 983 q 783 625 783 801 q 736 313 783 460 q 590 72 689 165 q 344 -22 492 -22 q 126 69 203 -22 q 50 335 50 161 q 97 647 50 499 q 242 889 143 794 q 489 983 342 983 m 475 836 q 344 749 396 836 q 270 538 293 661 q 247 303 247 414 q 275 167 247 210 q 357 125 303 125 q 490 212 439 125 q 563 421 540 299 q 585 657 585 543 q 558 793 585 750 q 475 836 531 836 m 497 1046 q 370 1099 414 1046 q 326 1233 326 1153 l 328 1256 l 428 1272 q 507 1181 435 1181 q 573 1206 546 1181 q 615 1276 600 1232 l 717 1250 q 642 1102 697 1158 q 497 1046 586 1046 z "},"Ǒ":{"ha":801,"x_min":50,"x_max":783,"o":"m 489 983 q 708 892 632 983 q 783 625 783 801 q 736 313 783 460 q 590 72 689 165 q 344 -22 492 -22 q 126 69 203 -22 q 50 335 50 161 q 97 647 50 499 q 242 889 143 794 q 489 983 342 983 m 475 836 q 344 749 396 836 q 270 538 293 661 q 247 303 247 414 q 275 167 247 210 q 357 125 303 125 q 490 212 439 125 q 563 421 540 299 q 585 657 585 543 q 558 793 585 750 q 475 836 531 836 m 672 1293 l 742 1217 l 554 1043 l 442 1043 l 299 1226 l 374 1293 l 510 1176 l 672 1293 z "},"Ɵ":{"ha":801,"x_min":50,"x_max":783,"o":"m 489 983 q 708 892 632 983 q 783 625 783 801 q 736 313 783 460 q 590 72 689 165 q 344 -22 492 -22 q 126 69 203 -22 q 50 335 50 161 q 97 647 50 499 q 242 889 143 794 q 489 983 340 983 m 479 839 q 344 757 397 839 q 264 547 290 675 l 589 547 q 594 657 594 599 q 567 796 594 753 q 479 839 539 839 m 354 122 q 494 208 440 122 q 574 428 547 294 l 246 428 q 239 303 239 372 q 267 165 239 207 q 354 122 296 122 z "},"Ô":{"ha":801,"x_min":50,"x_max":783,"o":"m 489 983 q 708 892 632 983 q 783 625 783 801 q 736 313 783 460 q 590 72 689 165 q 344 -22 492 -22 q 126 69 203 -22 q 50 335 50 161 q 97 647 50 499 q 242 889 143 794 q 489 983 342 983 m 475 836 q 344 749 396 836 q 270 538 293 661 q 247 303 247 414 q 275 167 247 210 q 357 125 303 125 q 490 212 439 125 q 563 421 540 299 q 585 657 585 543 q 558 793 585 750 q 475 836 531 836 m 349 1053 l 279 1129 l 467 1303 l 579 1303 l 721 1119 l 647 1053 l 510 1168 l 349 1053 z "},"Ố":{"ha":801,"x_min":50,"x_max":904,"o":"m 813 1486 l 904 1390 l 692 1193 l 628 1253 l 813 1486 m 343 1003 l 274 1079 l 461 1253 l 574 1253 l 715 1069 l 642 1003 l 504 1118 l 343 1003 m 489 983 q 708 892 632 983 q 783 625 783 801 q 736 313 783 460 q 590 72 689 165 q 344 -22 492 -22 q 126 69 203 -22 q 50 335 50 161 q 97 647 50 499 q 242 889 143 794 q 489 983 342 983 m 475 836 q 344 749 396 836 q 270 538 293 661 q 247 303 247 414 q 275 167 247 210 q 357 125 303 125 q 490 212 439 125 q 563 421 540 299 q 585 657 585 543 q 558 793 585 750 q 475 836 531 836 z "},"Ộ":{"ha":801,"x_min":50,"x_max":783,"o":"m 489 983 q 708 892 632 983 q 783 625 783 801 q 736 313 783 460 q 590 72 689 165 q 344 -22 492 -22 q 126 69 203 -22 q 50 335 50 161 q 97 647 50 499 q 242 889 143 794 q 489 983 342 983 m 475 836 q 344 749 396 836 q 270 538 293 661 q 247 303 247 414 q 275 167 247 210 q 357 125 303 125 q 490 212 439 125 q 563 421 540 299 q 585 657 585 543 q 558 793 585 750 q 475 836 531 836 m 349 1053 l 279 1129 l 467 1303 l 579 1303 l 721 1119 l 647 1053 l 510 1168 l 349 1053 m 329 -90 q 402 -117 376 -90 q 428 -187 428 -143 q 392 -278 428 -243 q 306 -314 357 -314 q 232 -287 258 -314 q 206 -217 206 -261 q 242 -126 206 -161 q 329 -90 278 -90 z "},"Ồ":{"ha":801,"x_min":50,"x_max":783,"o":"m 288 1482 l 407 1247 l 328 1193 l 171 1397 l 288 1482 m 343 1003 l 274 1079 l 461 1253 l 574 1253 l 715 1069 l 642 1003 l 504 1118 l 343 1003 m 489 983 q 708 892 632 983 q 783 625 783 801 q 736 313 783 460 q 590 72 689 165 q 344 -22 492 -22 q 126 69 203 -22 q 50 335 50 161 q 97 647 50 499 q 242 889 143 794 q 489 983 342 983 m 475 836 q 344 749 396 836 q 270 538 293 661 q 247 303 247 414 q 275 167 247 210 q 357 125 303 125 q 490 212 439 125 q 563 421 540 299 q 585 657 585 543 q 558 793 585 750 q 475 836 531 836 z "},"Ổ":{"ha":801,"x_min":50,"x_max":882,"o":"m 489 983 q 708 892 632 983 q 783 625 783 801 q 736 313 783 460 q 590 72 689 165 q 344 -22 492 -22 q 126 69 203 -22 q 50 335 50 161 q 97 647 50 499 q 242 889 143 794 q 489 983 342 983 m 475 836 q 344 749 396 836 q 270 538 293 661 q 247 303 247 414 q 275 167 247 210 q 357 125 303 125 q 490 212 439 125 q 563 421 540 299 q 585 657 585 543 q 558 793 585 750 q 475 836 531 836 m 342 1003 l 272 1079 l 460 1253 l 572 1253 l 714 1069 l 640 1003 l 503 1118 l 342 1003 m 667 1293 q 733 1312 711 1297 q 754 1358 754 1326 q 717 1394 754 1394 q 650 1376 689 1394 l 628 1463 q 749 1494 681 1494 q 847 1460 811 1494 q 882 1371 882 1426 q 768 1233 882 1258 l 760 1172 l 651 1172 l 667 1293 z "},"Ỗ":{"ha":801,"x_min":50,"x_max":783,"o":"m 603 1293 q 565 1301 582 1293 q 524 1326 547 1310 q 496 1345 507 1339 q 474 1351 485 1351 q 441 1338 456 1351 q 408 1293 426 1324 l 325 1342 q 398 1444 357 1404 q 483 1483 439 1483 q 528 1474 510 1483 q 568 1447 547 1464 q 592 1428 582 1435 q 615 1422 603 1422 q 647 1435 632 1422 q 679 1478 661 1449 l 763 1432 q 689 1330 731 1367 q 603 1293 647 1293 m 346 1003 l 276 1079 l 464 1253 l 576 1253 l 718 1069 l 644 1003 l 507 1118 l 346 1003 m 489 983 q 708 892 632 983 q 783 625 783 801 q 736 313 783 460 q 590 72 689 165 q 344 -22 492 -22 q 126 69 203 -22 q 50 335 50 161 q 97 647 50 499 q 242 889 143 794 q 489 983 342 983 m 475 836 q 344 749 396 836 q 270 538 293 661 q 247 303 247 414 q 275 167 247 210 q 357 125 303 125 q 490 212 439 125 q 563 421 540 299 q 585 657 585 543 q 558 793 585 750 q 475 836 531 836 z "},"Ȍ":{"ha":801,"x_min":50,"x_max":783,"o":"m 489 983 q 708 892 632 983 q 783 625 783 801 q 736 313 783 460 q 590 72 689 165 q 344 -22 492 -22 q 126 69 203 -22 q 50 335 50 161 q 97 647 50 499 q 242 889 143 794 q 489 983 342 983 m 475 836 q 344 749 396 836 q 270 538 293 661 q 247 303 247 414 q 275 167 247 210 q 357 125 303 125 q 490 212 439 125 q 563 421 540 299 q 585 657 585 543 q 558 793 585 750 q 475 836 531 836 m 388 1357 l 465 1089 l 358 1047 l 246 1299 l 388 1357 m 586 1356 l 654 1092 l 549 1054 l 444 1301 l 586 1356 z "},"Ö":{"ha":801,"x_min":50,"x_max":783,"o":"m 489 983 q 708 892 632 983 q 783 625 783 801 q 736 313 783 460 q 590 72 689 165 q 344 -22 492 -22 q 126 69 203 -22 q 50 335 50 161 q 97 647 50 499 q 242 889 143 794 q 489 983 342 983 m 475 836 q 344 749 396 836 q 270 538 293 661 q 247 303 247 414 q 275 167 247 210 q 357 125 303 125 q 490 212 439 125 q 563 421 540 299 q 585 657 585 543 q 558 793 585 750 q 475 836 531 836 m 369 1072 q 306 1096 329 1072 q 283 1157 283 1119 q 315 1238 283 1206 q 390 1269 347 1269 q 454 1246 431 1269 q 478 1183 478 1222 q 447 1104 478 1136 q 369 1072 415 1072 m 636 1072 q 573 1096 596 1072 q 550 1157 550 1119 q 581 1238 550 1206 q 657 1269 613 1269 q 719 1246 696 1269 q 743 1183 743 1222 q 712 1104 743 1136 q 636 1072 681 1072 z "},"Ȫ":{"ha":801,"x_min":50,"x_max":783,"o":"m 489 983 q 708 892 632 983 q 783 625 783 801 q 736 313 783 460 q 590 72 689 165 q 344 -22 492 -22 q 126 69 203 -22 q 50 335 50 161 q 97 647 50 499 q 242 889 143 794 q 489 983 342 983 m 475 836 q 344 749 396 836 q 270 538 293 661 q 247 303 247 414 q 275 167 247 210 q 357 125 303 125 q 490 212 439 125 q 563 421 540 299 q 585 657 585 543 q 558 793 585 750 q 475 836 531 836 m 361 1036 q 298 1060 321 1036 q 275 1121 275 1083 q 307 1201 275 1169 q 382 1233 339 1233 q 446 1210 422 1233 q 469 1147 469 1186 q 438 1068 469 1100 q 361 1036 407 1036 m 628 1036 q 565 1060 588 1036 q 542 1121 542 1083 q 573 1201 542 1169 q 649 1233 604 1233 q 711 1210 688 1233 q 735 1147 735 1186 q 703 1068 735 1100 q 628 1036 672 1036 m 694 1296 l 350 1296 l 369 1429 l 715 1429 l 694 1296 z "},"Ȯ":{"ha":801,"x_min":50,"x_max":783,"o":"m 489 983 q 708 892 632 983 q 783 625 783 801 q 736 313 783 460 q 590 72 689 165 q 344 -22 492 -22 q 126 69 203 -22 q 50 335 50 161 q 97 647 50 499 q 242 889 143 794 q 489 983 342 983 m 475 836 q 344 749 396 836 q 270 538 293 661 q 247 303 247 414 q 275 167 247 210 q 357 125 303 125 q 490 212 439 125 q 563 421 540 299 q 585 657 585 543 q 558 793 585 750 q 475 836 531 836 m 506 1063 q 433 1089 458 1063 q 407 1160 407 1115 q 442 1251 407 1215 q 529 1286 478 1286 q 603 1260 576 1286 q 629 1189 629 1233 q 593 1098 629 1133 q 506 1063 557 1063 z "},"Ȱ":{"ha":801,"x_min":50,"x_max":783,"o":"m 489 983 q 708 892 632 983 q 783 625 783 801 q 736 313 783 460 q 590 72 689 165 q 344 -22 492 -22 q 126 69 203 -22 q 50 335 50 161 q 97 647 50 499 q 242 889 143 794 q 489 983 342 983 m 475 836 q 344 749 396 836 q 270 538 293 661 q 247 303 247 414 q 275 167 247 210 q 357 125 303 125 q 490 212 439 125 q 563 421 540 299 q 585 657 585 543 q 558 793 585 750 q 475 836 531 836 m 494 1025 q 422 1051 447 1025 q 396 1122 396 1078 q 431 1213 396 1178 q 518 1249 467 1249 q 592 1222 565 1249 q 618 1151 618 1196 q 582 1060 618 1096 q 494 1025 546 1025 m 701 1296 l 357 1296 l 376 1429 l 722 1429 l 701 1296 z "},"Ọ":{"ha":801,"x_min":50,"x_max":783,"o":"m 489 983 q 708 892 632 983 q 783 625 783 801 q 736 313 783 460 q 590 72 689 165 q 344 -22 492 -22 q 126 69 203 -22 q 50 335 50 161 q 97 647 50 499 q 242 889 143 794 q 489 983 342 983 m 475 836 q 344 749 396 836 q 270 538 293 661 q 247 303 247 414 q 275 167 247 210 q 357 125 303 125 q 490 212 439 125 q 563 421 540 299 q 585 657 585 543 q 558 793 585 750 q 475 836 531 836 m 329 -90 q 402 -117 376 -90 q 428 -187 428 -143 q 392 -278 428 -243 q 306 -314 357 -314 q 232 -287 258 -314 q 206 -217 206 -261 q 242 -126 206 -161 q 329 -90 278 -90 z "},"Ò":{"ha":801,"x_min":50,"x_max":783,"o":"m 489 983 q 708 892 632 983 q 783 625 783 801 q 736 313 783 460 q 590 72 689 165 q 344 -22 492 -22 q 126 69 203 -22 q 50 335 50 161 q 97 647 50 499 q 242 889 143 794 q 489 983 342 983 m 475 836 q 344 749 396 836 q 270 538 293 661 q 247 303 247 414 q 275 167 247 210 q 357 125 303 125 q 490 212 439 125 q 563 421 540 299 q 585 657 585 543 q 558 793 585 750 q 475 836 531 836 m 451 1289 l 681 1128 l 624 1042 l 369 1154 l 451 1289 z "},"Ỏ":{"ha":801,"x_min":50,"x_max":783,"o":"m 489 983 q 708 892 632 983 q 783 625 783 801 q 736 313 783 460 q 590 72 689 165 q 344 -22 492 -22 q 126 69 203 -22 q 50 335 50 161 q 97 647 50 499 q 242 889 143 794 q 489 983 342 983 m 475 836 q 344 749 396 836 q 270 538 293 661 q 247 303 247 414 q 275 167 247 210 q 357 125 303 125 q 490 212 439 125 q 563 421 540 299 q 585 657 585 543 q 558 793 585 750 q 475 836 531 836 m 461 1182 q 527 1201 506 1186 q 549 1247 549 1215 q 511 1283 549 1283 q 444 1265 483 1283 l 422 1351 q 543 1383 475 1383 q 641 1349 606 1383 q 676 1260 676 1315 q 563 1122 676 1147 l 554 1061 l 446 1061 l 461 1182 z "},"Ơ":{"ha":844,"x_min":50,"x_max":906,"o":"m 906 992 q 868 857 906 907 q 760 792 831 807 q 783 625 783 718 q 736 313 783 460 q 590 72 689 165 q 344 -22 492 -22 q 126 69 203 -22 q 50 335 50 161 q 97 647 50 499 q 242 889 143 794 q 489 983 342 983 q 714 885 639 983 q 781 992 781 894 q 775 1056 781 1019 l 897 1071 q 906 992 906 1042 m 357 125 q 490 212 439 125 q 563 421 540 299 q 585 657 585 543 q 558 793 585 750 q 475 836 531 836 q 344 749 396 836 q 270 538 293 661 q 247 303 247 414 q 275 167 247 210 q 357 125 303 125 z "},"Ớ":{"ha":844,"x_min":50,"x_max":906,"o":"m 686 1154 l 400 1040 l 356 1131 l 619 1292 l 686 1154 m 906 992 q 868 857 906 907 q 760 792 831 807 q 783 625 783 718 q 736 313 783 460 q 590 72 689 165 q 344 -22 492 -22 q 126 69 203 -22 q 50 335 50 161 q 97 647 50 499 q 242 889 143 794 q 489 983 342 983 q 714 885 639 983 q 781 992 781 894 q 775 1056 781 1019 l 897 1071 q 906 992 906 1042 m 357 125 q 490 212 439 125 q 563 421 540 299 q 585 657 585 543 q 558 793 585 750 q 475 836 531 836 q 344 749 396 836 q 270 538 293 661 q 247 303 247 414 q 275 167 247 210 q 357 125 303 125 z "},"Ợ":{"ha":844,"x_min":50,"x_max":906,"o":"m 906 992 q 868 857 906 907 q 760 792 831 807 q 783 625 783 718 q 736 313 783 460 q 590 72 689 165 q 344 -22 492 -22 q 126 69 203 -22 q 50 335 50 161 q 97 647 50 499 q 242 889 143 794 q 489 983 342 983 q 714 885 639 983 q 781 992 781 894 q 775 1056 781 1019 l 897 1071 q 906 992 906 1042 m 357 125 q 490 212 439 125 q 563 421 540 299 q 585 657 585 543 q 558 793 585 750 q 475 836 531 836 q 344 749 396 836 q 270 538 293 661 q 247 303 247 414 q 275 167 247 210 q 357 125 303 125 m 329 -90 q 402 -117 376 -90 q 428 -187 428 -143 q 392 -278 428 -243 q 306 -314 357 -314 q 232 -287 258 -314 q 206 -217 206 -261 q 242 -126 206 -161 q 329 -90 278 -90 z "},"Ờ":{"ha":844,"x_min":50,"x_max":906,"o":"m 681 1128 l 624 1042 l 369 1154 l 451 1289 l 681 1128 m 906 992 q 868 857 906 907 q 760 792 831 807 q 783 625 783 718 q 736 313 783 460 q 590 72 689 165 q 344 -22 492 -22 q 126 69 203 -22 q 50 335 50 161 q 97 647 50 499 q 242 889 143 794 q 489 983 342 983 q 714 885 639 983 q 781 992 781 894 q 775 1056 781 1019 l 897 1071 q 906 992 906 1042 m 357 125 q 490 212 439 125 q 563 421 540 299 q 585 657 585 543 q 558 793 585 750 q 475 836 531 836 q 344 749 396 836 q 270 538 293 661 q 247 303 247 414 q 275 167 247 210 q 357 125 303 125 z "},"Ở":{"ha":844,"x_min":50,"x_max":906,"o":"m 511 1283 q 444 1265 483 1283 l 422 1351 q 543 1383 475 1383 q 641 1349 606 1383 q 676 1260 676 1315 q 563 1122 676 1147 l 554 1061 l 446 1061 l 461 1182 q 527 1201 506 1186 q 549 1247 549 1215 q 511 1283 549 1283 m 906 992 q 868 857 906 907 q 760 792 831 807 q 783 625 783 718 q 736 313 783 460 q 590 72 689 165 q 344 -22 492 -22 q 126 69 203 -22 q 50 335 50 161 q 97 647 50 499 q 242 889 143 794 q 489 983 342 983 q 714 885 639 983 q 781 992 781 894 q 775 1056 781 1019 l 897 1071 q 906 992 906 1042 m 357 125 q 490 212 439 125 q 563 421 540 299 q 585 657 585 543 q 558 793 585 750 q 475 836 531 836 q 344 749 396 836 q 270 538 293 661 q 247 303 247 414 q 275 167 247 210 q 357 125 303 125 z "},"Ỡ":{"ha":844,"x_min":50,"x_max":906,"o":"m 444 1129 q 413 1115 428 1129 q 378 1068 397 1100 l 294 1118 q 367 1225 325 1183 q 454 1267 410 1267 q 499 1256 481 1267 q 539 1228 518 1246 q 551 1217 542 1225 q 570 1206 561 1210 q 588 1203 579 1203 q 619 1217 604 1203 q 651 1261 633 1231 l 736 1214 q 662 1106 704 1144 q 575 1067 619 1067 q 535 1076 553 1067 q 494 1103 518 1085 q 469 1121 482 1113 q 444 1129 456 1129 m 906 992 q 868 857 906 907 q 760 792 831 807 q 783 625 783 718 q 736 313 783 460 q 590 72 689 165 q 344 -22 492 -22 q 126 69 203 -22 q 50 335 50 161 q 97 647 50 499 q 242 889 143 794 q 489 983 342 983 q 714 885 639 983 q 781 992 781 894 q 775 1056 781 1019 l 897 1071 q 906 992 906 1042 m 357 125 q 490 212 439 125 q 563 421 540 299 q 585 657 585 543 q 558 793 585 750 q 475 836 531 836 q 344 749 396 836 q 270 538 293 661 q 247 303 247 414 q 275 167 247 210 q 357 125 303 125 z "},"Ő":{"ha":801,"x_min":50,"x_max":793,"o":"m 489 983 q 708 892 632 983 q 783 625 783 801 q 736 313 783 460 q 590 72 689 165 q 344 -22 492 -22 q 126 69 203 -22 q 50 335 50 161 q 97 647 50 499 q 242 889 143 794 q 489 983 342 983 m 475 836 q 344 749 396 836 q 270 538 293 661 q 247 303 247 414 q 275 167 247 210 q 357 125 303 125 q 490 212 439 125 q 563 421 540 299 q 585 657 585 543 q 558 793 585 750 q 475 836 531 836 m 681 1357 l 793 1288 l 621 1047 l 533 1094 l 681 1357 m 482 1356 l 596 1292 l 433 1054 l 343 1097 l 482 1356 z "},"Ƣ":{"ha":1101,"x_min":50,"x_max":1083,"o":"m 879 983 q 1030 933 976 983 q 1083 794 1083 882 q 1081 753 1083 781 l 933 -289 l 742 -289 l 888 761 q 889 785 889 769 q 833 843 889 843 q 750 813 790 843 q 783 625 783 731 q 736 313 783 460 q 590 72 689 165 q 344 -22 492 -22 q 126 69 203 -22 q 50 335 50 161 q 97 647 50 499 q 242 889 143 794 q 489 983 342 983 q 679 914 606 983 q 879 983 767 983 m 357 125 q 490 212 439 125 q 563 421 540 299 q 585 657 585 543 q 558 793 585 750 q 475 836 531 836 q 344 749 396 836 q 270 538 293 661 q 247 303 247 414 q 275 167 247 210 q 357 125 303 125 z "},"Ȏ":{"ha":801,"x_min":50,"x_max":783,"o":"m 489 983 q 708 892 632 983 q 783 625 783 801 q 736 313 783 460 q 590 72 689 165 q 344 -22 492 -22 q 126 69 203 -22 q 50 335 50 161 q 97 647 50 499 q 242 889 143 794 q 489 983 342 983 m 475 836 q 344 749 396 836 q 270 538 293 661 q 247 303 247 414 q 275 167 247 210 q 357 125 303 125 q 490 212 439 125 q 563 421 540 299 q 585 657 585 543 q 558 793 585 750 q 475 836 531 836 m 306 1089 q 388 1247 329 1188 q 532 1307 446 1307 q 664 1245 621 1307 q 701 1083 707 1183 l 597 1069 q 518 1174 590 1174 q 406 1064 442 1174 l 306 1089 z "},"Ō":{"ha":801,"x_min":50,"x_max":783,"o":"m 489 983 q 708 892 632 983 q 783 625 783 801 q 736 313 783 460 q 590 72 689 165 q 344 -22 492 -22 q 126 69 203 -22 q 50 335 50 161 q 97 647 50 499 q 242 889 143 794 q 489 983 342 983 m 475 836 q 344 749 396 836 q 270 538 293 661 q 247 303 247 414 q 275 167 247 210 q 357 125 303 125 q 490 212 439 125 q 563 421 540 299 q 585 657 585 543 q 558 793 585 750 q 475 836 531 836 m 674 1090 l 329 1090 l 349 1224 l 694 1224 l 674 1090 z "},"Ṓ":{"ha":801,"x_min":50,"x_max":783,"o":"m 489 983 q 708 892 632 983 q 783 625 783 801 q 736 313 783 460 q 590 72 689 165 q 344 -22 492 -22 q 126 69 203 -22 q 50 335 50 161 q 97 647 50 499 q 242 889 143 794 q 489 983 342 983 m 475 836 q 344 749 396 836 q 270 538 293 661 q 247 303 247 414 q 275 167 247 210 q 357 125 303 125 q 490 212 439 125 q 563 421 540 299 q 585 657 585 543 q 558 793 585 750 q 475 836 531 836 m 676 1056 l 332 1056 l 351 1189 l 697 1189 l 676 1056 m 638 1489 l 704 1351 l 418 1238 l 374 1328 l 638 1489 z "},"Ṑ":{"ha":801,"x_min":50,"x_max":783,"o":"m 489 983 q 708 892 632 983 q 783 625 783 801 q 736 313 783 460 q 590 72 689 165 q 344 -22 492 -22 q 126 69 203 -22 q 50 335 50 161 q 97 647 50 499 q 242 889 143 794 q 489 983 342 983 m 475 836 q 344 749 396 836 q 270 538 293 661 q 247 303 247 414 q 275 167 247 210 q 357 125 303 125 q 490 212 439 125 q 563 421 540 299 q 585 657 585 543 q 558 793 585 750 q 475 836 531 836 m 674 1056 l 329 1056 l 349 1189 l 694 1189 l 674 1056 m 469 1486 l 699 1325 l 642 1239 l 388 1351 l 469 1486 z "},"Ꞷ":{"ha":1015,"x_min":53,"x_max":982,"o":"m 269 -21 q 108 48 163 -21 q 53 264 53 117 q 101 614 53 432 q 229 961 149 796 l 408 961 q 291 599 336 782 q 246 260 246 415 q 260 157 246 188 q 308 126 275 126 q 393 240 378 126 l 438 553 l 628 553 l 583 233 q 581 199 581 208 q 636 125 581 125 q 754 294 718 125 q 790 667 790 463 q 784 808 790 742 q 765 961 778 875 l 950 961 q 982 664 982 828 q 904 172 982 364 q 649 -21 826 -21 q 526 20 571 -21 q 475 142 482 61 q 391 19 444 60 q 269 -21 338 -21 z "},"Ǫ":{"ha":801,"x_min":50,"x_max":783,"o":"m 467 -3 q 318 -164 318 -74 q 371 -212 318 -212 q 438 -206 399 -212 l 410 -324 q 331 -333 368 -333 q 223 -294 264 -333 q 182 -189 182 -256 q 279 -17 182 -87 q 109 92 168 3 q 50 335 50 182 q 97 647 50 499 q 242 889 143 794 q 489 983 342 983 q 708 892 632 983 q 783 625 783 801 q 749 356 783 486 q 644 130 715 226 q 467 -3 572 33 m 475 836 q 344 749 396 836 q 270 538 293 661 q 247 303 247 414 q 275 167 247 210 q 357 125 303 125 q 490 212 439 125 q 563 421 540 299 q 585 657 585 543 q 558 793 585 750 q 475 836 531 836 z "},"Ǭ":{"ha":801,"x_min":50,"x_max":783,"o":"m 694 1224 l 674 1090 l 329 1090 l 349 1224 l 694 1224 m 467 -3 q 318 -164 318 -74 q 371 -212 318 -212 q 438 -206 399 -212 l 410 -324 q 331 -333 368 -333 q 223 -294 264 -333 q 182 -189 182 -256 q 279 -17 182 -87 q 109 92 168 3 q 50 335 50 182 q 97 647 50 499 q 242 889 143 794 q 489 983 342 983 q 708 892 632 983 q 783 625 783 801 q 749 356 783 486 q 644 130 715 226 q 467 -3 572 33 m 475 836 q 344 749 396 836 q 270 538 293 661 q 247 303 247 414 q 275 167 247 210 q 357 125 303 125 q 490 212 439 125 q 563 421 540 299 q 585 657 585 543 q 558 793 585 750 q 475 836 531 836 z "},"Ɔ":{"ha":667,"x_min":-32,"x_max":647,"o":"m 360 983 q 572 892 496 983 q 647 624 647 800 q 597 298 647 444 q 447 65 546 151 q 210 -21 347 -21 q -32 99 63 -21 l 71 204 q 140 151 110 168 q 211 133 169 133 q 344 209 290 133 q 424 399 399 285 q 450 631 450 514 q 421 788 450 740 q 336 835 392 835 q 259 819 296 835 q 179 771 222 803 l 100 882 q 223 958 160 932 q 360 983 286 983 z "},"Ø":{"ha":801,"x_min":50,"x_max":783,"o":"m 667 925 q 753 803 724 879 q 783 625 783 728 q 736 313 783 460 q 590 72 689 165 q 344 -22 492 -22 q 297 -19 328 -22 l 238 -183 l 97 -143 l 164 38 q 80 159 110 83 q 50 335 50 235 q 97 647 50 499 q 242 889 143 794 q 489 983 342 983 q 533 981 506 983 l 596 1146 l 733 1106 l 667 925 m 475 838 q 339 750 392 838 q 263 539 286 663 q 240 303 240 415 q 263 176 240 217 l 496 836 q 475 838 489 838 m 357 124 q 494 210 442 124 q 569 420 547 297 q 592 657 592 543 q 571 782 592 740 l 338 125 q 357 124 344 124 z "},"Ǿ":{"ha":801,"x_min":50,"x_max":783,"o":"m 667 925 q 753 803 724 879 q 783 625 783 728 q 736 313 783 460 q 590 72 689 165 q 344 -22 492 -22 q 297 -19 328 -22 l 238 -183 l 97 -143 l 164 38 q 80 159 110 83 q 50 335 50 235 q 97 647 50 499 q 242 889 143 794 q 489 983 342 983 q 533 981 506 983 l 596 1146 l 733 1106 l 667 925 m 475 838 q 339 750 392 838 q 263 539 286 663 q 240 303 240 415 q 263 176 240 217 l 496 836 q 475 838 489 838 m 357 124 q 494 210 442 124 q 569 420 547 297 q 592 657 592 543 q 571 782 592 740 l 338 125 q 357 124 344 124 m 601 1331 l 668 1193 l 382 1079 l 338 1169 l 601 1331 z "},"Õ":{"ha":801,"x_min":50,"x_max":783,"o":"m 489 983 q 708 892 632 983 q 783 625 783 801 q 736 313 783 460 q 590 72 689 165 q 344 -22 492 -22 q 126 69 203 -22 q 50 335 50 161 q 97 647 50 499 q 242 889 143 794 q 489 983 342 983 m 475 836 q 344 749 396 836 q 270 538 293 661 q 247 303 247 414 q 275 167 247 210 q 357 125 303 125 q 490 212 439 125 q 563 421 540 299 q 585 657 585 543 q 558 793 585 750 q 475 836 531 836 m 575 1067 q 535 1076 553 1067 q 494 1103 518 1085 q 469 1121 482 1113 q 444 1129 456 1129 q 412 1115 426 1129 q 378 1068 397 1100 l 294 1118 q 367 1225 325 1183 q 454 1267 410 1267 q 499 1256 481 1267 q 539 1228 518 1246 q 551 1217 542 1225 q 570 1206 561 1210 q 588 1203 579 1203 q 619 1217 604 1203 q 651 1261 633 1231 l 736 1214 q 662 1106 704 1144 q 575 1067 619 1067 z "},"Ṍ":{"ha":801,"x_min":50,"x_max":783,"o":"m 489 983 q 708 892 632 983 q 783 625 783 801 q 736 313 783 460 q 590 72 689 165 q 344 -22 492 -22 q 126 69 203 -22 q 50 335 50 161 q 97 647 50 499 q 242 889 143 794 q 489 983 342 983 m 475 836 q 344 749 396 836 q 270 538 293 661 q 247 303 247 414 q 275 167 247 210 q 357 125 303 125 q 490 212 439 125 q 563 421 540 299 q 585 657 585 543 q 558 793 585 750 q 475 836 531 836 m 569 1051 q 530 1060 547 1051 q 489 1088 513 1069 q 463 1106 476 1097 q 439 1114 450 1114 q 406 1099 421 1114 q 372 1053 392 1085 l 289 1103 q 362 1210 319 1168 q 449 1251 404 1251 q 494 1241 475 1251 q 533 1213 513 1231 q 546 1202 536 1210 q 565 1191 556 1194 q 582 1188 574 1188 q 613 1201 599 1188 q 646 1246 628 1215 l 731 1199 q 656 1090 699 1129 q 569 1051 614 1051 m 631 1531 l 697 1393 l 411 1279 l 367 1369 l 631 1531 z "},"Ȭ":{"ha":801,"x_min":50,"x_max":783,"o":"m 699 1300 l 354 1300 l 374 1433 l 719 1433 l 699 1300 m 568 1051 q 528 1060 546 1051 q 488 1088 511 1069 q 462 1106 475 1097 q 438 1114 449 1114 q 406 1099 421 1114 q 371 1053 390 1085 l 288 1103 q 360 1210 318 1168 q 447 1251 403 1251 q 492 1241 474 1251 q 532 1213 511 1231 q 544 1202 535 1210 q 563 1191 554 1194 q 581 1188 572 1188 q 612 1201 597 1188 q 644 1246 626 1215 l 729 1199 q 655 1090 697 1129 q 568 1051 613 1051 m 489 983 q 708 892 632 983 q 783 625 783 801 q 736 313 783 460 q 590 72 689 165 q 344 -22 492 -22 q 126 69 203 -22 q 50 335 50 161 q 97 647 50 499 q 242 889 143 794 q 489 983 342 983 m 475 836 q 344 749 396 836 q 270 538 293 661 q 247 303 247 414 q 275 167 247 210 q 357 125 303 125 q 490 212 439 125 q 563 421 540 299 q 585 657 585 543 q 558 793 585 750 q 475 836 531 836 z "},"Œ":{"ha":1025,"x_min":50,"x_max":1072,"o":"m 1029 818 l 714 818 q 756 625 756 739 q 754 560 756 582 l 963 560 l 942 418 l 735 418 q 617 144 700 250 l 960 144 l 936 0 l 443 0 q 328 -22 393 -22 q 124 70 197 -22 q 50 335 50 163 q 96 646 50 497 q 236 889 142 794 q 469 983 331 983 q 583 961 538 983 l 1072 961 l 1029 818 m 344 125 q 467 212 419 125 q 535 422 514 299 q 557 657 557 544 q 533 794 557 751 q 460 836 508 836 q 340 749 388 836 q 269 537 292 661 q 247 303 247 413 q 344 125 247 125 z "},"P":{"ha":671,"x_min":22,"x_max":699,"o":"m 396 961 q 620 894 542 961 q 699 700 699 828 q 657 514 699 597 q 531 381 615 431 q 322 331 446 331 l 263 331 l 215 0 l 22 0 l 157 961 l 396 961 m 325 475 q 460 538 421 475 q 500 699 500 601 q 472 790 500 763 q 381 818 443 818 l 331 818 l 282 475 l 325 475 z "},"Ṕ":{"ha":671,"x_min":22,"x_max":699,"o":"m 396 961 q 620 894 542 961 q 699 700 699 828 q 657 514 699 597 q 531 381 615 431 q 322 331 446 331 l 263 331 l 215 0 l 22 0 l 157 961 l 396 961 m 325 475 q 460 538 421 475 q 500 699 500 601 q 472 790 500 763 q 381 818 443 818 l 331 818 l 282 475 l 325 475 m 557 1292 l 624 1154 l 338 1040 l 293 1131 l 557 1292 z "},"Ṗ":{"ha":671,"x_min":22,"x_max":699,"o":"m 396 961 q 620 894 542 961 q 699 700 699 828 q 657 514 699 597 q 531 381 615 431 q 322 331 446 331 l 263 331 l 215 0 l 22 0 l 157 961 l 396 961 m 325 475 q 460 538 421 475 q 500 699 500 601 q 472 790 500 763 q 381 818 443 818 l 331 818 l 282 475 l 325 475 m 443 1063 q 370 1089 396 1063 q 344 1160 344 1115 q 380 1251 344 1215 q 467 1286 415 1286 q 540 1260 514 1286 q 567 1189 567 1233 q 531 1098 567 1133 q 443 1063 494 1063 z "},"Ƥ":{"ha":839,"x_min":63,"x_max":867,"o":"m 564 961 q 788 894 710 961 q 867 700 867 828 q 825 514 867 597 q 699 381 783 431 q 490 331 614 331 l 431 331 l 383 0 l 190 0 l 306 818 l 274 818 q 226 797 243 818 q 210 736 210 776 q 222 654 210 699 l 92 607 q 63 742 63 676 q 123 901 63 842 q 285 961 183 961 l 564 961 m 493 475 q 628 538 589 475 q 668 699 668 601 q 640 790 668 763 q 549 818 611 818 l 499 818 l 450 475 l 493 475 z "},"Þ":{"ha":678,"x_min":22,"x_max":682,"o":"m 381 804 q 604 737 526 804 q 682 538 682 669 q 640 349 682 433 q 514 215 599 264 q 306 165 429 165 l 240 165 l 217 0 l 22 0 l 157 961 l 351 961 l 329 804 l 381 804 m 308 308 q 444 372 404 308 q 483 536 483 436 q 455 633 483 604 q 364 663 426 663 l 310 663 l 260 308 l 308 308 z "},"Q":{"ha":801,"x_min":50,"x_max":783,"o":"m 525 57 q 652 28 599 53 q 749 -42 706 4 l 607 -185 q 501 -61 561 -103 q 344 -19 440 -19 q 126 71 201 -19 q 50 335 50 161 q 97 647 50 499 q 242 889 143 794 q 489 983 342 983 q 708 892 632 983 q 783 625 783 801 q 720 280 783 436 q 525 57 657 124 m 247 303 q 275 167 247 210 q 357 125 303 125 q 490 212 439 125 q 563 421 540 299 q 585 657 585 543 q 558 793 585 750 q 475 836 531 836 q 344 749 396 836 q 270 538 293 661 q 247 303 247 414 z "},"Ɋ":{"ha":792,"x_min":51,"x_max":825,"o":"m 825 -249 q 657 -304 749 -304 q 508 -255 561 -304 q 456 -111 456 -206 q 458 -67 456 -97 l 467 0 l 472 40 q 318 -21 407 -21 q 122 72 193 -21 q 51 333 51 165 q 101 661 51 513 q 241 897 151 810 q 446 983 331 983 q 603 889 544 983 l 628 961 l 793 961 l 661 0 l 660 0 l 650 -85 q 649 -103 649 -92 q 696 -158 649 -158 q 734 -153 718 -158 q 776 -133 750 -147 l 825 -249 m 365 124 q 494 204 436 124 l 571 761 q 525 817 549 797 q 469 836 501 836 q 351 765 401 836 q 276 576 301 693 q 250 328 250 460 q 365 124 250 124 z "},"R":{"ha":704,"x_min":22,"x_max":700,"o":"m 700 718 q 654 542 700 618 q 517 421 608 467 l 656 0 l 456 0 l 342 379 l 268 379 l 215 0 l 22 0 l 157 961 l 393 961 q 624 898 547 961 q 700 718 700 835 m 288 518 l 340 518 q 465 574 426 518 q 503 711 503 631 q 475 794 503 768 q 389 819 447 819 l 331 819 l 288 518 z "},"Ŕ":{"ha":704,"x_min":22,"x_max":700,"o":"m 700 718 q 654 542 700 618 q 517 421 608 467 l 656 0 l 456 0 l 342 379 l 268 379 l 215 0 l 22 0 l 157 961 l 393 961 q 624 898 547 961 q 700 718 700 835 m 288 518 l 340 518 q 465 574 426 518 q 503 711 503 631 q 475 794 503 768 q 389 819 447 819 l 331 819 l 288 518 m 551 1292 l 618 1154 l 332 1040 l 288 1131 l 551 1292 z "},"Ř":{"ha":704,"x_min":22,"x_max":700,"o":"m 700 718 q 654 542 700 618 q 517 421 608 467 l 656 0 l 456 0 l 342 379 l 268 379 l 215 0 l 22 0 l 157 961 l 393 961 q 624 898 547 961 q 700 718 700 835 m 288 518 l 340 518 q 465 574 426 518 q 503 711 503 631 q 475 794 503 768 q 389 819 447 819 l 331 819 l 288 518 m 604 1293 l 674 1217 l 486 1043 l 374 1043 l 231 1226 l 306 1293 l 442 1176 l 604 1293 z "},"Ŗ":{"ha":704,"x_min":22,"x_max":700,"o":"m 700 718 q 654 542 700 618 q 517 421 608 467 l 656 0 l 456 0 l 342 379 l 268 379 l 215 0 l 22 0 l 157 961 l 393 961 q 624 898 547 961 q 700 718 700 835 m 288 518 l 340 518 q 465 574 426 518 q 503 711 503 631 q 475 794 503 768 q 389 819 447 819 l 331 819 l 288 518 m 319 -99 q 382 -123 358 -99 q 406 -183 406 -147 q 395 -239 406 -212 q 357 -314 385 -265 l 286 -437 l 194 -437 l 250 -275 q 217 -208 217 -249 q 247 -129 217 -160 q 319 -99 276 -99 z "},"Ȑ":{"ha":704,"x_min":22,"x_max":700,"o":"m 700 718 q 654 542 700 618 q 517 421 608 467 l 656 0 l 456 0 l 342 379 l 268 379 l 215 0 l 22 0 l 157 961 l 393 961 q 624 898 547 961 q 700 718 700 835 m 288 518 l 340 518 q 465 574 426 518 q 503 711 503 631 q 475 794 503 768 q 389 819 447 819 l 331 819 l 288 518 m 319 1357 l 397 1089 l 290 1047 l 178 1299 l 319 1357 m 518 1356 l 586 1092 l 481 1054 l 376 1301 l 518 1356 z "},"Ṛ":{"ha":704,"x_min":22,"x_max":700,"o":"m 700 718 q 654 542 700 618 q 517 421 608 467 l 656 0 l 456 0 l 342 379 l 268 379 l 215 0 l 22 0 l 157 961 l 393 961 q 624 898 547 961 q 700 718 700 835 m 288 518 l 340 518 q 465 574 426 518 q 503 711 503 631 q 475 794 503 768 q 389 819 447 819 l 331 819 l 288 518 m 314 -90 q 387 -117 361 -90 q 413 -187 413 -143 q 377 -278 413 -243 q 290 -314 342 -314 q 217 -287 243 -314 q 190 -217 190 -261 q 226 -126 190 -161 q 314 -90 263 -90 z "},"Ȓ":{"ha":704,"x_min":22,"x_max":700,"o":"m 700 718 q 654 542 700 618 q 517 421 608 467 l 656 0 l 456 0 l 342 379 l 268 379 l 215 0 l 22 0 l 157 961 l 393 961 q 624 898 547 961 q 700 718 700 835 m 288 518 l 340 518 q 465 574 426 518 q 503 711 503 631 q 475 794 503 768 q 389 819 447 819 l 331 819 l 288 518 m 238 1089 q 319 1247 261 1188 q 464 1307 378 1307 q 596 1245 553 1307 q 633 1083 639 1183 l 529 1069 q 450 1174 522 1174 q 338 1064 374 1174 l 238 1089 z "},"Ɍ":{"ha":717,"x_min":15,"x_max":713,"o":"m 713 718 q 667 542 713 618 q 529 421 621 467 l 668 0 l 468 0 l 354 379 l 281 379 l 228 0 l 35 0 l 88 381 l 15 381 l 36 518 l 107 518 l 169 961 l 406 961 q 636 898 560 961 q 713 718 713 835 m 343 819 l 300 518 l 353 518 q 477 574 439 518 q 515 711 515 631 q 488 794 515 768 q 401 819 460 819 l 343 819 z "},"Ɽ":{"ha":704,"x_min":11,"x_max":700,"o":"m 700 718 q 654 542 700 618 q 517 421 608 467 l 656 0 l 456 0 l 342 379 l 268 379 l 215 0 l 206 -85 q 204 -103 204 -92 q 251 -158 204 -158 q 290 -153 274 -158 q 332 -133 306 -147 l 381 -249 q 213 -304 304 -304 q 64 -255 117 -304 q 11 -111 11 -206 q 14 -67 11 -97 l 22 0 l 157 961 l 393 961 q 624 898 547 961 q 700 718 700 835 m 288 518 l 340 518 q 465 574 426 518 q 503 711 503 631 q 475 794 503 768 q 389 819 447 819 l 331 819 l 288 518 z "},"S":{"ha":650,"x_min":-35,"x_max":679,"o":"m 417 983 q 679 860 579 983 l 578 760 q 504 817 542 799 q 421 836 467 836 q 325 800 361 836 q 289 708 289 764 q 316 636 289 664 q 424 569 343 608 q 563 464 518 522 q 608 311 608 406 q 563 142 608 218 q 438 22 518 65 q 254 -22 357 -22 q -35 114 76 -22 l 75 215 q 160 149 118 171 q 257 126 201 126 q 369 169 326 126 q 411 283 411 213 q 382 369 411 336 q 272 440 353 401 q 134 541 175 488 q 93 682 93 594 q 135 834 93 765 q 250 943 176 903 q 417 983 324 983 z "},"Ś":{"ha":650,"x_min":-35,"x_max":679,"o":"m 417 983 q 679 860 579 983 l 578 760 q 504 817 542 799 q 421 836 467 836 q 325 800 361 836 q 289 708 289 764 q 316 636 289 664 q 424 569 343 608 q 563 464 518 522 q 608 311 608 406 q 563 142 608 218 q 438 22 518 65 q 254 -22 357 -22 q -35 114 76 -22 l 75 215 q 160 149 118 171 q 257 126 201 126 q 369 169 326 126 q 411 283 411 213 q 382 369 411 336 q 272 440 353 401 q 134 541 175 488 q 93 682 93 594 q 135 834 93 765 q 250 943 176 903 q 417 983 324 983 m 547 1292 l 614 1154 l 328 1040 l 283 1131 l 547 1292 z "},"Ꞌ":{"ha":299,"x_min":97,"x_max":321,"o":"m 97 471 l 144 961 l 321 961 l 226 471 l 97 471 z "},"Š":{"ha":650,"x_min":-35,"x_max":679,"o":"m 417 983 q 679 860 579 983 l 578 760 q 504 817 542 799 q 421 836 467 836 q 325 800 361 836 q 289 708 289 764 q 316 636 289 664 q 424 569 343 608 q 563 464 518 522 q 608 311 608 406 q 563 142 608 218 q 438 22 518 65 q 254 -22 357 -22 q -35 114 76 -22 l 75 215 q 160 149 118 171 q 257 126 201 126 q 369 169 326 126 q 411 283 411 213 q 382 369 411 336 q 272 440 353 401 q 134 541 175 488 q 93 682 93 594 q 135 834 93 765 q 250 943 176 903 q 417 983 324 983 m 600 1293 l 669 1217 l 482 1043 l 369 1043 l 226 1226 l 301 1293 l 438 1176 l 600 1293 z "},"Ş":{"ha":650,"x_min":-35,"x_max":679,"o":"m 424 569 q 563 464 518 522 q 608 311 608 406 q 573 160 608 229 q 474 44 538 90 q 325 -17 410 -3 l 317 -76 q 392 -111 367 -82 q 418 -187 418 -140 q 372 -303 418 -253 q 228 -354 325 -354 q 157 -342 189 -354 q 103 -312 125 -331 l 158 -229 q 225 -247 190 -247 q 269 -234 253 -247 q 285 -196 285 -221 q 263 -160 285 -171 q 188 -150 242 -150 l 218 -21 q -35 114 65 -8 l 75 215 q 160 149 118 171 q 257 126 201 126 q 369 169 326 126 q 411 283 411 213 q 382 369 411 336 q 272 440 353 401 q 134 541 175 488 q 93 682 93 594 q 135 834 93 765 q 250 943 176 903 q 417 983 324 983 q 679 860 579 983 l 578 760 q 504 817 542 799 q 421 836 467 836 q 325 800 361 836 q 289 708 289 764 q 316 636 289 664 q 424 569 343 608 z "},"Ŝ":{"ha":650,"x_min":-35,"x_max":679,"o":"m 417 983 q 679 860 579 983 l 578 760 q 504 817 542 799 q 421 836 467 836 q 325 800 361 836 q 289 708 289 764 q 316 636 289 664 q 424 569 343 608 q 563 464 518 522 q 608 311 608 406 q 563 142 608 218 q 438 22 518 65 q 254 -22 357 -22 q -35 114 76 -22 l 75 215 q 160 149 118 171 q 257 126 201 126 q 369 169 326 126 q 411 283 411 213 q 382 369 411 336 q 272 440 353 401 q 134 541 175 488 q 93 682 93 594 q 135 834 93 765 q 250 943 176 903 q 417 983 324 983 m 276 1053 l 207 1129 l 394 1303 l 507 1303 l 649 1119 l 575 1053 l 438 1168 l 276 1053 z "},"Ș":{"ha":650,"x_min":-35,"x_max":679,"o":"m 417 983 q 679 860 579 983 l 578 760 q 504 817 542 799 q 421 836 467 836 q 325 800 361 836 q 289 708 289 764 q 316 636 289 664 q 424 569 343 608 q 563 464 518 522 q 608 311 608 406 q 563 142 608 218 q 438 22 518 65 q 254 -22 357 -22 q -35 114 76 -22 l 75 215 q 160 149 118 171 q 257 126 201 126 q 369 169 326 126 q 411 283 411 213 q 382 369 411 336 q 272 440 353 401 q 134 541 175 488 q 93 682 93 594 q 135 834 93 765 q 250 943 176 903 q 417 983 324 983 m 261 -99 q 324 -123 300 -99 q 347 -183 347 -147 q 337 -239 347 -212 q 299 -314 326 -265 l 228 -437 l 136 -437 l 192 -275 q 158 -208 158 -249 q 188 -129 158 -160 q 261 -99 218 -99 z "},"Ṡ":{"ha":650,"x_min":-35,"x_max":679,"o":"m 417 983 q 679 860 579 983 l 578 760 q 504 817 542 799 q 421 836 467 836 q 325 800 361 836 q 289 708 289 764 q 316 636 289 664 q 424 569 343 608 q 563 464 518 522 q 608 311 608 406 q 563 142 608 218 q 438 22 518 65 q 254 -22 357 -22 q -35 114 76 -22 l 75 215 q 160 149 118 171 q 257 126 201 126 q 369 169 326 126 q 411 283 411 213 q 382 369 411 336 q 272 440 353 401 q 134 541 175 488 q 93 682 93 594 q 135 834 93 765 q 250 943 176 903 q 417 983 324 983 m 433 1063 q 360 1089 386 1063 q 335 1160 335 1115 q 370 1251 335 1215 q 457 1286 406 1286 q 531 1260 504 1286 q 557 1189 557 1233 q 521 1098 557 1133 q 433 1063 485 1063 z "},"Ṣ":{"ha":650,"x_min":-35,"x_max":679,"o":"m 417 983 q 679 860 579 983 l 578 760 q 504 817 542 799 q 421 836 467 836 q 325 800 361 836 q 289 708 289 764 q 316 636 289 664 q 424 569 343 608 q 563 464 518 522 q 608 311 608 406 q 563 142 608 218 q 438 22 518 65 q 254 -22 357 -22 q -35 114 76 -22 l 75 215 q 160 149 118 171 q 257 126 201 126 q 369 169 326 126 q 411 283 411 213 q 382 369 411 336 q 272 440 353 401 q 134 541 175 488 q 93 682 93 594 q 135 834 93 765 q 250 943 176 903 q 417 983 324 983 m 256 -90 q 328 -117 303 -90 q 354 -187 354 -143 q 319 -278 354 -243 q 232 -314 283 -314 q 158 -287 185 -314 q 132 -217 132 -261 q 168 -126 132 -161 q 256 -90 204 -90 z "},"ẞ":{"ha":764,"x_min":22,"x_max":761,"o":"m 438 982 q 761 883 596 982 l 747 788 l 532 531 q 670 460 618 514 q 722 313 722 407 q 682 136 722 211 q 571 20 642 61 q 408 -21 500 -21 q 264 15 319 -21 l 338 142 q 400 129 363 129 q 488 178 456 129 q 521 306 521 226 q 483 404 521 372 q 363 442 446 436 l 379 556 l 588 807 q 435 835 514 835 q 353 803 383 835 q 315 706 324 772 l 217 0 l 22 0 l 121 699 q 219 910 140 838 q 438 982 299 982 z "},"Ə":{"ha":740,"x_min":31,"x_max":724,"o":"m 447 983 q 650 901 576 983 q 724 657 724 819 q 676 317 724 471 q 533 72 629 164 q 297 -21 438 -21 q 99 65 167 -21 q 31 303 31 150 q 39 427 31 368 q 65 556 47 486 l 526 554 q 532 664 532 611 q 503 797 532 757 q 415 836 474 836 q 321 815 365 836 q 229 756 276 793 l 156 864 q 294 954 225 925 q 447 983 364 983 m 307 124 q 424 187 376 124 q 504 413 472 250 l 218 413 q 207 293 207 346 q 231 165 207 207 q 307 124 256 124 z "},"T":{"ha":613,"x_min":69,"x_max":694,"o":"m 694 961 l 653 807 l 465 807 l 351 0 l 157 0 l 271 807 l 69 807 l 92 961 l 694 961 z "},"Ŧ":{"ha":613,"x_min":69,"x_max":694,"o":"m 653 807 l 465 807 l 428 542 l 556 542 l 539 424 l 411 424 l 351 0 l 157 0 l 217 424 l 89 424 l 106 542 l 233 542 l 271 807 l 69 807 l 92 961 l 694 961 l 653 807 z "},"Ť":{"ha":613,"x_min":69,"x_max":694,"o":"m 694 961 l 653 807 l 465 807 l 351 0 l 157 0 l 271 807 l 69 807 l 92 961 l 694 961 m 576 1293 l 646 1217 l 458 1043 l 346 1043 l 203 1226 l 278 1293 l 414 1176 l 576 1293 z "},"Ţ":{"ha":613,"x_min":69,"x_max":694,"o":"m 694 961 l 653 807 l 465 807 l 351 0 l 342 -71 q 416 -107 390 -76 q 442 -185 442 -137 q 394 -302 442 -250 q 250 -354 347 -354 q 181 -342 213 -354 q 126 -312 149 -331 l 181 -225 q 247 -247 214 -247 q 290 -234 274 -247 q 308 -196 307 -221 q 287 -160 310 -171 q 211 -150 264 -150 l 246 0 l 157 0 l 271 807 l 69 807 l 92 961 l 694 961 z "},"Ṱ":{"ha":613,"x_min":-3,"x_max":694,"o":"m 694 961 l 653 807 l 465 807 l 351 0 l 157 0 l 271 807 l 69 807 l 92 961 l 694 961 m 63 -346 l -3 -269 l 185 -90 l 297 -90 l 439 -279 l 360 -346 l 229 -224 l 63 -346 z "},"Ț":{"ha":613,"x_min":69,"x_max":694,"o":"m 694 961 l 653 807 l 465 807 l 351 0 l 157 0 l 271 807 l 69 807 l 92 961 l 694 961 m 243 -99 q 306 -123 282 -99 q 329 -183 329 -147 q 319 -239 329 -212 q 281 -314 308 -265 l 210 -437 l 118 -437 l 174 -275 q 140 -208 140 -249 q 170 -129 140 -160 q 243 -99 200 -99 z "},"Ⱦ":{"ha":615,"x_min":58,"x_max":697,"o":"m 654 813 l 567 813 l 413 501 l 343 0 l 171 0 l 174 22 l 113 -101 l 58 -74 l 200 211 l 283 813 l 71 813 l 93 961 l 574 961 l 615 1046 l 669 1018 l 642 961 l 697 961 l 654 813 m 439 692 l 499 813 l 456 813 l 439 692 z "},"Ṫ":{"ha":613,"x_min":69,"x_max":694,"o":"m 694 961 l 653 807 l 465 807 l 351 0 l 157 0 l 271 807 l 69 807 l 92 961 l 694 961 m 410 1063 q 337 1089 363 1063 q 311 1160 311 1115 q 347 1251 311 1215 q 433 1286 382 1286 q 507 1260 481 1286 q 533 1189 533 1233 q 497 1098 533 1133 q 410 1063 461 1063 z "},"Ṭ":{"ha":613,"x_min":69,"x_max":694,"o":"m 694 961 l 653 807 l 465 807 l 351 0 l 157 0 l 271 807 l 69 807 l 92 961 l 694 961 m 238 -90 q 310 -117 285 -90 q 336 -187 336 -143 q 301 -278 336 -243 q 214 -314 265 -314 q 140 -287 167 -314 q 114 -217 114 -261 q 150 -126 114 -161 q 238 -90 186 -90 z "},"Ƭ":{"ha":679,"x_min":63,"x_max":763,"o":"m 721 807 l 532 807 l 418 0 l 225 0 l 338 807 l 274 807 q 210 736 210 807 q 222 654 210 699 l 92 607 q 63 742 63 676 q 123 901 63 842 q 288 961 183 961 l 763 961 l 721 807 z "},"Ṯ":{"ha":613,"x_min":54,"x_max":694,"o":"m 694 961 l 653 807 l 465 807 l 351 0 l 157 0 l 271 807 l 69 807 l 92 961 l 694 961 m 75 -122 l 419 -122 l 400 -256 l 54 -256 l 75 -122 z "},"Ƽ":{"ha":624,"x_min":-21,"x_max":626,"o":"m 218 -22 q -21 115 63 -22 l 93 206 q 153 143 122 164 q 228 122 185 122 q 353 201 314 122 q 393 382 393 281 q 372 465 393 440 q 313 489 351 489 q 204 456 263 489 l 76 456 l 149 961 l 626 961 l 585 822 l 303 822 l 268 586 q 400 622 333 622 q 533 563 485 622 q 582 390 582 503 q 540 185 582 279 q 417 34 499 90 q 218 -22 335 -22 z "},"Ƅ":{"ha":696,"x_min":43,"x_max":678,"o":"m 386 625 q 601 557 524 625 q 678 361 678 489 q 642 185 678 267 q 524 51 606 103 q 318 0 443 0 l 43 0 l 139 697 l 64 764 q 211 961 140 838 l 371 961 l 324 625 l 386 625 m 319 146 q 439 206 403 146 q 475 357 475 265 q 449 454 475 424 q 368 485 422 485 l 304 485 l 256 146 l 319 146 z "},"Ƨ":{"ha":628,"x_min":13,"x_max":675,"o":"m 435 982 q 610 923 544 982 q 675 761 675 864 q 642 613 675 674 q 545 511 608 553 q 381 431 482 469 q 249 349 286 394 q 213 228 213 304 q 237 155 213 181 q 307 129 261 129 q 506 218 400 129 l 589 110 q 275 -21 461 -21 q 83 46 154 -21 q 13 221 13 113 q 83 438 13 356 q 294 569 154 521 q 403 618 365 594 q 459 672 442 642 q 476 751 476 703 q 394 835 476 835 q 210 758 303 835 l 138 865 q 276 953 204 924 q 435 982 349 982 z "},"Ʈ":{"ha":613,"x_min":69,"x_max":694,"o":"m 340 -85 q 339 -103 339 -92 q 386 -158 339 -158 q 424 -153 408 -158 q 467 -133 440 -147 l 515 -249 q 347 -304 439 -304 q 199 -255 251 -304 q 146 -111 146 -206 q 149 -67 146 -97 l 157 0 l 271 807 l 69 807 l 92 961 l 694 961 l 653 807 l 465 807 l 351 0 l 350 0 l 340 -85 z "},"U":{"ha":735,"x_min":44,"x_max":758,"o":"m 660 267 q 606 121 649 186 q 490 17 563 56 q 319 -21 417 -21 q 115 49 185 -21 q 44 228 44 119 q 47 275 44 258 l 144 961 l 338 961 l 239 256 q 236 225 236 233 q 260 155 236 181 q 332 129 283 129 q 424 167 390 129 q 467 263 457 204 l 564 961 l 758 961 l 660 267 z "},"Ú":{"ha":735,"x_min":44,"x_max":758,"o":"m 660 267 q 606 121 649 186 q 490 17 563 56 q 319 -21 417 -21 q 115 49 185 -21 q 44 228 44 119 q 47 275 44 258 l 144 961 l 338 961 l 239 256 q 236 225 236 233 q 260 155 236 181 q 332 129 283 129 q 424 167 390 129 q 467 263 457 204 l 564 961 l 758 961 l 660 267 m 583 1292 l 650 1154 l 364 1040 l 319 1131 l 583 1292 z "},"Ʉ":{"ha":771,"x_min":63,"x_max":817,"o":"m 800 699 l 739 699 l 678 267 q 624 121 667 186 q 508 17 581 56 q 338 -21 435 -21 q 133 49 203 -21 q 63 228 63 119 q 65 275 63 258 l 125 699 l 64 699 l 81 814 l 142 814 l 163 961 l 356 961 l 335 814 l 561 814 l 582 961 l 776 961 l 756 814 l 817 814 l 800 699 m 546 699 l 319 699 l 257 256 q 254 225 254 233 q 278 155 254 181 q 350 129 301 129 q 442 167 408 129 q 485 263 475 204 l 546 699 z "},"Ŭ":{"ha":735,"x_min":44,"x_max":758,"o":"m 660 267 q 606 121 649 186 q 490 17 563 56 q 319 -21 417 -21 q 115 49 185 -21 q 44 228 44 119 q 47 275 44 258 l 144 961 l 338 961 l 239 256 q 236 225 236 233 q 260 155 236 181 q 332 129 283 129 q 424 167 390 129 q 467 263 457 204 l 564 961 l 758 961 l 660 267 m 461 1046 q 334 1099 378 1046 q 290 1233 290 1153 l 292 1256 l 392 1272 q 471 1181 399 1181 q 537 1206 510 1181 q 579 1276 564 1232 l 681 1250 q 606 1102 661 1158 q 461 1046 550 1046 z "},"Ǔ":{"ha":735,"x_min":44,"x_max":758,"o":"m 660 267 q 606 121 649 186 q 490 17 563 56 q 319 -21 417 -21 q 115 49 185 -21 q 44 228 44 119 q 47 275 44 258 l 144 961 l 338 961 l 239 256 q 236 225 236 233 q 260 155 236 181 q 332 129 283 129 q 424 167 390 129 q 467 263 457 204 l 564 961 l 758 961 l 660 267 m 636 1293 l 706 1217 l 518 1043 l 406 1043 l 263 1226 l 338 1293 l 474 1176 l 636 1293 z "},"Û":{"ha":735,"x_min":44,"x_max":758,"o":"m 660 267 q 606 121 649 186 q 490 17 563 56 q 319 -21 417 -21 q 115 49 185 -21 q 44 228 44 119 q 47 275 44 258 l 144 961 l 338 961 l 239 256 q 236 225 236 233 q 260 155 236 181 q 332 129 283 129 q 424 167 390 129 q 467 263 457 204 l 564 961 l 758 961 l 660 267 m 313 1053 l 243 1129 l 431 1303 l 543 1303 l 685 1119 l 611 1053 l 474 1168 l 313 1053 z "},"Ȕ":{"ha":735,"x_min":44,"x_max":758,"o":"m 660 267 q 606 121 649 186 q 490 17 563 56 q 319 -21 417 -21 q 115 49 185 -21 q 44 228 44 119 q 47 275 44 258 l 144 961 l 338 961 l 239 256 q 236 225 236 233 q 260 155 236 181 q 332 129 283 129 q 424 167 390 129 q 467 263 457 204 l 564 961 l 758 961 l 660 267 m 351 1357 l 429 1089 l 322 1047 l 210 1299 l 351 1357 m 550 1356 l 618 1092 l 513 1054 l 408 1301 l 550 1356 z "},"Ü":{"ha":735,"x_min":44,"x_max":758,"o":"m 660 267 q 606 121 649 186 q 490 17 563 56 q 319 -21 417 -21 q 115 49 185 -21 q 44 228 44 119 q 47 275 44 258 l 144 961 l 338 961 l 239 256 q 236 225 236 233 q 260 155 236 181 q 332 129 283 129 q 424 167 390 129 q 467 263 457 204 l 564 961 l 758 961 l 660 267 m 333 1072 q 270 1096 293 1072 q 247 1157 247 1119 q 279 1238 247 1206 q 354 1269 311 1269 q 418 1246 394 1269 q 442 1183 442 1222 q 410 1104 442 1136 q 333 1072 379 1072 m 600 1072 q 537 1096 560 1072 q 514 1157 514 1119 q 545 1238 514 1206 q 621 1269 576 1269 q 683 1246 660 1269 q 707 1183 707 1222 q 676 1104 707 1136 q 600 1072 644 1072 z "},"Ǘ":{"ha":735,"x_min":44,"x_max":758,"o":"m 660 267 q 606 121 649 186 q 490 17 563 56 q 319 -21 417 -21 q 115 49 185 -21 q 44 228 44 119 q 47 275 44 258 l 144 961 l 338 961 l 239 256 q 236 225 236 233 q 260 155 236 181 q 332 129 283 129 q 424 167 390 129 q 467 263 457 204 l 564 961 l 758 961 l 660 267 m 603 1486 l 694 1390 l 482 1193 l 418 1253 l 603 1486 m 324 1039 q 261 1063 285 1039 q 238 1125 238 1088 q 269 1204 238 1172 q 346 1236 301 1236 q 409 1213 386 1236 q 432 1151 432 1189 q 400 1071 432 1103 q 324 1039 368 1039 m 601 1039 q 539 1063 563 1039 q 515 1125 515 1088 q 548 1204 515 1172 q 624 1236 581 1236 q 687 1213 664 1236 q 710 1151 710 1189 q 678 1071 710 1103 q 601 1039 647 1039 z "},"Ǚ":{"ha":735,"x_min":44,"x_max":758,"o":"m 660 267 q 606 121 649 186 q 490 17 563 56 q 319 -21 417 -21 q 115 49 185 -21 q 44 228 44 119 q 47 275 44 258 l 144 961 l 338 961 l 239 256 q 236 225 236 233 q 260 155 236 181 q 332 129 283 129 q 424 167 390 129 q 467 263 457 204 l 564 961 l 758 961 l 660 267 m 658 1488 l 728 1411 l 540 1238 l 428 1238 l 285 1421 l 360 1488 l 496 1371 l 658 1488 m 322 1039 q 260 1063 283 1039 q 236 1125 236 1088 q 269 1204 236 1172 q 344 1236 301 1236 q 408 1213 385 1236 q 431 1151 431 1189 q 399 1071 431 1103 q 322 1039 368 1039 m 600 1039 q 538 1063 561 1039 q 515 1125 515 1088 q 547 1204 515 1172 q 624 1236 579 1236 q 685 1213 663 1236 q 708 1151 708 1189 q 677 1071 708 1103 q 600 1039 646 1039 z "},"Ǜ":{"ha":735,"x_min":44,"x_max":758,"o":"m 660 267 q 606 121 649 186 q 490 17 563 56 q 319 -21 417 -21 q 115 49 185 -21 q 44 228 44 119 q 47 275 44 258 l 144 961 l 338 961 l 239 256 q 236 225 236 233 q 260 155 236 181 q 332 129 283 129 q 424 167 390 129 q 467 263 457 204 l 564 961 l 758 961 l 660 267 m 432 1482 l 551 1247 l 472 1193 l 315 1397 l 432 1482 m 319 1039 q 257 1063 281 1039 q 233 1125 233 1088 q 265 1204 233 1172 q 342 1236 297 1236 q 405 1213 382 1236 q 428 1151 428 1189 q 396 1071 428 1103 q 319 1039 364 1039 m 597 1039 q 535 1063 558 1039 q 511 1125 511 1088 q 544 1204 511 1172 q 619 1236 576 1236 q 683 1213 660 1236 q 706 1151 706 1189 q 674 1071 706 1103 q 597 1039 643 1039 z "},"Ǖ":{"ha":735,"x_min":44,"x_max":758,"o":"m 660 267 q 606 121 649 186 q 490 17 563 56 q 319 -21 417 -21 q 115 49 185 -21 q 44 228 44 119 q 47 275 44 258 l 144 961 l 338 961 l 239 256 q 236 225 236 233 q 260 155 236 181 q 332 129 283 129 q 424 167 390 129 q 467 263 457 204 l 564 961 l 758 961 l 660 267 m 325 1036 q 262 1060 285 1036 q 239 1121 239 1083 q 271 1201 239 1169 q 346 1233 303 1233 q 410 1210 386 1233 q 433 1147 433 1186 q 402 1068 433 1100 q 325 1036 371 1036 m 592 1036 q 528 1060 551 1036 q 506 1121 506 1083 q 537 1201 506 1169 q 613 1233 568 1233 q 675 1210 651 1233 q 699 1147 699 1186 q 667 1068 699 1100 q 592 1036 636 1036 m 658 1296 l 314 1296 l 333 1429 l 679 1429 l 658 1296 z "},"Ụ":{"ha":735,"x_min":44,"x_max":758,"o":"m 660 267 q 606 121 649 186 q 490 17 563 56 q 319 -21 417 -21 q 115 49 185 -21 q 44 228 44 119 q 47 275 44 258 l 144 961 l 338 961 l 239 256 q 236 225 236 233 q 260 155 236 181 q 332 129 283 129 q 424 167 390 129 q 467 263 457 204 l 564 961 l 758 961 l 660 267 m 299 -90 q 372 -117 346 -90 q 397 -187 397 -143 q 362 -278 397 -243 q 275 -314 326 -314 q 201 -287 228 -314 q 175 -217 175 -261 q 211 -126 175 -161 q 299 -90 247 -90 z "},"Ù":{"ha":735,"x_min":44,"x_max":758,"o":"m 660 267 q 606 121 649 186 q 490 17 563 56 q 319 -21 417 -21 q 115 49 185 -21 q 44 228 44 119 q 47 275 44 258 l 144 961 l 338 961 l 239 256 q 236 225 236 233 q 260 155 236 181 q 332 129 283 129 q 424 167 390 129 q 467 263 457 204 l 564 961 l 758 961 l 660 267 m 415 1289 l 644 1128 l 588 1042 l 333 1154 l 415 1289 z "},"Ủ":{"ha":735,"x_min":44,"x_max":758,"o":"m 660 267 q 606 121 649 186 q 490 17 563 56 q 319 -21 417 -21 q 115 49 185 -21 q 44 228 44 119 q 47 275 44 258 l 144 961 l 338 961 l 239 256 q 236 225 236 233 q 260 155 236 181 q 332 129 283 129 q 424 167 390 129 q 467 263 457 204 l 564 961 l 758 961 l 660 267 m 425 1182 q 491 1201 469 1186 q 513 1247 513 1215 q 475 1283 513 1283 q 408 1265 447 1283 l 386 1351 q 507 1383 439 1383 q 605 1349 569 1383 q 640 1260 640 1315 q 526 1122 640 1147 l 518 1061 l 410 1061 l 425 1182 z "},"Ư":{"ha":828,"x_min":44,"x_max":925,"o":"m 925 992 q 875 843 925 894 q 733 786 825 792 l 660 267 q 606 121 649 186 q 490 17 563 56 q 319 -21 417 -21 q 115 49 185 -21 q 44 228 44 119 q 47 275 44 258 l 144 961 l 338 961 l 239 256 q 236 225 236 233 q 260 155 236 181 q 332 129 283 129 q 424 167 390 129 q 467 263 457 204 l 564 961 l 758 961 l 747 888 q 800 992 800 906 q 794 1056 800 1019 l 917 1071 q 925 992 925 1042 z "},"Ứ":{"ha":828,"x_min":44,"x_max":925,"o":"m 650 1154 l 364 1040 l 319 1131 l 583 1292 l 650 1154 m 925 992 q 875 843 925 894 q 733 786 825 792 l 660 267 q 606 121 649 186 q 490 17 563 56 q 319 -21 417 -21 q 115 49 185 -21 q 44 228 44 119 q 47 275 44 258 l 144 961 l 338 961 l 239 256 q 236 225 236 233 q 260 155 236 181 q 332 129 283 129 q 424 167 390 129 q 467 263 457 204 l 564 961 l 758 961 l 747 888 q 800 992 800 906 q 794 1056 800 1019 l 917 1071 q 925 992 925 1042 z "},"Ự":{"ha":828,"x_min":44,"x_max":925,"o":"m 925 992 q 875 843 925 894 q 733 786 825 792 l 660 267 q 606 121 649 186 q 490 17 563 56 q 319 -21 417 -21 q 115 49 185 -21 q 44 228 44 119 q 47 275 44 258 l 144 961 l 338 961 l 239 256 q 236 225 236 233 q 260 155 236 181 q 332 129 283 129 q 424 167 390 129 q 467 263 457 204 l 564 961 l 758 961 l 747 888 q 800 992 800 906 q 794 1056 800 1019 l 917 1071 q 925 992 925 1042 m 299 -90 q 372 -117 346 -90 q 397 -187 397 -143 q 362 -278 397 -243 q 275 -314 326 -314 q 201 -287 228 -314 q 175 -217 175 -261 q 211 -126 175 -161 q 299 -90 247 -90 z "},"Ừ":{"ha":828,"x_min":44,"x_max":925,"o":"m 644 1128 l 588 1042 l 333 1154 l 415 1289 l 644 1128 m 925 992 q 875 843 925 894 q 733 786 825 792 l 660 267 q 606 121 649 186 q 490 17 563 56 q 319 -21 417 -21 q 115 49 185 -21 q 44 228 44 119 q 47 275 44 258 l 144 961 l 338 961 l 239 256 q 236 225 236 233 q 260 155 236 181 q 332 129 283 129 q 424 167 390 129 q 467 263 457 204 l 564 961 l 758 961 l 747 888 q 800 992 800 906 q 794 1056 800 1019 l 917 1071 q 925 992 925 1042 z "},"Ử":{"ha":828,"x_min":44,"x_max":925,"o":"m 475 1283 q 408 1265 447 1283 l 386 1351 q 507 1383 439 1383 q 605 1349 569 1383 q 640 1260 640 1315 q 526 1122 640 1147 l 518 1061 l 410 1061 l 425 1182 q 491 1201 469 1186 q 513 1247 513 1215 q 475 1283 513 1283 m 925 992 q 875 843 925 894 q 733 786 825 792 l 660 267 q 606 121 649 186 q 490 17 563 56 q 319 -21 417 -21 q 115 49 185 -21 q 44 228 44 119 q 47 275 44 258 l 144 961 l 338 961 l 239 256 q 236 225 236 233 q 260 155 236 181 q 332 129 283 129 q 424 167 390 129 q 467 263 457 204 l 564 961 l 758 961 l 747 888 q 800 992 800 906 q 794 1056 800 1019 l 917 1071 q 925 992 925 1042 z "},"Ữ":{"ha":828,"x_min":44,"x_max":925,"o":"m 408 1129 q 376 1115 392 1129 q 342 1068 361 1100 l 258 1118 q 331 1225 289 1183 q 418 1267 374 1267 q 463 1256 444 1267 q 503 1228 482 1246 q 515 1217 506 1225 q 534 1206 525 1210 q 551 1203 543 1203 q 583 1217 568 1203 q 615 1261 597 1231 l 700 1214 q 626 1106 668 1144 q 539 1067 583 1067 q 499 1076 517 1067 q 458 1103 482 1085 q 433 1121 446 1113 q 408 1129 419 1129 m 925 992 q 875 843 925 894 q 733 786 825 792 l 660 267 q 606 121 649 186 q 490 17 563 56 q 319 -21 417 -21 q 115 49 185 -21 q 44 228 44 119 q 47 275 44 258 l 144 961 l 338 961 l 239 256 q 236 225 236 233 q 260 155 236 181 q 332 129 283 129 q 424 167 390 129 q 467 263 457 204 l 564 961 l 758 961 l 747 888 q 800 992 800 906 q 794 1056 800 1019 l 917 1071 q 925 992 925 1042 z "},"Ű":{"ha":735,"x_min":44,"x_max":758,"o":"m 660 267 q 606 121 649 186 q 490 17 563 56 q 319 -21 417 -21 q 115 49 185 -21 q 44 228 44 119 q 47 275 44 258 l 144 961 l 338 961 l 239 256 q 236 225 236 233 q 260 155 236 181 q 332 129 283 129 q 424 167 390 129 q 467 263 457 204 l 564 961 l 758 961 l 660 267 m 644 1357 l 757 1288 l 585 1047 l 497 1094 l 644 1357 m 446 1356 l 560 1292 l 397 1054 l 307 1097 l 446 1356 z "},"Ȗ":{"ha":735,"x_min":44,"x_max":758,"o":"m 660 267 q 606 121 649 186 q 490 17 563 56 q 319 -21 417 -21 q 115 49 185 -21 q 44 228 44 119 q 47 275 44 258 l 144 961 l 338 961 l 239 256 q 236 225 236 233 q 260 155 236 181 q 332 129 283 129 q 424 167 390 129 q 467 263 457 204 l 564 961 l 758 961 l 660 267 m 269 1089 q 351 1247 293 1188 q 496 1307 410 1307 q 628 1245 585 1307 q 665 1083 671 1183 l 561 1069 q 482 1174 554 1174 q 369 1064 406 1174 l 269 1089 z "},"Ū":{"ha":735,"x_min":44,"x_max":758,"o":"m 660 267 q 606 121 649 186 q 490 17 563 56 q 319 -21 417 -21 q 115 49 185 -21 q 44 228 44 119 q 47 275 44 258 l 144 961 l 338 961 l 239 256 q 236 225 236 233 q 260 155 236 181 q 332 129 283 129 q 424 167 390 129 q 467 263 457 204 l 564 961 l 758 961 l 660 267 m 638 1090 l 293 1090 l 313 1224 l 658 1224 l 638 1090 z "},"Ų":{"ha":735,"x_min":44,"x_max":758,"o":"m 758 961 l 660 267 q 588 98 646 171 q 436 -4 531 25 q 325 -81 356 -43 q 294 -158 294 -118 q 347 -212 294 -212 q 419 -201 378 -212 l 392 -324 q 311 -333 349 -333 q 199 -297 243 -333 q 156 -200 156 -260 q 191 -95 156 -140 q 288 -19 226 -50 q 106 58 168 -11 q 44 228 44 126 q 47 275 44 260 l 144 961 l 338 961 l 239 256 q 236 225 236 233 q 260 155 236 181 q 332 129 283 129 q 424 167 390 129 q 467 263 457 204 l 564 961 l 758 961 z "},"Ʊ":{"ha":806,"x_min":50,"x_max":818,"o":"m 346 -21 q 128 74 206 -21 q 50 331 50 169 q 101 617 50 492 q 278 818 153 742 l 139 818 l 160 961 l 449 961 l 429 824 q 289 626 331 776 q 247 308 247 475 q 357 125 247 125 q 492 206 440 125 q 567 403 544 286 q 590 636 590 519 q 572 752 590 711 q 510 825 553 793 l 529 961 l 818 961 l 799 817 l 658 817 q 749 711 719 771 q 779 564 779 651 q 729 282 779 417 q 581 63 679 147 q 346 -21 483 -21 z "},"Ů":{"ha":735,"x_min":44,"x_max":758,"o":"m 660 267 q 606 121 649 186 q 490 17 563 56 q 319 -21 417 -21 q 115 49 185 -21 q 44 228 44 119 q 47 275 44 258 l 144 961 l 338 961 l 239 256 q 236 225 236 233 q 260 155 236 181 q 332 129 283 129 q 424 167 390 129 q 467 263 457 204 l 564 961 l 758 961 l 660 267 m 501 1363 q 606 1321 568 1363 q 644 1213 644 1279 q 594 1078 644 1132 q 464 1025 543 1025 q 359 1067 397 1025 q 321 1175 321 1108 q 372 1308 321 1254 q 501 1363 422 1363 m 493 1268 q 446 1242 463 1268 q 429 1179 429 1217 q 472 1119 429 1119 q 519 1146 501 1119 q 536 1208 536 1172 q 493 1268 536 1268 z "},"Ũ":{"ha":735,"x_min":44,"x_max":758,"o":"m 660 267 q 606 121 649 186 q 490 17 563 56 q 319 -21 417 -21 q 115 49 185 -21 q 44 228 44 119 q 47 275 44 258 l 144 961 l 338 961 l 239 256 q 236 225 236 233 q 260 155 236 181 q 332 129 283 129 q 424 167 390 129 q 467 263 457 204 l 564 961 l 758 961 l 660 267 m 539 1067 q 499 1076 517 1067 q 458 1103 482 1085 q 433 1121 446 1113 q 408 1129 419 1129 q 376 1115 390 1129 q 342 1068 361 1100 l 258 1118 q 331 1225 289 1183 q 418 1267 374 1267 q 463 1256 444 1267 q 503 1228 482 1246 q 515 1217 506 1225 q 534 1206 525 1210 q 551 1203 543 1203 q 583 1217 568 1203 q 615 1261 597 1231 l 700 1214 q 626 1106 668 1144 q 539 1067 583 1067 z "},"Ṹ":{"ha":735,"x_min":44,"x_max":758,"o":"m 660 267 q 606 121 649 186 q 490 17 563 56 q 319 -21 417 -21 q 115 49 185 -21 q 44 228 44 119 q 47 275 44 258 l 144 961 l 338 961 l 239 256 q 236 225 236 233 q 260 155 236 181 q 332 129 283 129 q 424 167 390 129 q 467 263 457 204 l 564 961 l 758 961 l 660 267 m 533 1051 q 494 1060 511 1051 q 453 1088 476 1069 q 427 1106 440 1097 q 403 1114 414 1114 q 370 1099 385 1114 q 336 1053 356 1085 l 253 1103 q 326 1210 283 1168 q 413 1251 368 1251 q 458 1241 439 1251 q 497 1213 476 1231 q 510 1202 500 1210 q 528 1191 519 1194 q 546 1188 538 1188 q 577 1201 563 1188 q 610 1246 592 1215 l 694 1199 q 620 1090 663 1129 q 533 1051 578 1051 m 594 1531 l 661 1393 l 375 1279 l 331 1369 l 594 1531 z "},"V":{"ha":661,"x_min":76,"x_max":751,"o":"m 751 961 l 408 0 l 161 0 l 76 961 l 274 961 l 307 164 l 553 961 l 751 961 z "},"Ʋ":{"ha":733,"x_min":43,"x_max":735,"o":"m 582 983 q 695 943 656 983 q 735 826 735 903 q 731 775 735 803 l 675 363 q 550 81 650 182 q 299 -21 450 -21 q 111 48 179 -21 q 43 224 43 117 q 47 274 43 249 l 144 961 l 338 961 l 240 264 q 238 225 238 236 q 315 129 238 129 q 421 189 378 129 q 481 369 464 249 l 539 799 l 539 810 q 514 840 539 840 q 485 835 496 840 l 472 960 q 582 983 524 983 z "},"Ʌ":{"ha":685,"x_min":-60,"x_max":640,"o":"m 543 961 l 640 0 l 446 0 l 406 818 l 144 0 l -60 0 l 308 961 l 543 961 z "},"W":{"ha":967,"x_min":89,"x_max":1033,"o":"m 1033 961 l 772 0 l 521 0 l 535 763 l 339 0 l 89 0 l 100 961 l 286 961 l 250 154 l 467 961 l 667 961 l 651 154 l 850 961 l 1033 961 z "},"Ẃ":{"ha":967,"x_min":89,"x_max":1033,"o":"m 1033 961 l 772 0 l 521 0 l 535 763 l 339 0 l 89 0 l 100 961 l 286 961 l 250 154 l 467 961 l 667 961 l 651 154 l 850 961 l 1033 961 m 703 1292 l 769 1154 l 483 1040 l 439 1131 l 703 1292 z "},"Ŵ":{"ha":967,"x_min":89,"x_max":1033,"o":"m 1033 961 l 772 0 l 521 0 l 535 763 l 339 0 l 89 0 l 100 961 l 286 961 l 250 154 l 467 961 l 667 961 l 651 154 l 850 961 l 1033 961 m 432 1053 l 363 1129 l 550 1303 l 663 1303 l 804 1119 l 731 1053 l 593 1168 l 432 1053 z "},"Ẅ":{"ha":967,"x_min":89,"x_max":1033,"o":"m 1033 961 l 772 0 l 521 0 l 535 763 l 339 0 l 89 0 l 100 961 l 286 961 l 250 154 l 467 961 l 667 961 l 651 154 l 850 961 l 1033 961 m 453 1072 q 390 1096 413 1072 q 367 1157 367 1119 q 399 1238 367 1206 q 474 1269 431 1269 q 538 1246 514 1269 q 561 1183 561 1222 q 530 1104 561 1136 q 453 1072 499 1072 m 719 1072 q 656 1096 679 1072 q 633 1157 633 1119 q 665 1238 633 1206 q 740 1269 696 1269 q 803 1246 779 1269 q 826 1183 826 1222 q 795 1104 826 1136 q 719 1072 764 1072 z "},"Ẁ":{"ha":967,"x_min":89,"x_max":1033,"o":"m 1033 961 l 772 0 l 521 0 l 535 763 l 339 0 l 89 0 l 100 961 l 286 961 l 250 154 l 467 961 l 667 961 l 651 154 l 850 961 l 1033 961 m 535 1289 l 764 1128 l 707 1042 l 453 1154 l 535 1289 z "},"Ⱳ":{"ha":1011,"x_min":89,"x_max":1144,"o":"m 339 0 l 535 763 l 521 0 l 772 0 l 961 781 q 1021 840 975 840 q 1072 822 1044 840 l 1144 926 q 1003 982 1086 982 q 871 939 922 982 q 799 799 819 896 l 651 153 l 667 961 l 467 961 l 250 154 l 286 961 l 100 961 l 89 0 l 339 0 z "},"Ƿ":{"ha":676,"x_min":22,"x_max":711,"o":"m 519 983 q 658 923 606 983 q 711 756 711 863 q 665 563 711 643 q 540 429 618 483 q 346 322 463 375 l 256 282 l 215 0 l 22 0 l 157 961 l 351 961 l 344 911 q 519 983 419 983 m 325 456 q 463 574 415 506 q 510 740 510 643 q 438 840 510 840 q 326 783 379 840 l 276 429 l 325 456 z "},"X":{"ha":656,"x_min":-58,"x_max":726,"o":"m 726 961 l 460 518 l 610 0 l 407 0 l 331 393 l 153 0 l -58 0 l 228 511 l 93 961 l 296 961 l 357 624 l 517 961 l 726 961 z "},"Y":{"ha":669,"x_min":74,"x_max":764,"o":"m 764 961 l 431 363 l 381 0 l 186 0 l 238 363 l 74 961 l 276 961 l 356 515 l 556 961 l 764 961 z "},"Ý":{"ha":669,"x_min":74,"x_max":764,"o":"m 764 961 l 431 363 l 381 0 l 186 0 l 238 363 l 74 961 l 276 961 l 356 515 l 556 961 l 764 961 m 549 1292 l 615 1154 l 329 1040 l 285 1131 l 549 1292 z "},"Ŷ":{"ha":669,"x_min":74,"x_max":764,"o":"m 764 961 l 431 363 l 381 0 l 186 0 l 238 363 l 74 961 l 276 961 l 356 515 l 556 961 l 764 961 m 278 1053 l 208 1129 l 396 1303 l 508 1303 l 650 1119 l 576 1053 l 439 1168 l 278 1053 z "},"Ÿ":{"ha":669,"x_min":74,"x_max":764,"o":"m 764 961 l 431 363 l 381 0 l 186 0 l 238 363 l 74 961 l 276 961 l 356 515 l 556 961 l 764 961 m 299 1072 q 235 1096 258 1072 q 213 1157 213 1119 q 244 1238 213 1206 q 319 1269 276 1269 q 383 1246 360 1269 q 407 1183 407 1222 q 376 1104 407 1136 q 299 1072 344 1072 m 565 1072 q 502 1096 525 1072 q 479 1157 479 1119 q 510 1238 479 1206 q 586 1269 542 1269 q 649 1246 625 1269 q 672 1183 672 1222 q 641 1104 672 1136 q 565 1072 610 1072 z "},"Ỵ":{"ha":669,"x_min":74,"x_max":764,"o":"m 764 961 l 431 363 l 381 0 l 186 0 l 238 363 l 74 961 l 276 961 l 356 515 l 556 961 l 764 961 m 267 -90 q 340 -117 314 -90 q 365 -187 365 -143 q 330 -278 365 -243 q 243 -314 294 -314 q 169 -287 196 -314 q 143 -217 143 -261 q 179 -126 143 -161 q 267 -90 215 -90 z "},"Ỳ":{"ha":669,"x_min":74,"x_max":764,"o":"m 764 961 l 431 363 l 381 0 l 186 0 l 238 363 l 74 961 l 276 961 l 356 515 l 556 961 l 764 961 m 381 1289 l 610 1128 l 553 1042 l 299 1154 l 381 1289 z "},"Ƴ":{"ha":696,"x_min":74,"x_max":829,"o":"m 238 363 l 74 963 l 276 963 l 354 515 l 482 819 q 563 944 515 906 q 688 983 611 983 q 829 926 769 983 l 757 822 q 706 840 729 840 q 671 828 685 840 q 642 785 657 817 l 432 364 l 381 0 l 186 0 l 238 363 z "},"Ỷ":{"ha":669,"x_min":74,"x_max":764,"o":"m 764 961 l 431 363 l 381 0 l 186 0 l 238 363 l 74 961 l 276 961 l 356 515 l 556 961 l 764 961 m 390 1182 q 456 1201 435 1186 q 478 1247 478 1215 q 440 1283 478 1283 q 374 1265 413 1283 l 351 1351 q 472 1383 404 1383 q 570 1349 535 1383 q 606 1260 606 1315 q 492 1122 606 1147 l 483 1061 l 375 1061 l 390 1182 z "},"Ȳ":{"ha":669,"x_min":74,"x_max":764,"o":"m 764 961 l 431 363 l 381 0 l 186 0 l 238 363 l 74 961 l 276 961 l 356 515 l 556 961 l 764 961 m 603 1090 l 258 1090 l 278 1224 l 624 1224 l 603 1090 z "},"Ʀ":{"ha":710,"x_min":24,"x_max":682,"o":"m 682 554 q 637 378 682 454 q 500 257 592 303 l 639 -162 l 438 -162 l 325 215 l 247 217 l 217 0 l 24 0 l 158 961 l 351 961 l 329 799 l 375 799 q 606 735 529 799 q 682 554 682 671 m 267 356 l 322 356 q 447 411 410 356 q 485 549 485 467 q 457 631 485 606 q 371 657 429 657 l 308 657 l 267 356 z "},"Ɏ":{"ha":671,"x_min":42,"x_max":765,"o":"m 703 849 l 747 849 l 731 733 l 639 733 l 432 363 l 382 0 l 188 0 l 239 363 l 136 733 l 42 733 l 60 849 l 104 849 l 74 961 l 263 961 l 286 849 l 521 849 l 574 961 l 765 961 l 703 849 m 357 503 l 465 733 l 310 733 l 357 503 z "},"Ỹ":{"ha":669,"x_min":74,"x_max":764,"o":"m 764 961 l 431 363 l 381 0 l 186 0 l 238 363 l 74 961 l 276 961 l 356 515 l 556 961 l 764 961 m 504 1067 q 465 1076 482 1067 q 424 1103 447 1085 q 398 1121 411 1113 q 374 1129 385 1129 q 341 1115 356 1129 q 307 1068 326 1100 l 224 1118 q 297 1225 254 1183 q 383 1267 339 1267 q 428 1256 410 1267 q 468 1228 447 1246 q 481 1217 471 1225 q 499 1206 490 1210 q 517 1203 508 1203 q 548 1217 533 1203 q 581 1261 563 1231 l 665 1214 q 591 1106 633 1144 q 504 1067 549 1067 z "},"Z":{"ha":611,"x_min":-33,"x_max":661,"o":"m -33 0 l -12 149 l 428 807 l 110 807 l 135 961 l 661 961 l 638 811 l 197 158 l 560 160 l 514 0 l -33 0 z "},"Ź":{"ha":611,"x_min":-33,"x_max":661,"o":"m -33 0 l -12 149 l 428 807 l 110 807 l 135 961 l 661 961 l 638 811 l 197 158 l 560 160 l 514 0 l -33 0 m 528 1292 l 594 1154 l 308 1040 l 264 1131 l 528 1292 z "},"Ž":{"ha":611,"x_min":-33,"x_max":661,"o":"m -33 0 l -12 149 l 428 807 l 110 807 l 135 961 l 661 961 l 638 811 l 197 158 l 560 160 l 514 0 l -33 0 m 581 1293 l 650 1217 l 463 1043 l 350 1043 l 207 1226 l 282 1293 l 418 1176 l 581 1293 z "},"Ż":{"ha":611,"x_min":-33,"x_max":661,"o":"m -33 0 l -12 149 l 428 807 l 110 807 l 135 961 l 661 961 l 638 811 l 197 158 l 560 160 l 514 0 l -33 0 m 414 1063 q 341 1089 367 1063 q 315 1160 315 1115 q 351 1251 315 1215 q 438 1286 386 1286 q 511 1260 485 1286 q 538 1189 538 1233 q 501 1098 538 1133 q 414 1063 465 1063 z "},"Ẓ":{"ha":611,"x_min":-33,"x_max":661,"o":"m -33 0 l -12 149 l 428 807 l 110 807 l 135 961 l 661 961 l 638 811 l 197 158 l 560 160 l 514 0 l -33 0 m 224 -90 q 297 -117 271 -90 q 322 -187 322 -143 q 287 -278 322 -243 q 200 -314 251 -314 q 126 -287 153 -314 q 100 -217 100 -261 q 136 -126 100 -161 q 224 -90 172 -90 z "},"Ȥ":{"ha":600,"x_min":-33,"x_max":661,"o":"m 638 811 l 197 158 l 544 160 l 522 0 l 510 -79 q 426 -246 493 -187 q 263 -304 358 -304 q 169 -288 207 -304 q 101 -246 131 -272 l 179 -136 q 216 -156 200 -150 q 251 -162 232 -162 q 301 -141 282 -162 q 326 -78 321 -119 l 338 0 l -33 0 l -12 149 l 428 807 l 110 807 l 135 961 l 661 961 l 638 811 z "},"Ƶ":{"ha":611,"x_min":-33,"x_max":661,"o":"m 661 961 l 638 811 l 451 542 l 546 542 l 528 415 l 365 415 l 188 158 l 560 160 l 514 0 l -33 0 l -12 149 l 171 415 l 72 415 l 90 542 l 257 542 l 439 807 l 110 807 l 135 961 l 661 961 z "},"ʙ":{"ha":617,"x_min":18,"x_max":596,"o":"m 596 581 q 432 401 596 436 q 541 357 507 393 q 575 258 575 321 q 490 67 575 135 q 261 0 404 0 l 18 0 l 119 728 q 356 757 240 757 q 532 709 468 757 q 596 581 596 661 m 310 444 q 386 476 360 444 q 413 565 413 507 q 396 615 413 600 q 342 631 379 631 q 285 625 307 631 l 260 444 l 310 444 m 261 129 q 355 163 319 129 q 390 267 390 196 q 370 321 390 306 q 304 336 350 336 l 244 336 l 215 129 l 261 129 z "},"ɢ":{"ha":649,"x_min":35,"x_max":629,"o":"m 403 758 q 629 658 542 758 l 526 560 q 468 605 497 590 q 400 619 439 619 q 269 513 313 619 q 226 256 226 406 q 247 150 226 182 q 311 118 268 118 q 393 139 351 118 l 415 299 l 338 299 l 340 425 l 604 425 l 553 63 q 433 3 499 25 q 294 -19 367 -19 q 100 51 165 -19 q 35 257 35 121 q 81 521 35 407 q 212 697 128 635 q 403 758 296 758 z "},"ʛ":{"ha":640,"x_min":35,"x_max":858,"o":"m 706 1050 q 858 996 793 1050 l 789 883 q 718 907 753 907 q 674 887 689 907 q 653 824 658 867 l 629 658 l 536 569 q 466 608 496 596 q 400 619 436 619 q 269 513 313 619 q 226 256 226 406 q 247 150 226 182 q 311 118 268 118 q 393 139 351 118 l 415 299 l 338 299 l 340 425 l 604 425 l 553 63 q 433 3 499 25 q 294 -19 367 -19 q 100 51 165 -19 q 35 257 35 121 q 81 521 35 407 q 210 697 128 635 q 394 758 292 758 q 479 743 438 758 l 496 851 q 706 1050 528 1050 z "},"ʜ":{"ha":664,"x_min":18,"x_max":646,"o":"m 357 0 l 400 303 l 246 303 l 204 0 l 18 0 l 121 736 l 307 736 l 267 446 l 419 446 l 460 736 l 646 736 l 543 0 l 357 0 z "},"ɪ":{"ha":378,"x_min":-36,"x_max":413,"o":"m 393 601 l 314 601 l 250 135 l 329 135 l 310 0 l -36 0 l -17 135 l 64 135 l 128 601 l 47 601 l 67 736 l 413 736 l 393 601 z "},"ʟ":{"ha":504,"x_min":18,"x_max":474,"o":"m 307 736 l 228 149 l 474 149 l 431 0 l 18 0 l 121 736 l 307 736 z "},"ɴ":{"ha":665,"x_min":18,"x_max":649,"o":"m 546 0 l 326 0 l 229 567 q 225 404 229 479 q 208 235 221 329 l 175 0 l 18 0 l 121 736 l 339 736 l 436 171 q 438 315 436 253 q 450 444 440 376 l 492 736 l 649 736 l 546 0 z "},"ɶ":{"ha":863,"x_min":35,"x_max":899,"o":"m 860 603 l 606 603 q 636 465 636 542 l 636 439 l 810 439 l 793 308 l 618 308 q 538 133 593 201 l 813 133 l 793 0 l 390 0 q 281 -22 339 -22 q 100 52 165 -22 q 35 264 35 126 q 74 502 35 389 q 194 687 113 615 q 393 758 275 758 q 497 736 457 758 l 899 736 l 860 603 m 224 239 q 296 119 224 119 q 387 181 351 119 q 438 331 422 243 q 454 499 454 418 q 381 615 454 615 q 290 554 325 615 q 239 406 254 493 q 224 239 224 319 z "},"ʀ":{"ha":614,"x_min":18,"x_max":575,"o":"m 575 526 q 440 299 575 367 l 547 0 l 367 0 l 282 264 l 232 264 l 194 0 l 18 0 l 121 736 l 324 736 q 575 526 575 736 m 249 390 l 292 390 q 369 425 343 390 q 396 524 396 460 q 376 585 396 567 q 317 603 357 603 l 279 603 l 249 390 z "},"ʁ":{"ha":614,"x_min":18,"x_max":650,"o":"m 458 431 q 539 272 539 381 q 459 69 539 139 q 240 0 379 0 l 18 0 l 121 736 l 297 736 l 261 471 l 315 471 l 468 736 l 650 736 l 458 431 m 247 132 q 331 165 301 132 q 360 264 360 197 q 340 324 360 306 q 282 343 319 343 l 243 343 l 214 132 l 247 132 z "},"ʏ":{"ha":586,"x_min":50,"x_max":642,"o":"m 642 736 l 372 271 l 335 0 l 149 0 l 186 269 l 50 736 l 244 736 l 296 401 l 446 736 l 642 736 z "},"a":{"ha":668,"x_min":31,"x_max":649,"o":"m 413 758 q 649 693 529 758 l 578 197 q 574 154 574 172 q 580 125 574 136 q 603 106 586 114 l 544 -19 q 453 14 490 -12 q 404 89 417 40 q 323 6 365 33 q 222 -22 281 -22 q 81 47 132 -22 q 31 236 31 117 q 70 488 31 369 q 195 683 110 607 q 413 758 281 758 m 399 621 q 299 563 339 621 q 239 417 258 506 q 219 233 219 328 q 235 146 219 172 q 282 119 250 119 q 339 145 313 119 q 396 218 365 171 l 450 611 q 399 621 424 621 z "},"á":{"ha":668,"x_min":31,"x_max":649,"o":"m 413 758 q 649 693 529 758 l 578 197 q 574 154 574 172 q 580 125 574 136 q 603 106 586 114 l 544 -19 q 453 14 490 -12 q 404 89 417 40 q 323 6 365 33 q 222 -22 281 -22 q 81 47 132 -22 q 31 236 31 117 q 70 488 31 369 q 195 683 110 607 q 413 758 281 758 m 399 621 q 299 563 339 621 q 239 417 258 506 q 219 233 219 328 q 235 146 219 172 q 282 119 250 119 q 339 145 313 119 q 396 218 365 171 l 450 611 q 399 621 424 621 m 550 1138 l 615 999 l 331 872 l 282 963 l 550 1138 z "},"ă":{"ha":668,"x_min":31,"x_max":657,"o":"m 413 758 q 649 693 529 758 l 578 197 q 574 154 574 172 q 580 125 574 136 q 603 106 586 114 l 544 -19 q 453 14 490 -12 q 404 89 417 40 q 323 6 365 33 q 222 -22 281 -22 q 81 47 132 -22 q 31 236 31 117 q 70 488 31 369 q 195 683 110 607 q 413 758 281 758 m 399 621 q 299 563 339 621 q 239 417 258 506 q 219 233 219 328 q 235 146 219 172 q 282 119 250 119 q 339 145 313 119 q 396 218 365 171 l 450 611 q 399 621 424 621 m 440 883 q 312 938 357 883 q 267 1081 267 992 q 268 1107 267 1097 l 369 1122 q 447 1018 376 1018 q 515 1047 486 1018 q 560 1126 543 1075 l 657 1101 q 582 943 638 1003 q 440 883 526 883 z "},"ắ":{"ha":668,"x_min":31,"x_max":678,"o":"m 586 1340 l 678 1244 l 465 1047 l 401 1107 l 586 1340 m 436 833 q 309 887 353 833 q 265 1021 265 940 l 267 1043 l 367 1060 q 446 968 374 968 q 512 994 485 968 q 554 1064 539 1019 l 656 1038 q 581 890 636 946 q 436 833 525 833 m 413 758 q 649 693 529 758 l 578 197 q 574 154 574 172 q 580 125 574 136 q 603 106 586 114 l 544 -19 q 453 14 490 -12 q 404 89 417 40 q 323 6 365 33 q 222 -22 281 -22 q 81 47 132 -22 q 31 236 31 117 q 70 488 31 369 q 195 683 110 607 q 413 758 281 758 m 399 621 q 299 563 339 621 q 239 417 258 506 q 219 233 219 328 q 235 146 219 172 q 282 119 250 119 q 339 145 313 119 q 396 218 365 171 l 450 611 q 399 621 424 621 z "},"ặ":{"ha":668,"x_min":31,"x_max":657,"o":"m 413 758 q 649 693 529 758 l 578 197 q 574 154 574 172 q 580 125 574 136 q 603 106 586 114 l 544 -19 q 453 14 490 -12 q 404 89 417 40 q 323 6 365 33 q 222 -22 281 -22 q 81 47 132 -22 q 31 236 31 117 q 70 488 31 369 q 195 683 110 607 q 413 758 281 758 m 399 621 q 299 563 339 621 q 239 417 258 506 q 219 233 219 328 q 235 146 219 172 q 282 119 250 119 q 339 145 313 119 q 396 218 365 171 l 450 611 q 399 621 424 621 m 440 883 q 312 938 357 883 q 267 1081 267 992 q 268 1107 267 1097 l 369 1122 q 447 1018 376 1018 q 515 1047 486 1018 q 560 1126 543 1075 l 657 1101 q 582 943 638 1003 q 440 883 526 883 m 290 -90 q 363 -117 338 -90 q 389 -187 389 -143 q 353 -278 389 -243 q 267 -314 318 -314 q 193 -287 219 -314 q 167 -217 167 -261 q 203 -126 167 -161 q 290 -90 239 -90 z "},"ằ":{"ha":668,"x_min":31,"x_max":657,"o":"m 404 1336 l 524 1101 l 444 1047 l 288 1251 l 404 1336 m 438 833 q 310 887 354 833 q 267 1021 267 940 l 268 1043 l 368 1060 q 447 968 375 968 q 513 994 486 968 q 556 1064 540 1019 l 657 1038 q 582 890 638 946 q 438 833 526 833 m 413 758 q 649 693 529 758 l 578 197 q 574 154 574 172 q 580 125 574 136 q 603 106 586 114 l 544 -19 q 453 14 490 -12 q 404 89 417 40 q 323 6 365 33 q 222 -22 281 -22 q 81 47 132 -22 q 31 236 31 117 q 70 488 31 369 q 195 683 110 607 q 413 758 281 758 m 399 621 q 299 563 339 621 q 239 417 258 506 q 219 233 219 328 q 235 146 219 172 q 282 119 250 119 q 339 145 313 119 q 396 218 365 171 l 450 611 q 399 621 424 621 z "},"ẳ":{"ha":668,"x_min":31,"x_max":657,"o":"m 413 758 q 649 693 529 758 l 578 197 q 574 154 574 172 q 580 125 574 136 q 603 106 586 114 l 544 -19 q 453 14 490 -12 q 404 89 417 40 q 323 6 365 33 q 222 -22 281 -22 q 81 47 132 -22 q 31 236 31 117 q 70 488 31 369 q 195 683 110 607 q 413 758 281 758 m 399 621 q 299 563 339 621 q 239 417 258 506 q 219 233 219 328 q 235 146 219 172 q 282 119 250 119 q 339 145 313 119 q 396 218 365 171 l 450 611 q 399 621 424 621 m 438 833 q 310 887 354 833 q 267 1021 267 940 l 268 1043 l 368 1060 q 447 968 375 968 q 513 994 486 968 q 556 1064 540 1019 l 657 1038 q 582 890 638 946 q 438 833 526 833 m 421 1178 q 488 1197 467 1182 q 510 1243 510 1211 q 472 1279 510 1279 q 406 1261 442 1279 l 383 1347 q 503 1379 436 1379 q 602 1345 567 1379 q 638 1256 638 1311 q 608 1163 638 1197 q 524 1118 578 1129 l 513 1043 l 403 1043 l 421 1178 z "},"ẵ":{"ha":668,"x_min":31,"x_max":690,"o":"m 531 1099 q 492 1107 510 1099 q 451 1132 475 1115 q 424 1151 435 1144 q 401 1157 413 1157 q 369 1143 383 1157 q 336 1099 354 1129 l 253 1147 q 326 1249 285 1210 q 411 1289 367 1289 q 456 1279 438 1289 q 496 1253 475 1269 q 520 1234 510 1240 q 543 1228 531 1228 q 574 1241 560 1228 q 607 1283 589 1254 l 690 1238 q 617 1135 658 1172 q 531 1099 575 1099 m 431 833 q 303 887 347 833 q 260 1021 260 940 l 261 1043 l 361 1060 q 440 968 368 968 q 506 994 479 968 q 549 1064 533 1019 l 650 1038 q 575 890 631 946 q 431 833 519 833 m 413 758 q 649 693 529 758 l 578 197 q 574 154 574 172 q 580 125 574 136 q 603 106 586 114 l 544 -19 q 453 14 490 -12 q 404 89 417 40 q 323 6 365 33 q 222 -22 281 -22 q 81 47 132 -22 q 31 236 31 117 q 70 488 31 369 q 195 683 110 607 q 413 758 281 758 m 399 621 q 299 563 339 621 q 239 417 258 506 q 219 233 219 328 q 235 146 219 172 q 282 119 250 119 q 339 145 313 119 q 396 218 365 171 l 450 611 q 399 621 424 621 z "},"ǎ":{"ha":668,"x_min":31,"x_max":676,"o":"m 413 758 q 649 693 529 758 l 578 197 q 574 154 574 172 q 580 125 574 136 q 603 106 586 114 l 544 -19 q 453 14 490 -12 q 404 89 417 40 q 323 6 365 33 q 222 -22 281 -22 q 81 47 132 -22 q 31 236 31 117 q 70 488 31 369 q 195 683 110 607 q 413 758 281 758 m 399 621 q 299 563 339 621 q 239 417 258 506 q 219 233 219 328 q 235 146 219 172 q 282 119 250 119 q 339 145 313 119 q 396 218 365 171 l 450 611 q 399 621 424 621 m 613 1111 l 676 1036 l 490 857 l 376 857 l 240 1036 l 313 1111 l 444 989 l 613 1111 z "},"â":{"ha":668,"x_min":31,"x_max":668,"o":"m 413 758 q 649 693 529 758 l 578 197 q 574 154 574 172 q 580 125 574 136 q 603 106 586 114 l 544 -19 q 453 14 490 -12 q 404 89 417 40 q 323 6 365 33 q 222 -22 281 -22 q 81 47 132 -22 q 31 236 31 117 q 70 488 31 369 q 195 683 110 607 q 413 758 281 758 m 399 621 q 299 563 339 621 q 239 417 258 506 q 219 233 219 328 q 235 146 219 172 q 282 119 250 119 q 339 145 313 119 q 396 218 365 171 l 450 611 q 399 621 424 621 m 292 872 l 226 949 l 415 1128 l 528 1128 l 668 939 l 589 872 l 458 994 l 292 872 z "},"ấ":{"ha":668,"x_min":31,"x_max":840,"o":"m 749 1299 l 840 1203 l 628 1006 l 564 1065 l 749 1299 m 279 815 l 210 892 l 397 1065 l 510 1065 l 651 882 l 578 815 l 440 931 l 279 815 m 413 758 q 649 693 529 758 l 578 197 q 574 154 574 172 q 580 125 574 136 q 603 106 586 114 l 544 -19 q 453 14 490 -12 q 404 89 417 40 q 323 6 365 33 q 222 -22 281 -22 q 81 47 132 -22 q 31 236 31 117 q 70 488 31 369 q 195 683 110 607 q 413 758 281 758 m 399 621 q 299 563 339 621 q 239 417 258 506 q 219 233 219 328 q 235 146 219 172 q 282 119 250 119 q 339 145 313 119 q 396 218 365 171 l 450 611 q 399 621 424 621 z "},"ậ":{"ha":668,"x_min":31,"x_max":668,"o":"m 413 758 q 649 693 529 758 l 578 197 q 574 154 574 172 q 580 125 574 136 q 603 106 586 114 l 544 -19 q 453 14 490 -12 q 404 89 417 40 q 323 6 365 33 q 222 -22 281 -22 q 81 47 132 -22 q 31 236 31 117 q 70 488 31 369 q 195 683 110 607 q 413 758 281 758 m 399 621 q 299 563 339 621 q 239 417 258 506 q 219 233 219 328 q 235 146 219 172 q 282 119 250 119 q 339 145 313 119 q 396 218 365 171 l 450 611 q 399 621 424 621 m 292 872 l 226 949 l 415 1128 l 528 1128 l 668 939 l 589 872 l 458 994 l 292 872 m 290 -90 q 363 -117 338 -90 q 389 -187 389 -143 q 353 -278 389 -243 q 267 -314 318 -314 q 193 -287 219 -314 q 167 -217 167 -261 q 203 -126 167 -161 q 290 -90 239 -90 z "},"ầ":{"ha":668,"x_min":31,"x_max":649,"o":"m 221 1294 l 340 1060 l 261 1006 l 104 1210 l 221 1294 m 276 815 l 207 892 l 394 1065 l 507 1065 l 649 882 l 575 815 l 438 931 l 276 815 m 413 758 q 649 693 529 758 l 578 197 q 574 154 574 172 q 580 125 574 136 q 603 106 586 114 l 544 -19 q 453 14 490 -12 q 404 89 417 40 q 323 6 365 33 q 222 -22 281 -22 q 81 47 132 -22 q 31 236 31 117 q 70 488 31 369 q 195 683 110 607 q 413 758 281 758 m 399 621 q 299 563 339 621 q 239 417 258 506 q 219 233 219 328 q 235 146 219 172 q 282 119 250 119 q 339 145 313 119 q 396 218 365 171 l 450 611 q 399 621 424 621 z "},"ẩ":{"ha":668,"x_min":31,"x_max":815,"o":"m 413 758 q 649 693 529 758 l 578 197 q 574 154 574 172 q 580 125 574 136 q 603 106 586 114 l 544 -19 q 453 14 490 -12 q 404 89 417 40 q 323 6 365 33 q 222 -22 281 -22 q 81 47 132 -22 q 31 236 31 117 q 70 488 31 369 q 195 683 110 607 q 413 758 281 758 m 399 621 q 299 563 339 621 q 239 417 258 506 q 219 233 219 328 q 235 146 219 172 q 282 119 250 119 q 339 145 313 119 q 396 218 365 171 l 450 611 q 399 621 424 621 m 278 815 l 208 892 l 396 1065 l 508 1065 l 650 882 l 576 815 l 439 931 l 278 815 m 599 1163 q 666 1181 644 1167 q 688 1228 688 1196 q 650 1264 688 1264 q 583 1246 619 1264 l 561 1332 q 681 1364 614 1364 q 780 1330 744 1364 q 815 1240 815 1296 q 785 1148 815 1182 q 701 1103 756 1114 l 690 1028 l 581 1028 l 599 1163 z "},"ẫ":{"ha":668,"x_min":31,"x_max":697,"o":"m 538 1100 q 499 1108 517 1100 q 458 1133 482 1117 q 431 1152 442 1146 q 408 1158 419 1158 q 376 1144 390 1158 q 343 1100 361 1131 l 260 1149 q 333 1251 292 1211 q 418 1290 374 1290 q 463 1281 444 1290 q 503 1254 482 1271 q 527 1235 517 1242 q 550 1229 538 1229 q 581 1242 567 1229 q 614 1285 596 1256 l 697 1239 q 624 1137 665 1174 q 538 1100 582 1100 m 279 808 l 210 885 l 397 1058 l 510 1058 l 651 875 l 578 808 l 440 924 l 279 808 m 413 758 q 649 693 529 758 l 578 197 q 574 154 574 172 q 580 125 574 136 q 603 106 586 114 l 544 -19 q 453 14 490 -12 q 404 89 417 40 q 323 6 365 33 q 222 -22 281 -22 q 81 47 132 -22 q 31 236 31 117 q 70 488 31 369 q 195 683 110 607 q 413 758 281 758 m 399 621 q 299 563 339 621 q 239 417 258 506 q 219 233 219 328 q 235 146 219 172 q 282 119 250 119 q 339 145 313 119 q 396 218 365 171 l 450 611 q 399 621 424 621 z "},"ȁ":{"ha":668,"x_min":31,"x_max":649,"o":"m 413 758 q 649 693 529 758 l 578 197 q 574 154 574 172 q 580 125 574 136 q 603 106 586 114 l 544 -19 q 453 14 490 -12 q 404 89 417 40 q 323 6 365 33 q 222 -22 281 -22 q 81 47 132 -22 q 31 236 31 117 q 70 488 31 369 q 195 683 110 607 q 413 758 281 758 m 399 621 q 299 563 339 621 q 239 417 258 506 q 219 233 219 328 q 235 146 219 172 q 282 119 250 119 q 339 145 313 119 q 396 218 365 171 l 450 611 q 399 621 424 621 m 329 1182 l 407 914 l 300 872 l 188 1124 l 329 1182 m 528 1181 l 596 917 l 490 879 l 386 1126 l 528 1181 z "},"ä":{"ha":668,"x_min":31,"x_max":683,"o":"m 413 758 q 649 693 529 758 l 578 197 q 574 154 574 172 q 580 125 574 136 q 603 106 586 114 l 544 -19 q 453 14 490 -12 q 404 89 417 40 q 323 6 365 33 q 222 -22 281 -22 q 81 47 132 -22 q 31 236 31 117 q 70 488 31 369 q 195 683 110 607 q 413 758 281 758 m 399 621 q 299 563 339 621 q 239 417 258 506 q 219 233 219 328 q 235 146 219 172 q 282 119 250 119 q 339 145 313 119 q 396 218 365 171 l 450 611 q 399 621 424 621 m 310 897 q 247 921 269 897 q 224 982 224 944 q 256 1063 224 1031 q 331 1094 288 1094 q 394 1071 371 1094 q 418 1008 418 1047 q 387 929 418 961 q 310 897 356 897 m 576 897 q 513 921 536 897 q 490 982 490 944 q 522 1063 490 1031 q 597 1094 553 1094 q 660 1071 636 1094 q 683 1008 683 1047 q 652 929 683 961 q 576 897 621 897 z "},"ǟ":{"ha":668,"x_min":31,"x_max":672,"o":"m 413 758 q 649 693 529 758 l 578 197 q 574 154 574 172 q 580 125 574 136 q 603 106 586 114 l 544 -19 q 453 14 490 -12 q 404 89 417 40 q 323 6 365 33 q 222 -22 281 -22 q 81 47 132 -22 q 31 236 31 117 q 70 488 31 369 q 195 683 110 607 q 413 758 281 758 m 399 621 q 299 563 339 621 q 239 417 258 506 q 219 233 219 328 q 235 146 219 172 q 282 119 250 119 q 339 145 313 119 q 396 218 365 171 l 450 611 q 399 621 424 621 m 299 846 q 235 869 258 846 q 213 931 213 893 q 244 1011 213 979 q 319 1043 276 1043 q 383 1019 360 1043 q 407 957 407 996 q 376 878 407 910 q 299 846 344 846 m 565 846 q 502 869 525 846 q 479 931 479 893 q 510 1011 479 979 q 586 1043 542 1043 q 649 1019 625 1043 q 672 957 672 996 q 641 878 672 910 q 565 846 610 846 m 632 1111 l 288 1111 l 307 1244 l 653 1244 l 632 1111 z "},"ȧ":{"ha":668,"x_min":31,"x_max":649,"o":"m 413 758 q 649 693 529 758 l 578 197 q 574 154 574 172 q 580 125 574 136 q 603 106 586 114 l 544 -19 q 453 14 490 -12 q 404 89 417 40 q 323 6 365 33 q 222 -22 281 -22 q 81 47 132 -22 q 31 236 31 117 q 70 488 31 369 q 195 683 110 607 q 413 758 281 758 m 399 621 q 299 563 339 621 q 239 417 258 506 q 219 233 219 328 q 235 146 219 172 q 282 119 250 119 q 339 145 313 119 q 396 218 365 171 l 450 611 q 399 621 424 621 m 440 888 q 367 914 393 888 q 342 985 342 940 q 377 1076 342 1040 q 464 1111 413 1111 q 538 1085 511 1111 q 564 1014 564 1058 q 528 923 564 958 q 440 888 492 888 z "},"ạ":{"ha":668,"x_min":31,"x_max":649,"o":"m 413 758 q 649 693 529 758 l 578 197 q 574 154 574 172 q 580 125 574 136 q 603 106 586 114 l 544 -19 q 453 14 490 -12 q 404 89 417 40 q 323 6 365 33 q 222 -22 281 -22 q 81 47 132 -22 q 31 236 31 117 q 70 488 31 369 q 195 683 110 607 q 413 758 281 758 m 399 621 q 299 563 339 621 q 239 417 258 506 q 219 233 219 328 q 235 146 219 172 q 282 119 250 119 q 339 145 313 119 q 396 218 365 171 l 450 611 q 399 621 424 621 m 290 -90 q 363 -117 338 -90 q 389 -187 389 -143 q 353 -278 389 -243 q 267 -314 318 -314 q 193 -287 219 -314 q 167 -217 167 -261 q 203 -126 167 -161 q 290 -90 239 -90 z "},"ǡ":{"ha":668,"x_min":31,"x_max":658,"o":"m 413 758 q 649 693 529 758 l 578 197 q 574 154 574 172 q 580 125 574 136 q 603 106 586 114 l 544 -19 q 453 14 490 -12 q 404 89 417 40 q 323 6 365 33 q 222 -22 281 -22 q 81 47 132 -22 q 31 236 31 117 q 70 488 31 369 q 195 683 110 607 q 413 758 281 758 m 399 621 q 299 563 339 621 q 239 417 258 506 q 219 233 219 328 q 235 146 219 172 q 282 119 250 119 q 339 145 313 119 q 396 218 365 171 l 450 611 q 399 621 424 621 m 432 831 q 359 857 385 831 q 333 928 333 883 q 369 1019 333 983 q 456 1054 404 1054 q 529 1028 503 1054 q 556 957 556 1001 q 519 866 556 901 q 432 831 483 831 m 638 1106 l 293 1106 l 313 1239 l 658 1239 l 638 1106 z "},"à":{"ha":668,"x_min":31,"x_max":649,"o":"m 413 758 q 649 693 529 758 l 578 197 q 574 154 574 172 q 580 125 574 136 q 603 106 586 114 l 544 -19 q 453 14 490 -12 q 404 89 417 40 q 323 6 365 33 q 222 -22 281 -22 q 81 47 132 -22 q 31 236 31 117 q 70 488 31 369 q 195 683 110 607 q 413 758 281 758 m 399 621 q 299 563 339 621 q 239 417 258 506 q 219 233 219 328 q 235 146 219 172 q 282 119 250 119 q 339 145 313 119 q 396 218 365 171 l 450 611 q 399 621 424 621 m 394 1135 l 621 960 l 565 874 l 310 999 l 394 1135 z "},"ả":{"ha":668,"x_min":31,"x_max":649,"o":"m 413 758 q 649 693 529 758 l 578 197 q 574 154 574 172 q 580 125 574 136 q 603 106 586 114 l 544 -19 q 453 14 490 -12 q 404 89 417 40 q 323 6 365 33 q 222 -22 281 -22 q 81 47 132 -22 q 31 236 31 117 q 70 488 31 369 q 195 683 110 607 q 413 758 281 758 m 399 621 q 299 563 339 621 q 239 417 258 506 q 219 233 219 328 q 235 146 219 172 q 282 119 250 119 q 339 145 313 119 q 396 218 365 171 l 450 611 q 399 621 424 621 m 394 978 q 462 997 440 982 q 483 1043 483 1011 q 446 1079 483 1079 q 379 1061 415 1079 l 357 1147 q 476 1179 410 1179 q 576 1145 540 1179 q 611 1056 611 1111 q 581 963 611 997 q 497 918 551 929 l 486 843 l 376 843 l 394 978 z "},"ȃ":{"ha":668,"x_min":31,"x_max":649,"o":"m 413 758 q 649 693 529 758 l 578 197 q 574 154 574 172 q 580 125 574 136 q 603 106 586 114 l 544 -19 q 453 14 490 -12 q 404 89 417 40 q 323 6 365 33 q 222 -22 281 -22 q 81 47 132 -22 q 31 236 31 117 q 70 488 31 369 q 195 683 110 607 q 413 758 281 758 m 399 621 q 299 563 339 621 q 239 417 258 506 q 219 233 219 328 q 235 146 219 172 q 282 119 250 119 q 339 145 313 119 q 396 218 365 171 l 450 611 q 399 621 424 621 m 238 864 q 319 1022 261 963 q 464 1082 378 1082 q 596 1020 553 1082 q 633 858 639 958 l 529 844 q 450 949 522 949 q 338 839 374 949 l 238 864 z "},"ɑ":{"ha":669,"x_min":32,"x_max":653,"o":"m 578 197 q 574 157 574 175 q 581 126 574 139 q 604 106 588 114 l 544 -19 q 455 14 492 -12 q 406 89 418 40 q 324 6 367 33 q 222 -22 281 -22 q 82 47 132 -22 q 32 236 32 117 q 68 488 32 368 q 174 683 104 608 q 342 757 244 757 q 429 737 393 757 q 489 669 465 717 l 521 736 l 653 736 l 578 197 m 440 549 q 363 619 417 619 q 288 562 321 619 q 238 415 256 504 q 219 233 219 325 q 235 146 219 172 q 283 119 251 119 q 339 145 313 119 q 396 218 365 171 l 440 549 z "},"ɒ":{"ha":669,"x_min":17,"x_max":638,"o":"m 447 758 q 588 689 538 758 q 638 500 638 619 q 601 248 638 368 q 495 53 565 128 q 328 -21 425 -21 q 240 -1 276 -21 q 181 67 204 19 l 149 0 l 17 0 l 92 539 q 96 579 96 563 q 89 610 96 597 q 65 631 82 622 l 125 756 q 215 722 178 749 q 264 647 251 696 q 346 731 303 703 q 447 758 389 758 m 307 117 q 381 174 349 117 q 432 322 414 232 q 450 503 450 411 q 434 590 450 564 q 386 617 418 617 q 331 591 357 617 q 274 518 304 565 l 229 188 q 307 117 253 117 z "},"ā":{"ha":668,"x_min":31,"x_max":649,"o":"m 413 758 q 649 693 529 758 l 578 197 q 574 154 574 172 q 580 125 574 136 q 603 106 586 114 l 544 -19 q 453 14 490 -12 q 404 89 417 40 q 323 6 365 33 q 222 -22 281 -22 q 81 47 132 -22 q 31 236 31 117 q 70 488 31 369 q 195 683 110 607 q 413 758 281 758 m 399 621 q 299 563 339 621 q 239 417 258 506 q 219 233 219 328 q 235 146 219 172 q 282 119 250 119 q 339 145 313 119 q 396 218 365 171 l 450 611 q 399 621 424 621 m 614 915 l 269 915 l 289 1049 l 635 1049 l 614 915 z "},"ą":{"ha":668,"x_min":31,"x_max":649,"o":"m 578 197 q 574 154 574 172 q 580 125 574 136 q 603 106 586 114 l 544 -19 q 390 -183 390 -92 q 443 -232 390 -232 q 510 -225 471 -232 l 482 -343 q 403 -353 440 -353 q 295 -314 336 -353 q 254 -208 254 -275 q 301 -83 254 -137 q 449 17 347 -28 q 404 89 414 47 q 323 6 365 33 q 222 -22 281 -22 q 81 47 132 -22 q 31 236 31 117 q 70 488 31 369 q 195 683 110 607 q 413 758 281 758 q 649 693 529 758 l 578 197 m 450 611 q 399 621 424 621 q 299 563 339 621 q 239 417 258 506 q 219 233 219 328 q 235 146 219 172 q 282 119 250 119 q 339 145 313 119 q 396 218 365 171 l 450 611 z "},"å":{"ha":668,"x_min":31,"x_max":649,"o":"m 413 758 q 649 693 529 758 l 578 197 q 574 154 574 172 q 580 125 574 136 q 603 106 586 114 l 544 -19 q 453 14 490 -12 q 404 89 417 40 q 323 6 365 33 q 222 -22 281 -22 q 81 47 132 -22 q 31 236 31 117 q 70 488 31 369 q 195 683 110 607 q 413 758 281 758 m 399 621 q 299 563 339 621 q 239 417 258 506 q 219 233 219 328 q 235 146 219 172 q 282 119 250 119 q 339 145 313 119 q 396 218 365 171 l 450 611 q 399 621 424 621 m 474 1188 q 578 1146 540 1188 q 617 1038 617 1104 q 566 903 617 957 q 436 850 515 850 q 331 892 369 850 q 293 1000 293 933 q 344 1133 293 1079 q 474 1188 394 1188 m 465 1093 q 418 1067 435 1093 q 401 1004 401 1042 q 444 944 401 944 q 491 971 474 944 q 508 1033 508 997 q 465 1093 508 1093 z "},"ǻ":{"ha":668,"x_min":31,"x_max":649,"o":"m 413 758 q 649 693 529 758 l 578 197 q 574 154 574 172 q 580 125 574 136 q 603 106 586 114 l 544 -19 q 453 14 490 -12 q 404 89 417 40 q 323 6 365 33 q 222 -22 281 -22 q 81 47 132 -22 q 31 236 31 117 q 70 488 31 369 q 195 683 110 607 q 413 758 281 758 m 399 621 q 299 563 339 621 q 239 417 258 506 q 219 233 219 328 q 235 146 219 172 q 282 119 250 119 q 339 145 313 119 q 396 218 365 171 l 450 611 q 399 621 424 621 m 469 1143 q 574 1101 536 1143 q 613 993 613 1060 q 562 859 613 913 q 432 806 511 806 q 327 847 365 806 q 289 956 289 889 q 340 1089 289 1035 q 469 1143 390 1143 m 461 1049 q 414 1023 431 1049 q 397 960 397 997 q 440 900 397 900 q 487 926 469 900 q 504 989 504 953 q 461 1049 504 1049 m 575 1406 l 642 1268 l 356 1154 l 311 1244 l 575 1406 z "},"ⱥ":{"ha":668,"x_min":31,"x_max":649,"o":"m 578 197 q 574 154 574 172 q 580 125 574 136 q 603 106 586 114 l 544 -19 q 453 14 490 -12 q 404 89 417 40 q 323 6 365 33 q 222 -22 281 -22 l 221 -22 l 193 -101 l 133 -83 l 158 -11 q 64 76 97 11 q 31 236 31 140 q 70 488 31 369 q 195 683 110 607 q 413 758 281 758 l 435 758 l 461 832 l 521 814 l 497 750 q 649 693 569 735 l 578 197 m 213 226 q 221 160 213 185 l 388 626 q 290 559 329 619 q 231 409 250 499 q 213 226 213 319 m 458 614 q 450 617 453 617 l 269 113 l 281 113 q 401 218 342 113 l 458 614 z "},"ã":{"ha":668,"x_min":31,"x_max":675,"o":"m 413 758 q 649 693 529 758 l 578 197 q 574 154 574 172 q 580 125 574 136 q 603 106 586 114 l 544 -19 q 453 14 490 -12 q 404 89 417 40 q 323 6 365 33 q 222 -22 281 -22 q 81 47 132 -22 q 31 236 31 117 q 70 488 31 369 q 195 683 110 607 q 413 758 281 758 m 399 621 q 299 563 339 621 q 239 417 258 506 q 219 233 219 328 q 235 146 219 172 q 282 119 250 119 q 339 145 313 119 q 396 218 365 171 l 450 611 q 399 621 424 621 m 514 892 q 474 901 492 892 q 433 928 457 910 q 408 946 421 938 q 383 954 394 954 q 351 940 365 954 q 317 893 336 925 l 233 943 q 306 1050 264 1008 q 393 1092 349 1092 q 438 1081 419 1092 q 478 1053 457 1071 q 490 1042 481 1050 q 509 1031 500 1035 q 526 1028 518 1028 q 558 1042 543 1028 q 590 1086 572 1056 l 675 1039 q 601 931 643 969 q 514 892 558 892 z "},"ɐ":{"ha":624,"x_min":44,"x_max":615,"o":"m 233 217 q 232 188 232 206 q 250 137 232 153 q 314 121 268 121 q 461 153 379 121 l 500 31 q 385 -8 446 6 q 268 -21 324 -21 q 101 27 157 -21 q 44 167 44 75 q 47 213 44 196 l 90 538 q 94 581 94 563 q 88 610 94 599 q 65 629 82 622 l 124 754 q 258 664 229 743 q 443 757 335 757 q 569 705 522 757 q 615 565 615 653 q 528 355 615 426 q 299 283 440 283 l 242 283 l 233 217 m 375 621 q 278 549 322 621 l 257 392 l 296 392 q 393 431 358 392 q 428 546 428 471 q 375 621 428 621 z "},"æ":{"ha":972,"x_min":8,"x_max":964,"o":"m 344 757 q 448 734 407 757 q 519 667 489 711 q 744 758 608 758 q 905 705 846 758 q 964 569 964 651 q 853 359 964 426 q 561 269 742 292 q 583 157 561 192 q 657 122 604 122 q 731 138 696 122 q 813 186 767 153 l 879 74 q 629 -22 763 -22 q 499 7 554 -22 q 413 92 443 36 q 310 5 364 31 q 197 -21 257 -21 q 59 31 110 -21 q 8 169 8 83 q 82 363 8 286 q 332 440 156 440 l 397 440 q 424 525 408 486 q 385 592 415 568 q 311 615 356 615 q 151 579 247 615 l 126 707 q 344 757 244 757 m 725 626 q 626 559 664 626 q 572 390 588 492 q 731 447 679 403 q 783 563 783 492 q 769 610 783 593 q 725 626 754 626 m 332 328 q 206 190 206 328 q 261 114 206 114 q 317 137 289 114 q 378 210 344 160 q 375 256 375 238 q 379 328 375 278 l 332 328 z "},"ǽ":{"ha":972,"x_min":8,"x_max":964,"o":"m 344 757 q 448 734 407 757 q 519 667 489 711 q 744 758 608 758 q 905 705 846 758 q 964 569 964 651 q 853 359 964 426 q 561 269 742 292 q 583 157 561 192 q 657 122 604 122 q 731 138 696 122 q 813 186 767 153 l 879 74 q 629 -22 763 -22 q 499 7 554 -22 q 413 92 443 36 q 310 5 364 31 q 197 -21 257 -21 q 59 31 110 -21 q 8 169 8 83 q 82 363 8 286 q 332 440 156 440 l 397 440 q 424 525 408 486 q 385 592 415 568 q 311 615 356 615 q 151 579 247 615 l 126 707 q 344 757 244 757 m 725 626 q 626 559 664 626 q 572 390 588 492 q 731 447 679 403 q 783 563 783 492 q 769 610 783 593 q 725 626 754 626 m 332 328 q 206 190 206 328 q 261 114 206 114 q 317 137 289 114 q 378 210 344 160 q 375 256 375 238 q 379 328 375 278 l 332 328 m 668 1138 l 733 999 l 449 872 l 400 963 l 668 1138 z "},"ǣ":{"ha":972,"x_min":8,"x_max":964,"o":"m 344 757 q 448 734 407 757 q 519 667 489 711 q 744 758 608 758 q 905 705 846 758 q 964 569 964 651 q 853 359 964 426 q 561 269 742 292 q 583 157 561 192 q 657 122 604 122 q 731 138 696 122 q 813 186 767 153 l 879 74 q 629 -22 763 -22 q 499 7 554 -22 q 413 92 443 36 q 310 5 364 31 q 197 -21 257 -21 q 59 31 110 -21 q 8 169 8 83 q 82 363 8 286 q 332 440 156 440 l 397 440 q 424 525 408 486 q 385 592 415 568 q 311 615 356 615 q 151 579 247 615 l 126 707 q 344 757 244 757 m 725 626 q 626 559 664 626 q 572 390 588 492 q 731 447 679 403 q 783 563 783 492 q 769 610 783 593 q 725 626 754 626 m 332 328 q 206 190 206 328 q 261 114 206 114 q 317 137 289 114 q 378 210 344 160 q 375 256 375 238 q 379 328 375 278 l 332 328 m 732 915 l 388 915 l 407 1049 l 753 1049 l 732 915 z "},"b":{"ha":681,"x_min":22,"x_max":649,"o":"m 468 758 q 601 693 553 758 q 649 508 649 628 q 558 128 649 278 q 268 -22 467 -22 q 22 33 156 -22 l 161 1029 l 350 1050 l 297 672 q 376 735 332 713 q 468 758 421 758 m 394 617 q 336 594 367 617 q 278 533 306 571 l 222 132 q 292 118 260 118 q 386 176 349 118 q 442 323 424 235 q 460 500 460 411 q 443 590 460 564 q 394 617 426 617 z "},"ḃ":{"ha":681,"x_min":22,"x_max":649,"o":"m 468 758 q 601 693 553 758 q 649 508 649 628 q 558 128 649 278 q 268 -22 467 -22 q 22 33 156 -22 l 161 1029 l 350 1050 l 297 672 q 376 735 332 713 q 468 758 421 758 m 394 617 q 336 594 367 617 q 278 533 306 571 l 222 132 q 292 118 260 118 q 386 176 349 118 q 442 323 424 235 q 460 500 460 411 q 443 590 460 564 q 394 617 426 617 m 488 1131 q 415 1157 440 1131 q 389 1228 389 1183 q 424 1319 389 1283 q 511 1354 460 1354 q 585 1328 558 1354 q 611 1257 611 1301 q 575 1166 611 1201 q 488 1131 539 1131 z "},"ḅ":{"ha":681,"x_min":22,"x_max":649,"o":"m 468 758 q 601 693 553 758 q 649 508 649 628 q 558 128 649 278 q 268 -22 467 -22 q 22 33 156 -22 l 161 1029 l 350 1050 l 297 672 q 376 735 332 713 q 468 758 421 758 m 394 617 q 336 594 367 617 q 278 533 306 571 l 222 132 q 292 118 260 118 q 386 176 349 118 q 442 323 424 235 q 460 500 460 411 q 443 590 460 564 q 394 617 426 617 m 263 -90 q 335 -117 310 -90 q 361 -187 361 -143 q 326 -278 361 -243 q 239 -314 290 -314 q 165 -287 192 -314 q 139 -217 139 -261 q 175 -126 139 -161 q 263 -90 211 -90 z "},"ꞵ":{"ha":686,"x_min":-26,"x_max":660,"o":"m 125 767 q 225 976 143 901 q 429 1050 307 1050 q 598 987 536 1050 q 660 822 660 924 q 612 656 660 729 q 458 558 564 582 q 590 499 536 551 q 644 340 644 447 q 613 174 644 257 q 513 35 581 90 q 344 -21 444 -21 q 200 35 258 -21 l 157 -285 l -26 -306 l 125 767 m 313 125 q 422 192 386 125 q 458 343 458 258 q 339 486 458 486 l 307 486 l 339 618 l 363 618 q 447 679 418 618 q 476 817 476 740 q 460 890 476 865 q 413 914 443 914 q 342 876 371 914 q 304 761 314 838 l 219 163 q 313 125 257 125 z "},"ɓ":{"ha":681,"x_min":22,"x_max":649,"o":"m 468 758 q 601 693 553 758 q 649 508 649 628 q 558 128 649 278 q 268 -22 467 -22 q 22 33 156 -22 l 119 735 l 135 836 q 215 992 149 933 q 390 1050 281 1050 q 557 1004 479 1050 l 489 885 q 400 907 444 907 q 344 884 363 907 q 318 814 325 861 l 307 735 l 299 672 q 377 735 333 713 q 468 758 421 758 m 292 118 q 386 176 349 118 q 442 323 424 235 q 460 500 460 411 q 443 590 460 564 q 394 617 426 617 q 336 594 367 617 q 278 533 306 571 l 222 132 q 292 118 260 118 z "},"ʭ":{"ha":431,"x_min":-10,"x_max":444,"o":"m 414 556 l 301 556 l 317 681 l 199 681 l 181 556 l 68 556 l 100 776 l 444 776 l 414 556 m 336 -1 l 224 -1 l 239 124 l 121 124 l 103 -1 l -10 -1 l 22 219 l 367 219 l 336 -1 z "},"ʘ":{"ha":922,"x_min":53,"x_max":901,"o":"m 553 983 q 808 881 714 983 q 901 599 901 779 q 838 274 901 414 q 662 56 775 133 q 401 -21 549 -21 q 217 25 296 -21 q 95 158 138 71 q 53 365 53 246 q 117 690 53 550 q 294 907 181 831 q 553 983 408 983 m 540 847 q 373 784 442 847 q 269 610 304 721 q 235 358 235 499 q 282 174 235 235 q 415 114 329 114 q 581 176 513 114 q 685 349 650 239 q 719 600 719 458 q 672 786 719 725 q 540 847 625 847 m 468 372 q 403 397 426 372 q 379 461 379 422 q 411 543 379 511 q 490 575 443 575 q 556 551 532 575 q 581 488 581 528 q 548 405 581 438 q 468 372 515 372 z "},"ʬ":{"ha":539,"x_min":42,"x_max":575,"o":"m 575 926 l 456 556 l 338 556 l 338 828 l 257 556 l 142 556 l 119 926 l 204 926 l 211 640 l 297 926 l 406 926 l 408 639 l 492 926 l 575 926 m 497 371 l 378 0 l 260 0 l 260 272 l 179 0 l 64 0 l 42 371 l 126 371 l 133 85 l 219 371 l 328 371 l 331 83 l 414 371 l 497 371 z "},"ƀ":{"ha":692,"x_min":33,"x_max":660,"o":"m 479 758 q 612 693 564 758 q 660 508 660 628 q 569 128 660 278 q 279 -22 478 -22 q 33 33 167 -22 l 144 835 l 79 835 l 97 951 l 161 951 l 172 1029 l 361 1050 l 347 951 l 504 951 l 471 835 l 331 835 l 308 672 q 388 735 343 713 q 479 758 432 758 m 303 118 q 397 176 360 118 q 453 323 435 235 q 471 500 471 411 q 454 590 471 564 q 406 617 438 617 q 347 594 378 617 q 289 533 317 571 l 233 132 q 303 118 271 118 z "},"ƃ":{"ha":682,"x_min":22,"x_max":649,"o":"m 468 744 q 601 678 553 744 q 649 485 649 611 q 557 122 647 267 q 268 -22 467 -22 q 22 33 156 -22 l 161 1029 l 594 1029 l 551 892 l 328 892 l 294 658 q 468 744 369 744 m 292 118 q 386 176 349 118 q 442 318 424 233 q 460 485 460 403 q 443 576 460 550 q 394 603 426 603 q 335 581 367 603 q 275 521 303 558 l 222 132 q 292 118 260 118 z "},"c":{"ha":551,"x_min":35,"x_max":593,"o":"m 393 758 q 506 736 457 758 q 593 669 554 714 l 501 567 q 450 601 474 590 q 399 611 426 611 q 270 504 311 611 q 229 263 229 397 q 251 159 229 190 q 315 128 274 128 q 369 139 344 128 q 432 174 394 150 l 499 60 q 286 -22 399 -22 q 101 54 168 -22 q 35 267 35 131 q 76 508 35 396 q 199 690 118 621 q 393 758 281 758 z "},"ć":{"ha":551,"x_min":35,"x_max":593,"o":"m 393 758 q 506 736 457 758 q 593 669 554 714 l 501 567 q 450 601 474 590 q 399 611 426 611 q 270 504 311 611 q 229 263 229 397 q 251 159 229 190 q 315 128 274 128 q 369 139 344 128 q 432 174 394 150 l 499 60 q 286 -22 399 -22 q 101 54 168 -22 q 35 267 35 131 q 76 508 35 396 q 199 690 118 621 q 393 758 281 758 m 518 1138 l 583 999 l 299 872 l 250 963 l 518 1138 z "},"č":{"ha":551,"x_min":35,"x_max":644,"o":"m 393 758 q 506 736 457 758 q 593 669 554 714 l 501 567 q 450 601 474 590 q 399 611 426 611 q 270 504 311 611 q 229 263 229 397 q 251 159 229 190 q 315 128 274 128 q 369 139 344 128 q 432 174 394 150 l 499 60 q 286 -22 399 -22 q 101 54 168 -22 q 35 267 35 131 q 76 508 35 396 q 199 690 118 621 q 393 758 281 758 m 581 1111 l 644 1036 l 458 857 l 344 857 l 208 1036 l 281 1111 l 413 989 l 581 1111 z "},"ç":{"ha":551,"x_min":35,"x_max":593,"o":"m 399 611 q 270 504 311 611 q 229 263 229 397 q 251 159 229 190 q 315 128 274 128 q 369 139 344 128 q 432 174 394 150 l 499 60 q 315 -21 410 -11 l 307 -76 q 383 -111 357 -82 q 408 -187 408 -140 q 362 -303 408 -253 q 218 -354 315 -354 q 147 -342 179 -354 q 93 -312 115 -331 l 149 -229 q 215 -247 181 -247 q 259 -234 243 -247 q 275 -196 275 -221 q 253 -160 275 -171 q 178 -150 232 -150 l 211 -12 q 81 82 128 10 q 35 267 35 154 q 76 508 35 396 q 199 690 118 621 q 393 758 281 758 q 506 736 457 758 q 593 669 554 714 l 501 567 q 450 601 474 590 q 399 611 426 611 z "},"ĉ":{"ha":551,"x_min":35,"x_max":636,"o":"m 393 758 q 506 736 457 758 q 593 669 554 714 l 501 567 q 450 601 474 590 q 399 611 426 611 q 270 504 311 611 q 229 263 229 397 q 251 159 229 190 q 315 128 274 128 q 369 139 344 128 q 432 174 394 150 l 499 60 q 286 -22 399 -22 q 101 54 168 -22 q 35 267 35 131 q 76 508 35 396 q 199 690 118 621 q 393 758 281 758 m 260 872 l 194 949 l 383 1128 l 496 1128 l 636 939 l 557 872 l 426 994 l 260 872 z "},"ɕ":{"ha":582,"x_min":35,"x_max":593,"o":"m 413 340 q 509 303 472 340 q 546 200 546 267 q 476 38 546 96 q 306 -21 407 -21 q 221 -11 257 -21 l 169 -112 l 88 -72 l 142 28 q 63 126 90 63 q 35 271 35 189 q 76 509 35 397 q 199 690 118 621 q 393 758 281 758 q 506 736 457 758 q 593 669 554 714 l 501 567 q 451 600 475 589 q 399 611 426 611 q 270 504 311 611 q 229 263 229 397 q 232 194 229 228 q 313 306 268 271 q 413 340 358 340 m 340 119 q 397 140 375 119 q 418 196 418 160 q 389 235 418 235 q 293 125 340 235 q 340 119 314 119 z "},"ċ":{"ha":551,"x_min":35,"x_max":593,"o":"m 393 758 q 506 736 457 758 q 593 669 554 714 l 501 567 q 450 601 474 590 q 399 611 426 611 q 270 504 311 611 q 229 263 229 397 q 251 159 229 190 q 315 128 274 128 q 369 139 344 128 q 432 174 394 150 l 499 60 q 286 -22 399 -22 q 101 54 168 -22 q 35 267 35 131 q 76 508 35 396 q 199 690 118 621 q 393 758 281 758 m 408 888 q 335 914 361 888 q 310 985 310 940 q 345 1076 310 1040 q 432 1111 381 1111 q 506 1085 479 1111 q 532 1014 532 1058 q 496 923 532 958 q 408 888 460 888 z "},"ƈ":{"ha":550,"x_min":35,"x_max":821,"o":"m 669 1050 q 755 1035 717 1050 q 821 996 793 1019 l 751 883 q 681 907 715 907 q 636 885 651 907 q 614 817 621 864 l 593 669 l 508 574 q 399 611 453 611 q 270 504 311 611 q 229 263 229 397 q 251 159 229 190 q 315 128 274 128 q 369 139 344 128 q 432 174 394 150 l 499 60 q 286 -22 399 -22 q 101 54 168 -22 q 35 267 35 131 q 75 508 35 394 q 192 690 115 621 q 374 758 269 758 q 443 746 410 758 l 458 851 q 526 999 474 949 q 669 1050 579 1050 z "},"ʗ":{"ha":575,"x_min":24,"x_max":617,"o":"m 418 758 q 617 669 539 758 l 525 567 q 474 601 497 590 q 422 611 451 611 q 309 528 356 611 q 240 316 263 446 q 217 46 217 186 q 238 -113 217 -72 q 304 -154 260 -154 q 359 -143 333 -154 q 421 -108 385 -132 l 488 -222 q 274 -304 390 -304 q 89 -218 154 -304 q 24 46 24 -132 q 71 412 24 250 q 208 666 118 574 q 418 758 297 758 z "},"ȼ":{"ha":551,"x_min":35,"x_max":593,"o":"m 501 567 q 460 596 481 586 l 293 131 q 315 128 307 128 q 369 139 344 128 q 432 174 394 150 l 499 60 q 286 -22 399 -22 q 239 -19 269 -22 l 210 -101 l 150 -83 l 179 -1 q 72 97 110 28 q 35 267 35 165 q 76 508 35 396 q 199 690 118 621 q 393 758 281 758 q 451 753 428 758 l 479 832 l 538 814 l 510 735 q 593 669 554 713 l 501 567 m 400 611 l 399 611 q 270 504 311 611 q 229 263 229 397 q 243 175 229 204 l 400 611 z "},"d":{"ha":682,"x_min":32,"x_max":707,"o":"m 707 1029 l 563 0 l 397 0 l 401 96 q 320 8 364 38 q 218 -22 276 -22 q 81 47 129 -22 q 32 239 32 115 q 67 485 32 365 q 172 681 101 604 q 340 758 242 758 q 472 685 429 758 l 522 1049 l 707 1029 m 375 618 q 290 557 325 618 q 239 407 256 496 q 222 239 222 318 q 286 119 222 119 q 348 151 318 119 q 410 242 378 182 l 454 557 q 421 603 439 589 q 375 618 403 618 z "},"ð":{"ha":682,"x_min":31,"x_max":640,"o":"m 494 924 q 606 765 571 854 q 640 551 640 676 q 599 268 640 399 q 476 58 558 138 q 278 -21 394 -21 q 97 51 164 -21 q 31 253 31 124 q 67 447 31 351 q 170 602 104 542 q 318 663 236 663 q 400 645 365 663 q 463 594 435 628 q 442 722 460 674 q 383 818 425 771 l 306 739 l 204 796 l 292 888 q 189 925 244 911 l 240 1049 q 396 990 317 1032 l 501 1097 l 583 1017 l 494 924 m 293 119 q 397 207 363 119 q 450 456 431 294 q 358 528 418 528 q 251 438 286 528 q 215 242 215 349 q 293 119 215 119 z "},"ȸ":{"ha":994,"x_min":33,"x_max":963,"o":"m 793 757 q 919 687 876 757 q 963 486 963 617 q 926 238 963 354 q 824 50 890 121 q 671 -21 757 -21 q 597 6 631 -21 q 542 79 564 32 l 521 0 l 376 0 l 376 83 q 219 -21 314 -21 q 82 52 131 -21 q 33 254 33 125 q 70 500 33 385 q 174 686 107 615 q 328 757 242 757 q 400 733 368 757 q 449 668 432 710 l 499 1029 l 688 1050 l 635 668 q 793 757 697 757 m 283 119 q 333 141 308 119 q 385 211 357 163 l 431 543 q 399 599 417 582 q 358 617 382 617 q 288 564 318 617 q 242 428 257 511 q 226 260 226 346 q 283 119 226 119 m 642 119 q 711 174 682 119 q 756 314 740 229 q 771 483 771 399 q 756 585 771 556 q 714 615 742 615 q 617 539 665 615 l 569 201 q 600 139 583 158 q 642 119 617 119 z "},"ď":{"ha":796,"x_min":32,"x_max":913,"o":"m 707 1029 l 563 0 l 397 0 l 401 96 q 320 8 364 38 q 218 -22 276 -22 q 81 47 129 -22 q 32 239 32 115 q 67 485 32 365 q 172 681 101 604 q 340 758 242 758 q 472 685 429 758 l 522 1049 l 707 1029 m 375 618 q 290 557 325 618 q 239 407 256 496 q 222 239 222 318 q 286 119 222 119 q 348 151 318 119 q 410 242 378 182 l 454 557 q 421 603 439 589 q 375 618 403 618 m 776 1046 l 913 1028 l 818 744 l 724 756 l 776 1046 z "},"ḓ":{"ha":682,"x_min":32,"x_max":707,"o":"m 707 1029 l 563 0 l 397 0 l 401 96 q 320 8 364 38 q 218 -22 276 -22 q 81 47 129 -22 q 32 239 32 115 q 67 485 32 365 q 172 681 101 604 q 340 758 242 758 q 472 685 429 758 l 522 1049 l 707 1029 m 375 618 q 290 557 325 618 q 239 407 256 496 q 222 239 222 318 q 286 119 222 119 q 348 151 318 119 q 410 242 378 182 l 454 557 q 421 603 439 589 q 375 618 403 618 m 106 -346 l 40 -269 l 228 -90 l 340 -90 l 482 -279 l 403 -346 l 272 -224 l 106 -346 z "},"đ":{"ha":696,"x_min":32,"x_max":764,"o":"m 746 832 l 679 832 l 563 0 l 397 0 l 401 96 q 320 8 364 38 q 218 -22 276 -22 q 81 47 129 -22 q 32 239 32 115 q 67 485 32 365 q 172 681 101 604 q 340 758 242 758 q 472 685 429 758 l 493 832 l 351 832 l 356 949 l 508 949 l 522 1049 l 707 1029 l 696 949 l 764 949 l 746 832 m 454 557 q 421 603 439 589 q 375 618 403 618 q 290 557 325 618 q 239 407 256 496 q 222 239 222 318 q 286 119 222 119 q 348 151 318 119 q 410 242 378 182 l 454 557 z "},"ȡ":{"ha":903,"x_min":32,"x_max":885,"o":"m 763 328 q 851 292 817 328 q 885 193 885 256 q 817 34 885 89 q 643 -21 749 -21 q 588 -18 621 -21 l 539 -112 l 458 -72 l 501 6 q 414 110 438 40 q 326 10 374 43 q 218 -22 279 -22 q 81 47 129 -22 q 32 239 32 115 q 67 485 32 365 q 172 681 101 604 q 340 758 242 758 q 472 685 429 758 l 522 1049 l 707 1029 l 590 201 q 589 175 588 183 q 666 293 626 258 q 763 328 706 328 m 454 557 q 421 603 439 589 q 375 618 403 618 q 290 557 325 618 q 239 407 256 496 q 222 239 222 318 q 286 119 222 119 q 410 240 344 119 l 454 557 m 683 119 q 739 138 718 119 q 760 190 760 157 q 735 222 760 222 q 698 201 715 222 q 656 121 681 181 q 683 119 664 119 z "},"ḋ":{"ha":682,"x_min":32,"x_max":707,"o":"m 707 1029 l 563 0 l 397 0 l 401 96 q 320 8 364 38 q 218 -22 276 -22 q 81 47 129 -22 q 32 239 32 115 q 67 485 32 365 q 172 681 101 604 q 340 758 242 758 q 472 685 429 758 l 522 1049 l 707 1029 m 375 618 q 290 557 325 618 q 239 407 256 496 q 222 239 222 318 q 286 119 222 119 q 348 151 318 119 q 410 242 378 182 l 454 557 q 421 603 439 589 q 375 618 403 618 m 456 1131 q 383 1157 408 1131 q 357 1228 357 1183 q 392 1319 357 1283 q 479 1354 428 1354 q 553 1328 526 1354 q 579 1257 579 1301 q 543 1166 579 1201 q 456 1131 507 1131 z "},"ḍ":{"ha":682,"x_min":32,"x_max":707,"o":"m 707 1029 l 563 0 l 397 0 l 401 96 q 320 8 364 38 q 218 -22 276 -22 q 81 47 129 -22 q 32 239 32 115 q 67 485 32 365 q 172 681 101 604 q 340 758 242 758 q 472 685 429 758 l 522 1049 l 707 1029 m 375 618 q 290 557 325 618 q 239 407 256 496 q 222 239 222 318 q 286 119 222 119 q 348 151 318 119 q 410 242 378 182 l 454 557 q 421 603 439 589 q 375 618 403 618 m 281 -90 q 353 -117 328 -90 q 379 -187 379 -143 q 344 -278 379 -243 q 257 -314 308 -314 q 183 -287 210 -314 q 157 -217 157 -261 q 193 -126 157 -161 q 281 -90 229 -90 z "},"ƍ":{"ha":671,"x_min":6,"x_max":639,"o":"m 225 -306 q 6 -210 78 -306 l 103 -119 q 158 -160 131 -147 q 221 -174 186 -174 q 289 -149 267 -174 q 311 -83 311 -124 q 292 -29 311 -51 q 219 24 274 -7 q 81 141 124 76 q 38 306 38 206 q 74 508 38 404 q 190 685 111 613 q 390 757 269 757 q 573 679 507 757 q 639 479 639 601 q 585 240 639 339 q 400 76 532 142 q 489 -79 489 8 q 459 -190 489 -137 q 369 -274 429 -242 q 225 -306 310 -306 m 311 133 q 419 284 392 203 q 447 486 447 365 q 374 615 447 615 q 264 519 300 615 q 228 301 228 424 q 245 203 228 240 q 311 133 263 165 z "},"ʤ":{"ha":1161,"x_min":32,"x_max":1154,"o":"m 1135 603 l 878 288 q 1042 220 988 278 q 1096 61 1096 163 q 1050 -132 1096 -49 q 925 -260 1004 -215 q 747 -304 846 -304 q 496 -165 576 -304 l 608 -76 q 674 -138 642 -119 q 750 -157 706 -157 q 863 -99 821 -157 q 904 57 904 -40 q 876 149 904 122 q 786 175 847 175 l 679 175 l 696 290 l 939 592 l 646 592 l 563 0 l 397 0 l 401 96 q 320 8 364 38 q 218 -22 276 -22 q 81 47 129 -22 q 32 239 32 115 q 67 485 32 365 q 172 681 101 604 q 340 758 242 758 q 472 685 429 758 l 522 1049 l 707 1029 l 665 736 l 1154 736 l 1135 603 m 454 557 q 421 603 439 589 q 375 618 403 618 q 290 557 325 618 q 239 407 256 496 q 222 239 222 318 q 286 119 222 119 q 348 151 318 119 q 410 242 378 182 l 454 557 z "},"ɗ":{"ha":682,"x_min":32,"x_max":885,"o":"m 733 1050 q 885 996 819 1050 l 811 885 q 744 907 778 907 q 700 888 715 907 q 679 826 685 868 l 665 736 l 563 0 l 397 0 l 401 96 q 320 8 364 38 q 218 -22 276 -22 q 81 47 129 -22 q 32 239 32 115 q 67 485 32 365 q 172 681 101 604 q 340 758 242 758 q 472 685 429 758 l 479 736 l 492 825 q 568 989 506 928 q 733 1050 631 1050 m 454 557 q 421 603 439 589 q 375 618 403 618 q 290 557 325 618 q 239 407 256 496 q 222 239 222 318 q 286 119 222 119 q 348 151 318 119 q 410 242 378 182 l 454 557 z "},"ḏ":{"ha":682,"x_min":32,"x_max":707,"o":"m 707 1029 l 563 0 l 397 0 l 401 96 q 320 8 364 38 q 218 -22 276 -22 q 81 47 129 -22 q 32 239 32 115 q 67 485 32 365 q 172 681 101 604 q 340 758 242 758 q 472 685 429 758 l 522 1049 l 707 1029 m 375 618 q 290 557 325 618 q 239 407 256 496 q 222 239 222 318 q 286 119 222 119 q 348 151 318 119 q 410 242 378 182 l 454 557 q 421 603 439 589 q 375 618 403 618 m 118 -122 l 463 -122 l 443 -256 l 97 -256 l 118 -122 z "},"ɖ":{"ha":683,"x_min":32,"x_max":731,"o":"m 731 -249 q 560 -304 656 -304 q 416 -254 468 -304 q 364 -111 364 -204 q 367 -67 364 -97 l 375 0 l 376 0 l 388 82 q 315 5 356 32 q 218 -22 274 -22 q 81 47 129 -22 q 32 239 32 115 q 67 485 32 365 q 172 681 101 604 q 340 758 242 758 q 472 685 429 758 l 522 1049 l 707 1029 l 563 0 l 561 0 l 550 -89 q 549 -107 549 -96 q 603 -162 549 -162 q 640 -157 624 -162 q 678 -139 656 -151 l 731 -249 m 286 119 q 348 151 318 119 q 410 242 378 182 l 454 557 q 421 603 439 589 q 375 618 403 618 q 290 557 325 618 q 239 407 256 496 q 222 239 222 318 q 286 119 222 119 z "},"ƌ":{"ha":682,"x_min":31,"x_max":706,"o":"m 561 0 l 397 0 l 400 96 q 320 8 364 38 q 218 -22 276 -22 q 80 47 129 -22 q 31 239 31 115 q 66 476 31 358 q 171 669 101 593 q 339 746 240 746 q 471 672 426 746 l 501 892 l 264 892 l 282 1029 l 706 1029 l 561 0 m 451 543 q 419 589 438 574 q 372 604 400 604 q 288 544 322 604 q 238 398 254 483 q 221 239 221 313 q 238 147 221 175 q 286 119 254 119 q 410 242 346 119 l 451 543 z "},"ǳ":{"ha":1204,"x_min":32,"x_max":1228,"o":"m 707 1029 l 563 0 l 397 0 l 401 96 q 320 8 364 38 q 218 -22 276 -22 q 81 47 129 -22 q 32 239 32 115 q 67 485 32 365 q 172 681 101 604 q 340 758 242 758 q 472 685 429 758 l 522 1049 l 707 1029 m 375 618 q 290 557 325 618 q 239 407 256 496 q 222 239 222 318 q 286 119 222 119 q 348 151 318 119 q 410 242 378 182 l 454 557 q 421 603 439 589 q 375 618 403 618 m 1228 736 l 1208 600 l 883 147 l 1154 147 l 1115 0 l 644 0 l 665 136 l 990 590 l 749 590 l 772 736 l 1228 736 z "},"ʣ":{"ha":1118,"x_min":32,"x_max":1143,"o":"m 1122 600 l 800 147 l 1069 147 l 1031 0 l 397 0 l 401 96 q 320 8 364 38 q 218 -22 276 -22 q 81 47 129 -22 q 32 239 32 115 q 67 485 32 365 q 172 681 101 604 q 340 758 242 758 q 472 685 429 758 l 522 1049 l 707 1029 l 665 736 l 1143 736 l 1122 600 m 454 557 q 421 603 439 589 q 375 618 403 618 q 290 557 325 618 q 239 407 256 496 q 222 239 222 318 q 286 119 222 119 q 348 151 318 119 q 410 242 378 182 l 454 557 m 582 135 l 904 590 l 646 590 l 582 135 z "},"ǆ":{"ha":1204,"x_min":32,"x_max":1258,"o":"m 707 1029 l 563 0 l 397 0 l 401 96 q 320 8 364 38 q 218 -22 276 -22 q 81 47 129 -22 q 32 239 32 115 q 67 485 32 365 q 172 681 101 604 q 340 758 242 758 q 472 685 429 758 l 522 1049 l 707 1029 m 375 618 q 290 557 325 618 q 239 407 256 496 q 222 239 222 318 q 286 119 222 119 q 348 151 318 119 q 410 242 378 182 l 454 557 q 421 603 439 589 q 375 618 403 618 m 1228 736 l 1208 600 l 883 147 l 1154 147 l 1115 0 l 644 0 l 665 136 l 990 590 l 749 590 l 772 736 l 1228 736 m 1194 1111 l 1258 1036 l 1072 857 l 958 857 l 822 1036 l 894 1111 l 1026 989 l 1194 1111 z "},"ʥ":{"ha":1221,"x_min":32,"x_max":1224,"o":"m 1090 346 q 1187 310 1150 346 q 1224 210 1224 275 q 1153 51 1224 103 q 965 0 1082 0 l 956 0 q 936 -111 947 -36 l 925 -178 l 821 -172 q 851 0 839 -61 l 397 0 l 401 96 q 320 8 364 38 q 218 -22 276 -22 q 81 47 129 -22 q 32 239 32 115 q 67 485 32 365 q 172 681 101 604 q 340 758 242 758 q 472 685 429 758 l 522 1049 l 707 1029 l 665 736 l 1143 736 l 1124 613 l 789 147 l 893 147 q 977 300 931 254 q 1090 346 1024 346 m 454 557 q 421 603 439 589 q 375 618 403 618 q 290 557 325 618 q 239 407 256 496 q 222 239 222 318 q 286 119 222 119 q 348 151 318 119 q 410 242 378 182 l 454 557 m 646 590 l 582 140 l 904 590 l 646 590 m 1006 147 q 1076 161 1053 147 q 1099 210 1099 175 q 1071 242 1099 242 q 997 147 1026 242 l 1006 147 z "},"e":{"ha":631,"x_min":33,"x_max":622,"o":"m 403 758 q 563 705 504 758 q 622 569 622 651 q 511 358 622 425 q 219 269 400 290 l 219 250 q 244 153 219 183 q 315 122 268 122 q 390 138 354 122 q 471 186 425 153 l 538 74 q 288 -22 421 -22 q 101 49 168 -22 q 33 257 33 121 q 74 502 33 388 q 197 688 114 617 q 403 758 281 758 m 231 390 q 440 563 440 414 q 383 626 440 626 q 286 559 324 626 q 231 390 249 492 z "},"é":{"ha":631,"x_min":33,"x_max":622,"o":"m 403 758 q 563 705 504 758 q 622 569 622 651 q 511 358 622 425 q 219 269 400 290 l 219 250 q 244 153 219 183 q 315 122 268 122 q 390 138 354 122 q 471 186 425 153 l 538 74 q 288 -22 421 -22 q 101 49 168 -22 q 33 257 33 121 q 74 502 33 388 q 197 688 114 617 q 403 758 281 758 m 231 390 q 440 563 440 414 q 383 626 440 626 q 286 559 324 626 q 231 390 249 492 m 525 1138 l 590 999 l 306 872 l 257 963 l 525 1138 z "},"ĕ":{"ha":631,"x_min":33,"x_max":632,"o":"m 403 758 q 563 705 504 758 q 622 569 622 651 q 511 358 622 425 q 219 269 400 290 l 219 250 q 244 153 219 183 q 315 122 268 122 q 390 138 354 122 q 471 186 425 153 l 538 74 q 288 -22 421 -22 q 101 49 168 -22 q 33 257 33 121 q 74 502 33 388 q 197 688 114 617 q 403 758 281 758 m 231 390 q 440 563 440 414 q 383 626 440 626 q 286 559 324 626 q 231 390 249 492 m 415 883 q 287 938 332 883 q 242 1081 242 992 q 243 1107 242 1097 l 344 1122 q 422 1018 351 1018 q 490 1047 461 1018 q 535 1126 518 1075 l 632 1101 q 557 943 613 1003 q 415 883 501 883 z "},"ě":{"ha":631,"x_min":33,"x_max":651,"o":"m 403 758 q 563 705 504 758 q 622 569 622 651 q 511 358 622 425 q 219 269 400 290 l 219 250 q 244 153 219 183 q 315 122 268 122 q 390 138 354 122 q 471 186 425 153 l 538 74 q 288 -22 421 -22 q 101 49 168 -22 q 33 257 33 121 q 74 502 33 388 q 197 688 114 617 q 403 758 281 758 m 231 390 q 440 563 440 414 q 383 626 440 626 q 286 559 324 626 q 231 390 249 492 m 588 1111 l 651 1036 l 465 857 l 351 857 l 215 1036 l 288 1111 l 419 989 l 588 1111 z "},"ȩ":{"ha":631,"x_min":33,"x_max":622,"o":"m 403 758 q 563 705 504 758 q 622 569 622 651 q 511 358 622 425 q 219 269 400 290 l 219 250 q 244 153 219 183 q 315 122 268 122 q 390 138 354 122 q 471 186 425 153 l 538 74 q 335 -19 439 -7 l 326 -76 q 402 -111 376 -82 q 428 -187 428 -140 q 381 -303 428 -253 q 238 -354 335 -354 q 167 -342 199 -354 q 113 -312 135 -331 l 168 -229 q 235 -247 200 -247 q 278 -234 263 -247 q 294 -196 294 -221 q 273 -160 294 -171 q 197 -150 251 -150 l 229 -18 q 85 69 136 -1 q 33 257 33 139 q 74 502 33 388 q 197 688 114 617 q 403 758 281 758 m 231 390 q 440 563 440 414 q 383 626 440 626 q 286 559 324 626 q 231 390 249 492 z "},"ê":{"ha":631,"x_min":33,"x_max":643,"o":"m 403 758 q 563 705 504 758 q 622 569 622 651 q 511 358 622 425 q 219 269 400 290 l 219 250 q 244 153 219 183 q 315 122 268 122 q 390 138 354 122 q 471 186 425 153 l 538 74 q 288 -22 421 -22 q 101 49 168 -22 q 33 257 33 121 q 74 502 33 388 q 197 688 114 617 q 403 758 281 758 m 231 390 q 440 563 440 414 q 383 626 440 626 q 286 559 324 626 q 231 390 249 492 m 267 872 l 201 949 l 390 1128 l 503 1128 l 643 939 l 564 872 l 433 994 l 267 872 z "},"ế":{"ha":631,"x_min":33,"x_max":815,"o":"m 815 1203 l 603 1006 l 539 1065 l 724 1299 l 815 1203 m 372 1065 l 485 1065 l 626 882 l 553 815 l 415 931 l 254 815 l 185 892 l 372 1065 m 403 758 q 563 705 504 758 q 622 569 622 651 q 511 358 622 425 q 219 269 400 290 l 219 250 q 244 153 219 183 q 315 122 268 122 q 390 138 354 122 q 471 186 425 153 l 538 74 q 288 -22 421 -22 q 101 49 168 -22 q 33 257 33 121 q 74 502 33 388 q 197 688 114 617 q 403 758 281 758 m 231 390 q 440 563 440 414 q 383 626 440 626 q 286 559 324 626 q 231 390 249 492 z "},"ệ":{"ha":631,"x_min":33,"x_max":643,"o":"m 403 758 q 563 705 504 758 q 622 569 622 651 q 511 358 622 425 q 219 269 400 290 l 219 250 q 244 153 219 183 q 315 122 268 122 q 390 138 354 122 q 471 186 425 153 l 538 74 q 288 -22 421 -22 q 101 49 168 -22 q 33 257 33 121 q 74 502 33 388 q 197 688 114 617 q 403 758 281 758 m 231 390 q 440 563 440 414 q 383 626 440 626 q 286 559 324 626 q 231 390 249 492 m 267 872 l 201 949 l 390 1128 l 503 1128 l 643 939 l 564 872 l 433 994 l 267 872 m 269 -90 q 342 -117 317 -90 q 368 -187 368 -143 q 333 -278 368 -243 q 246 -314 297 -314 q 172 -287 199 -314 q 146 -217 146 -261 q 182 -126 146 -161 q 269 -90 218 -90 z "},"ề":{"ha":631,"x_min":33,"x_max":624,"o":"m 315 1060 l 236 1006 l 79 1210 l 196 1294 l 315 1060 m 251 815 l 182 892 l 369 1065 l 482 1065 l 624 882 l 550 815 l 413 931 l 251 815 m 403 758 q 563 705 504 758 q 622 569 622 651 q 511 358 622 425 q 219 269 400 290 l 219 250 q 244 153 219 183 q 315 122 268 122 q 390 138 354 122 q 471 186 425 153 l 538 74 q 288 -22 421 -22 q 101 49 168 -22 q 33 257 33 121 q 74 502 33 388 q 197 688 114 617 q 403 758 281 758 m 231 390 q 440 563 440 414 q 383 626 440 626 q 286 559 324 626 q 231 390 249 492 z "},"ể":{"ha":631,"x_min":33,"x_max":790,"o":"m 403 758 q 563 705 504 758 q 622 569 622 651 q 511 358 622 425 q 219 269 400 290 l 219 250 q 244 153 219 183 q 315 122 268 122 q 390 138 354 122 q 471 186 425 153 l 538 74 q 288 -22 421 -22 q 101 49 168 -22 q 33 257 33 121 q 74 502 33 388 q 197 688 114 617 q 403 758 281 758 m 231 390 q 440 563 440 414 q 383 626 440 626 q 286 559 324 626 q 231 390 249 492 m 253 815 l 183 892 l 371 1065 l 483 1065 l 625 882 l 551 815 l 414 931 l 253 815 m 574 1163 q 641 1181 619 1167 q 663 1228 663 1196 q 625 1264 663 1264 q 558 1246 594 1264 l 536 1332 q 656 1364 589 1364 q 755 1330 719 1364 q 790 1240 790 1296 q 760 1148 790 1182 q 676 1103 731 1114 l 665 1028 l 556 1028 l 574 1163 z "},"ễ":{"ha":631,"x_min":33,"x_max":672,"o":"m 383 1158 q 351 1144 365 1158 q 318 1100 336 1131 l 235 1149 q 308 1251 267 1211 q 393 1290 349 1290 q 438 1281 419 1290 q 478 1254 457 1271 q 502 1235 492 1242 q 525 1229 513 1229 q 556 1242 542 1229 q 589 1285 571 1256 l 672 1239 q 599 1137 640 1174 q 513 1100 557 1100 q 474 1108 492 1100 q 433 1133 457 1117 q 406 1152 417 1146 q 383 1158 394 1158 m 372 1058 l 485 1058 l 626 875 l 553 808 l 415 924 l 254 808 l 185 885 l 372 1058 m 403 758 q 563 705 504 758 q 622 569 622 651 q 511 358 622 425 q 219 269 400 290 l 219 250 q 244 153 219 183 q 315 122 268 122 q 390 138 354 122 q 471 186 425 153 l 538 74 q 288 -22 421 -22 q 101 49 168 -22 q 33 257 33 121 q 74 502 33 388 q 197 688 114 617 q 403 758 281 758 m 231 390 q 440 563 440 414 q 383 626 440 626 q 286 559 324 626 q 231 390 249 492 z "},"ȅ":{"ha":631,"x_min":33,"x_max":622,"o":"m 403 758 q 563 705 504 758 q 622 569 622 651 q 511 358 622 425 q 219 269 400 290 l 219 250 q 244 153 219 183 q 315 122 268 122 q 390 138 354 122 q 471 186 425 153 l 538 74 q 288 -22 421 -22 q 101 49 168 -22 q 33 257 33 121 q 74 502 33 388 q 197 688 114 617 q 403 758 281 758 m 231 390 q 440 563 440 414 q 383 626 440 626 q 286 559 324 626 q 231 390 249 492 m 304 1182 l 382 914 l 275 872 l 163 1124 l 304 1182 m 503 1181 l 571 917 l 465 879 l 361 1126 l 503 1181 z "},"ë":{"ha":631,"x_min":33,"x_max":658,"o":"m 403 758 q 563 705 504 758 q 622 569 622 651 q 511 358 622 425 q 219 269 400 290 l 219 250 q 244 153 219 183 q 315 122 268 122 q 390 138 354 122 q 471 186 425 153 l 538 74 q 288 -22 421 -22 q 101 49 168 -22 q 33 257 33 121 q 74 502 33 388 q 197 688 114 617 q 403 758 281 758 m 231 390 q 440 563 440 414 q 383 626 440 626 q 286 559 324 626 q 231 390 249 492 m 285 897 q 222 921 244 897 q 199 982 199 944 q 231 1063 199 1031 q 306 1094 263 1094 q 369 1071 346 1094 q 393 1008 393 1047 q 362 929 393 961 q 285 897 331 897 m 551 897 q 488 921 511 897 q 465 982 465 944 q 497 1063 465 1031 q 572 1094 528 1094 q 635 1071 611 1094 q 658 1008 658 1047 q 627 929 658 961 q 551 897 596 897 z "},"ė":{"ha":631,"x_min":33,"x_max":622,"o":"m 403 758 q 563 705 504 758 q 622 569 622 651 q 511 358 622 425 q 219 269 400 290 l 219 250 q 244 153 219 183 q 315 122 268 122 q 390 138 354 122 q 471 186 425 153 l 538 74 q 288 -22 421 -22 q 101 49 168 -22 q 33 257 33 121 q 74 502 33 388 q 197 688 114 617 q 403 758 281 758 m 231 390 q 440 563 440 414 q 383 626 440 626 q 286 559 324 626 q 231 390 249 492 m 415 888 q 342 914 368 888 q 317 985 317 940 q 352 1076 317 1040 q 439 1111 388 1111 q 513 1085 486 1111 q 539 1014 539 1058 q 503 923 539 958 q 415 888 467 888 z "},"ẹ":{"ha":631,"x_min":33,"x_max":622,"o":"m 403 758 q 563 705 504 758 q 622 569 622 651 q 511 358 622 425 q 219 269 400 290 l 219 250 q 244 153 219 183 q 315 122 268 122 q 390 138 354 122 q 471 186 425 153 l 538 74 q 288 -22 421 -22 q 101 49 168 -22 q 33 257 33 121 q 74 502 33 388 q 197 688 114 617 q 403 758 281 758 m 231 390 q 440 563 440 414 q 383 626 440 626 q 286 559 324 626 q 231 390 249 492 m 269 -90 q 342 -117 317 -90 q 368 -187 368 -143 q 333 -278 368 -243 q 246 -314 297 -314 q 172 -287 199 -314 q 146 -217 146 -261 q 182 -126 146 -161 q 269 -90 218 -90 z "},"è":{"ha":631,"x_min":33,"x_max":622,"o":"m 403 758 q 563 705 504 758 q 622 569 622 651 q 511 358 622 425 q 219 269 400 290 l 219 250 q 244 153 219 183 q 315 122 268 122 q 390 138 354 122 q 471 186 425 153 l 538 74 q 288 -22 421 -22 q 101 49 168 -22 q 33 257 33 121 q 74 502 33 388 q 197 688 114 617 q 403 758 281 758 m 231 390 q 440 563 440 414 q 383 626 440 626 q 286 559 324 626 q 231 390 249 492 m 369 1135 l 596 960 l 540 874 l 285 999 l 369 1135 z "},"ẻ":{"ha":631,"x_min":33,"x_max":622,"o":"m 403 758 q 563 705 504 758 q 622 569 622 651 q 511 358 622 425 q 219 269 400 290 l 219 250 q 244 153 219 183 q 315 122 268 122 q 390 138 354 122 q 471 186 425 153 l 538 74 q 288 -22 421 -22 q 101 49 168 -22 q 33 257 33 121 q 74 502 33 388 q 197 688 114 617 q 403 758 281 758 m 231 390 q 440 563 440 414 q 383 626 440 626 q 286 559 324 626 q 231 390 249 492 m 369 978 q 437 997 415 982 q 458 1043 458 1011 q 421 1079 458 1079 q 354 1061 390 1079 l 332 1147 q 451 1179 385 1179 q 551 1145 515 1179 q 586 1056 586 1111 q 556 963 586 997 q 472 918 526 929 l 461 843 l 351 843 l 369 978 z "},"ȇ":{"ha":631,"x_min":33,"x_max":622,"o":"m 403 758 q 563 705 504 758 q 622 569 622 651 q 511 358 622 425 q 219 269 400 290 l 219 250 q 244 153 219 183 q 315 122 268 122 q 390 138 354 122 q 471 186 425 153 l 538 74 q 288 -22 421 -22 q 101 49 168 -22 q 33 257 33 121 q 74 502 33 388 q 197 688 114 617 q 403 758 281 758 m 231 390 q 440 563 440 414 q 383 626 440 626 q 286 559 324 626 q 231 390 249 492 m 213 864 q 294 1022 236 963 q 439 1082 353 1082 q 571 1020 528 1082 q 608 858 614 958 l 504 844 q 425 949 497 949 q 313 839 349 949 l 213 864 z "},"ē":{"ha":631,"x_min":33,"x_max":622,"o":"m 403 758 q 563 705 504 758 q 622 569 622 651 q 511 358 622 425 q 219 269 400 290 l 219 250 q 244 153 219 183 q 315 122 268 122 q 390 138 354 122 q 471 186 425 153 l 538 74 q 288 -22 421 -22 q 101 49 168 -22 q 33 257 33 121 q 74 502 33 388 q 197 688 114 617 q 403 758 281 758 m 231 390 q 440 563 440 414 q 383 626 440 626 q 286 559 324 626 q 231 390 249 492 m 589 915 l 244 915 l 264 1049 l 610 1049 l 589 915 z "},"ę":{"ha":631,"x_min":33,"x_max":622,"o":"m 403 758 q 563 705 504 758 q 622 569 622 651 q 511 358 622 425 q 219 269 400 290 l 219 250 q 244 153 219 183 q 315 122 268 122 q 390 138 354 122 q 471 186 425 153 l 538 74 q 417 1 481 25 q 286 -147 286 -64 q 339 -201 286 -201 q 411 -190 369 -201 l 383 -312 q 303 -322 339 -322 q 191 -285 235 -322 q 147 -189 147 -249 q 257 -21 147 -83 q 92 60 151 -11 q 33 257 33 131 q 74 502 33 388 q 197 688 114 617 q 403 758 281 758 m 231 390 q 440 563 440 414 q 383 626 440 626 q 286 559 324 626 q 231 390 249 492 z "},"ɛ":{"ha":572,"x_min":18,"x_max":571,"o":"m 261 -21 q 86 37 154 -21 q 18 190 18 94 q 70 327 18 272 q 221 393 122 382 q 92 540 92 424 q 124 650 92 600 q 215 729 156 700 q 351 758 274 758 q 473 736 417 758 q 571 669 529 714 l 485 578 q 428 612 456 600 q 368 624 400 624 q 299 597 324 624 q 275 528 275 569 q 364 443 275 443 l 421 443 l 382 317 l 332 317 q 240 286 269 317 q 210 204 210 256 q 232 140 210 163 q 296 117 254 117 q 367 131 333 117 q 442 174 400 144 l 508 69 q 398 3 461 26 q 261 -21 335 -21 z "},"ʚ":{"ha":669,"x_min":18,"x_max":632,"o":"m 264 -21 q 87 35 156 -21 q 18 183 18 90 q 70 325 18 268 q 221 393 122 382 q 103 531 103 424 q 136 644 103 592 q 231 727 169 696 q 374 758 292 758 q 565 681 499 758 q 632 467 632 603 q 538 109 632 239 q 264 -21 443 -21 m 281 117 q 412 220 371 117 q 453 472 453 324 q 431 588 453 551 q 368 624 410 624 q 305 595 326 624 q 283 519 283 567 q 356 443 283 443 l 381 443 l 342 317 l 319 317 q 234 283 261 317 q 207 197 207 249 q 226 138 207 158 q 281 117 246 117 z "},"ɜ":{"ha":575,"x_min":-21,"x_max":544,"o":"m 332 758 q 485 710 426 758 q 544 579 544 661 q 498 457 544 507 q 360 390 451 407 q 515 235 515 369 q 483 111 515 169 q 382 16 450 53 q 213 -21 314 -21 q -21 69 69 -21 l 74 176 q 141 131 108 146 q 210 117 174 117 q 295 151 267 117 q 324 240 324 186 q 299 299 324 282 q 229 317 275 317 l 147 317 l 181 443 l 233 443 q 323 474 292 443 q 354 554 354 506 q 289 624 354 624 q 224 611 254 624 q 153 574 193 599 l 86 675 q 332 758 199 758 z "},"ɞ":{"ha":656,"x_min":35,"x_max":628,"o":"m 292 -21 q 101 53 167 -21 q 35 260 35 126 q 81 523 35 410 q 210 697 126 636 q 407 758 294 758 q 566 710 504 758 q 628 579 628 661 q 583 458 628 507 q 451 392 539 410 q 597 238 597 372 q 565 113 597 172 q 465 17 533 54 q 292 -21 397 -21 m 303 117 q 385 152 358 117 q 413 243 413 188 q 390 300 413 283 q 325 317 368 317 l 289 317 l 328 443 l 344 443 q 415 473 389 443 q 440 554 440 503 q 381 624 440 624 q 257 514 300 624 q 214 253 214 404 q 235 149 214 181 q 303 117 256 117 z "},"ɝ":{"ha":863,"x_min":-21,"x_max":900,"o":"m 900 479 q 756 429 832 429 q 638 472 678 429 q 597 585 597 515 l 596 608 l 544 575 q 497 456 543 506 q 360 390 451 407 q 515 235 515 369 q 483 111 515 169 q 382 16 450 53 q 213 -21 314 -21 q -21 69 69 -21 l 74 176 q 141 131 108 146 q 210 117 174 117 q 295 151 267 117 q 324 240 324 186 q 299 299 324 282 q 229 317 275 317 l 147 317 l 181 443 l 233 443 q 323 474 292 443 q 354 554 354 506 q 289 624 354 624 q 224 611 254 624 q 153 574 193 599 l 86 675 q 332 758 199 758 q 439 738 392 758 q 514 679 486 717 l 607 736 l 760 736 l 744 625 l 743 611 q 756 574 743 588 q 790 561 769 561 q 861 581 822 561 l 900 479 z "},"ɘ":{"ha":635,"x_min":4,"x_max":597,"o":"m 340 758 q 535 676 472 758 q 597 463 597 594 q 553 208 597 317 q 425 39 508 99 q 229 -21 342 -21 q 4 78 86 -21 l 99 178 q 161 135 131 149 q 232 122 192 122 q 389 268 346 122 q 145 332 231 279 q 60 497 60 385 q 94 631 60 571 q 193 724 129 690 q 340 758 257 758 m 249 503 q 285 422 249 450 q 410 389 322 394 q 414 479 414 433 q 333 626 414 626 q 272 594 294 626 q 249 503 249 561 z "},"ʃ":{"ha":325,"x_min":-219,"x_max":526,"o":"m 375 1050 q 526 996 461 1050 l 453 885 q 386 907 419 907 q 342 888 357 907 q 321 826 326 868 l 307 736 l 204 0 l 193 -76 q 110 -247 178 -190 q -62 -304 42 -304 q -152 -288 -115 -304 q -219 -244 -189 -272 l -140 -137 q -103 -157 -118 -151 q -65 -162 -87 -162 q -17 -143 -35 -162 q 6 -87 1 -124 l 18 0 l 121 736 l 133 825 q 210 989 147 928 q 375 1050 272 1050 z "},"ʆ":{"ha":403,"x_min":-149,"x_max":603,"o":"m 451 1050 q 603 996 538 1050 l 529 885 q 463 907 496 907 q 418 888 433 907 q 397 826 403 868 l 383 736 l 278 -17 q 381 -65 332 -31 l 338 -144 q 260 -110 288 -119 q 11 -303 201 -303 q -107 -263 -65 -303 q -149 -153 -149 -224 q -97 -24 -149 -71 q 35 24 -44 24 q 99 18 81 24 l 197 736 l 210 825 q 286 989 224 928 q 451 1050 349 1050 m 6 -199 q 56 -171 38 -199 q 83 -87 75 -143 l 85 -74 q 35 -68 64 -68 q -19 -90 0 -68 q -39 -147 -39 -111 q 6 -199 -39 -199 z "},"ƪ":{"ha":482,"x_min":33,"x_max":531,"o":"m 531 -249 q 360 -304 456 -304 q 216 -254 268 -304 q 164 -111 164 -204 q 167 -67 164 -97 l 175 0 l 261 625 q 183 607 222 607 q 76 659 119 607 q 33 794 33 711 q 101 980 33 910 q 278 1050 168 1050 q 422 996 368 1050 q 475 847 475 942 q 471 796 475 824 l 361 0 l 350 -89 q 349 -107 349 -96 q 403 -162 349 -162 q 440 -157 424 -162 q 478 -139 456 -151 l 531 -249 m 238 740 q 278 747 257 740 l 292 844 q 294 871 294 864 q 258 915 294 915 q 210 880 226 915 q 194 793 194 844 q 238 740 194 740 z "},"ʅ":{"ha":567,"x_min":33,"x_max":533,"o":"m 533 35 q 363 -21 458 -21 q 219 29 271 -21 q 167 172 167 79 q 169 217 167 186 l 178 283 l 203 453 l 214 542 q 215 560 215 549 q 161 615 215 615 q 124 610 140 615 q 86 592 108 604 l 33 701 q 204 757 108 757 q 348 707 296 757 q 400 564 400 657 q 397 519 400 550 l 389 453 l 364 282 l 353 194 q 351 176 351 188 q 406 121 351 121 q 442 126 426 121 q 481 144 458 132 l 533 35 z "},"ɇ":{"ha":631,"x_min":33,"x_max":622,"o":"m 475 750 q 583 683 544 732 q 622 571 622 635 q 538 379 622 446 q 310 285 454 313 l 256 135 q 315 122 279 122 q 390 138 354 122 q 471 186 425 153 l 538 74 q 288 -22 421 -22 q 203 -11 244 -22 l 171 -101 l 111 -83 l 146 13 q 63 107 92 46 q 33 256 33 168 q 74 502 33 388 q 197 688 114 617 q 403 758 281 758 l 413 758 l 439 832 l 499 814 l 475 750 m 368 635 q 269 555 307 626 q 217 382 232 483 q 282 392 257 386 l 368 635 m 356 415 q 454 563 454 458 q 431 624 454 604 l 356 415 m 239 274 l 206 269 l 206 250 q 211 196 206 217 l 239 274 z "},"ẽ":{"ha":631,"x_min":33,"x_max":650,"o":"m 403 758 q 563 705 504 758 q 622 569 622 651 q 511 358 622 425 q 219 269 400 290 l 219 250 q 244 153 219 183 q 315 122 268 122 q 390 138 354 122 q 471 186 425 153 l 538 74 q 288 -22 421 -22 q 101 49 168 -22 q 33 257 33 121 q 74 502 33 388 q 197 688 114 617 q 403 758 281 758 m 231 390 q 440 563 440 414 q 383 626 440 626 q 286 559 324 626 q 231 390 249 492 m 489 892 q 449 901 467 892 q 408 928 432 910 q 383 946 396 938 q 358 954 369 954 q 326 940 340 954 q 292 893 311 925 l 208 943 q 281 1050 239 1008 q 368 1092 324 1092 q 413 1081 394 1092 q 453 1053 432 1071 q 465 1042 456 1050 q 484 1031 475 1035 q 501 1028 493 1028 q 533 1042 518 1028 q 565 1086 547 1056 l 650 1039 q 576 931 618 969 q 489 892 533 892 z "},"ǝ":{"ha":631,"x_min":8,"x_max":597,"o":"m 343 758 q 530 687 463 758 q 597 479 597 615 q 557 234 597 349 q 433 49 517 119 q 228 -22 350 -22 q 67 31 126 -22 q 8 167 8 85 q 119 378 8 311 q 411 467 231 446 l 411 486 q 387 583 411 553 q 315 614 363 614 q 241 599 276 614 q 160 550 206 583 l 93 663 q 343 758 210 758 m 247 110 q 344 177 307 110 q 400 346 382 244 q 190 174 190 322 q 247 110 190 110 z "},"ə":{"ha":631,"x_min":8,"x_max":597,"o":"m 343 758 q 530 687 463 758 q 597 479 597 615 q 557 234 597 349 q 433 49 517 119 q 228 -22 350 -22 q 67 31 126 -22 q 8 167 8 85 q 119 378 8 311 q 411 467 231 446 l 411 486 q 387 583 411 553 q 315 614 363 614 q 241 599 276 614 q 160 550 206 583 l 93 663 q 343 758 210 758 m 247 110 q 344 177 307 110 q 400 346 382 244 q 190 174 190 322 q 247 110 190 110 z "},"ɚ":{"ha":931,"x_min":8,"x_max":969,"o":"m 969 479 q 825 429 901 429 q 707 472 747 429 q 667 585 667 515 l 665 608 l 590 560 q 597 475 597 518 q 555 230 596 343 q 431 47 514 117 q 228 -22 349 -22 q 67 31 126 -22 q 8 167 8 85 q 119 378 8 311 q 411 467 231 446 l 411 486 q 387 583 411 553 q 315 614 363 614 q 241 599 276 614 q 160 550 206 583 l 93 663 q 343 758 210 758 q 551 658 488 758 l 676 736 l 829 736 l 814 625 l 813 611 q 826 574 813 588 q 860 561 839 561 q 931 581 892 561 l 969 479 m 247 110 q 344 177 307 110 q 400 346 382 244 q 190 174 190 322 q 247 110 190 110 z "},"ʒ":{"ha":579,"x_min":-87,"x_max":571,"o":"m 551 603 l 294 288 q 458 220 404 278 q 513 61 513 163 q 467 -132 513 -49 q 342 -260 421 -215 q 164 -304 263 -304 q -87 -165 -7 -304 l 25 -76 q 90 -138 58 -119 q 167 -157 122 -157 q 279 -99 238 -157 q 321 57 321 -40 q 292 149 321 122 q 203 175 264 175 l 96 175 l 113 290 l 356 592 l 60 592 l 81 736 l 571 736 l 551 603 z "},"ǯ":{"ha":579,"x_min":-87,"x_max":585,"o":"m 551 603 l 294 288 q 458 220 404 278 q 513 61 513 163 q 467 -132 513 -49 q 342 -260 421 -215 q 164 -304 263 -304 q -87 -165 -7 -304 l 25 -76 q 90 -138 58 -119 q 167 -157 122 -157 q 279 -99 238 -157 q 321 57 321 -40 q 292 149 321 122 q 203 175 264 175 l 96 175 l 113 290 l 356 592 l 60 592 l 81 736 l 571 736 l 551 603 m 521 1111 l 585 1036 l 399 857 l 285 857 l 149 1036 l 221 1111 l 353 989 l 521 1111 z "},"ʓ":{"ha":574,"x_min":-94,"x_max":567,"o":"m 549 603 l 294 294 q 453 230 399 289 q 508 67 508 171 q 445 -151 508 -60 q 271 -279 382 -242 l 294 -365 l 196 -397 l 174 -301 q 119 -304 140 -304 q -37 -256 19 -304 q -94 -124 -94 -208 q -47 10 -94 -39 q 71 60 1 60 q 172 17 136 60 q 231 -131 208 -25 q 318 64 318 -78 q 288 155 318 128 q 193 182 258 182 l 92 182 l 93 183 l 108 290 l 354 592 l 57 592 l 78 736 l 567 736 l 549 603 m 33 -99 q 53 -143 33 -129 q 121 -157 74 -157 l 140 -157 q 112 -66 125 -90 q 75 -42 99 -42 q 44 -58 56 -42 q 33 -99 33 -74 z "},"ƹ":{"ha":581,"x_min":-35,"x_max":597,"o":"m 576 592 l 274 592 l 443 288 l 425 175 l 422 176 l 424 175 l 321 175 q 202 122 244 175 q 160 -24 160 69 q 264 -157 160 -157 q 347 -137 308 -157 q 432 -72 385 -117 l 518 -171 q 236 -304 404 -304 q 38 -230 110 -304 q -35 -33 -35 -156 q 48 196 -35 108 q 274 292 131 283 l 89 603 l 108 736 l 597 736 l 576 592 z "},"ƺ":{"ha":567,"x_min":-40,"x_max":560,"o":"m 115 -304 q 1 -225 43 -271 q -40 -122 -40 -179 q 13 4 -40 -39 q 181 78 67 47 q 299 128 265 101 q 332 207 332 154 q 314 256 332 242 q 254 269 296 269 l 106 269 l 122 379 l 333 599 l 50 599 l 71 736 l 560 736 l 540 610 l 317 383 l 338 383 q 474 339 425 383 q 524 213 524 294 q 456 44 524 104 q 268 -49 389 -17 q 178 -76 208 -64 q 139 -100 149 -87 q 129 -132 129 -112 q 140 -166 129 -150 q 171 -199 150 -182 l 115 -304 z "},"f":{"ha":404,"x_min":-99,"x_max":589,"o":"m 433 908 q 373 883 394 908 q 343 804 351 858 l 333 736 l 476 736 l 436 601 l 315 601 l 242 61 q 185 -122 226 -53 q 89 -229 144 -192 q -56 -304 33 -267 l -99 -165 q -21 -120 -50 -144 q 27 -53 8 -96 q 56 63 46 -10 l 131 601 l 43 601 l 61 736 l 149 736 l 160 815 q 240 987 174 922 q 417 1051 307 1051 q 589 993 513 1051 l 522 882 q 433 908 478 908 z "},"ḟ":{"ha":404,"x_min":-99,"x_max":589,"o":"m 433 908 q 373 883 394 908 q 343 804 351 858 l 333 736 l 476 736 l 436 601 l 315 601 l 242 61 q 185 -122 226 -53 q 89 -229 144 -192 q -56 -304 33 -267 l -99 -165 q -21 -120 -50 -144 q 27 -53 8 -96 q 56 63 46 -10 l 131 601 l 43 601 l 61 736 l 149 736 l 160 815 q 240 987 174 922 q 417 1051 307 1051 q 589 993 513 1051 l 522 882 q 433 908 478 908 m 417 1131 q 344 1157 369 1131 q 318 1228 318 1183 q 353 1319 318 1283 q 440 1354 389 1354 q 514 1328 488 1354 q 540 1257 540 1301 q 504 1166 540 1201 q 417 1131 468 1131 z "}}}
